/* XPM */
const char * APIcon[] = {
"9 9 5 1",
" 	c #000000",
".	c #FFFF00",
"+	c #E8E800",
"@	c #EBEB00",
"#	c #EDED00",
"         ",
" ....... ",
" ....... ",
" ......+ ",
" ......@ ",
" ......@ ",
" ......# ",
" ..+@@#+ ",
"         "};
