/* XPM */
const char *APIcon[]={
"10 10 38 1",
" 	c None",
".	c #C8DBDB",
"+	c #E39B9B",
"@	c #E79090",
"#	c #E88F8F",
"$	c #CDACAC",
"%	c #CBD2D2",
"&	c #FE4C4C",
"*	c #FE3434",
"=	c #FF3333",
"-	c #FC3B3B",
";	c #EF3131",
">	c #FF4545",
",	c #FE2B2B",
"'	c #FF0606",
")	c #FF0000",
"!	c #FC0000",
"~	c #D87B7B",
"{	c #E29C9C",
"]	c #EE0000",
"^	c #AF3535",
"/	c #D1A5A5",
"(	c #EF0000",
"_	c #A71F1F",
":	c #D1A6A6",
"<	c #E88D8D",
"[	c #FE0000",
"}	c #F20000",
"|	c #A51919",
"1	c #CDD1D1",
"2	c #FC3D3D",
"3	c #BE0000",
"4	c #CA7474",
"5	c #EF3333",
"6	c #B41E1E",
"7	c #C58D8D",
"8	c #D87C7C",
"9	c #B03838",
"  .+@#$   ",
" %&*==-;  ",
" >,')))!~ ",
"{*'))))]^/",
"@=)))))(_:",
"<=))))[}|:",
"12)))[)34 ",
" 5!](}367 ",
"  89_|47  ",
"   :::    "};
