/* XPM */
const char *APIcon[]={
"10 10 31 1",
" 	c None",
".	c #000040",
"+	c #00003B",
"@	c #00003A",
"#	c #00003C",
"$	c #00003D",
"%	c #8C8CAF",
"&	c #C9C9C8",
"*	c #BDBDAA",
"=	c #BDBDAD",
"-	c #BCBCAD",
";	c #CBCBB3",
">	c #909090",
",	c #FFFFB4",
"'	c #FFFF5E",
")	c #FFFF67",
"!	c #FFFF6A",
"~	c #AFAF5D",
"{	c #00003E",
"]	c #FFFF00",
"^	c #E8E800",
"/	c #868606",
"(	c #000043",
"_	c #EBEB00",
":	c #898910",
"<	c #000042",
"[	c #EDED00",
"}	c #95950D",
"|	c #6A6A1C",
"1	c #000041",
"2	c #00003F",
".+@#####$.",
"+%&*==-;>+",
"@&,')))!~{",
"#*']]]]^/(",
"#=)]]]]_:<",
"#=)]]]]_:<",
"#-)]]]][:<",
"#;!^__[^}<",
"$>~/:::}|1",
".+{(<<<<12"};
