/* XPM */
const char *clear[]={
"14 11 101 2",
"  	c None",
". 	c #E7E8E7",
"+ 	c #656664",
"@ 	c #3D3E3B",
"# 	c #737472",
"$ 	c #D9DAD9",
"% 	c #454644",
"& 	c #5B5B5B",
"* 	c #868686",
"= 	c #797979",
"- 	c #757575",
"; 	c #717171",
"> 	c #7A7A7A",
", 	c #6A6A6A",
"' 	c #686868",
") 	c #2F302E",
"! 	c #C8C8C8",
"~ 	c #313231",
"{ 	c #535353",
"] 	c #9F9F9F",
"^ 	c #F4F4F4",
"/ 	c #8A8A8A",
"( 	c #848484",
"_ 	c #ACACAC",
": 	c #212221",
"< 	c #B2B2B1",
"[ 	c #1E1E1D",
"} 	c #4A4A4A",
"| 	c #595959",
"1 	c #D4D4D4",
"2 	c #FAFAFA",
"3 	c #F3F3F3",
"4 	c #AEAEAE",
"5 	c #FCFCFC",
"6 	c #EAEAEA",
"7 	c #4E4E4E",
"8 	c #141413",
"9 	c #9C9C9C",
"0 	c #0F0F0F",
"a 	c #414141",
"b 	c #4B4B4B",
"c 	c #474747",
"d 	c #545454",
"e 	c #DEDEDE",
"f 	c #FBFBFB",
"g 	c #F0F0F0",
"h 	c #505050",
"i 	c #3F3F3F",
"j 	c #060606",
"k 	c #1A1A1A",
"l 	c #313131",
"m 	c #3A3A3A",
"n 	c #373737",
"o 	c #909090",
"p 	c #222222",
"q 	c #191919",
"r 	c #010101",
"s 	c #9A9A9A",
"t 	c #0C0C0C",
"u 	c #0D0D0D",
"v 	c #101010",
"w 	c #454545",
"x 	c #EDEDED",
"y 	c #E7E7E7",
"z 	c #E1E1E1",
"A 	c #020202",
"B 	c #ABABAB",
"C 	c #090909",
"D 	c #050505",
"E 	c #040404",
"F 	c #C6C6C6",
"G 	c #E9E9E9",
"H 	c #C4C5C4",
"I 	c #565655",
"J 	c #C1C1C1",
"K 	c #CFD0CF",
"L 	c #202020",
"M 	c #C0C0C0",
"N 	c #111111",
"O 	c #141414",
"P 	c #444543",
"Q 	c #4E4F4D",
"R 	c #41423F",
"S 	c #565754",
"T 	c #B7B8B7",
"U 	c #646463",
"V 	c #323331",
"W 	c #D1D1D1",
"X 	c #1B1B1B",
"Y 	c #272726",
"Z 	c #4A4B48",
"` 	c #585956",
" .	c #646662",
"..	c #6A6B67",
"+.	c #666864",
"@.	c #4D4E4B",
"#.	c #070707",
"$.	c #E0E0E0",
"%.	c #353535",
"&.	c #080808",
"*.	c #7D7D7D",
"        . + @ @ @ @ @ @ @ # ",
"      $ % & * = - ; > , ' ) ",
"    ! ~ { ] ^ / & ( ^ _ { : ",
"  < [ } | 1 2 3 4 ^ 5 6 7 8 ",
"9 0 a b c d e 2 f 5 g h i j ",
"k l i m n n o 5 5 f o p q r ",
"s j t u v w e x y x z 7 A A ",
"  B C D E F G H I J G K L E ",
"    M N O P < Q R S T U V D ",
"      W X Y Z `  ...+.` @.#.",
"        $.%.&.&.&.&.&.&.&.*."};
