/* XPM */
const char * ConnHandleGreen[] = {
"7 7 3 1",
" 	c None",
".	c #AAFFAA",
"+	c #00FF00",
".......",
".+++++.",
".+++++.",
".+++++.",
".+++++.",
".+++++.",
"......."};
