/* XPM */
const char * ConnStartGreen[] = {
"9 14 3 1",
" 	c None",
".	c #AAFFAA",
"+	c #00FF00",
"   ...   ",
" ..+++.. ",
" .+++++. ",
".+++++++.",
".+++++++.",
".+++++++.",
" .+++++. ",
" ..+++.. ",
"   +++   ",
"   +++   ",
"   +++   ",
"   +++   ",
"   +++   ",
"   +++   "};
