/* XPM */
const char * ConnEndBlue[] = {
"11 16 3 1",
" 	c None",
".	c #AAAAFF",
"+	c #0000FF",
"    ...    ",
"    .+.    ",
"   ..+..   ",
"   .+++.   ",
"  ..+++..  ",
"  .+++++.  ",
" ..+++++.. ",
" .+++++++. ",
"..+++++++..",
".+++++++++.",
"....+++....",
"    +++    ",
"    +++    ",
"    +++    ",
"    +++    ",
"    +++    "};
