/* XPM */
const char * copy_xpm[] = {
"16 16 104 2",
"  	c None",
". 	c #C9C9DC",
"+ 	c #D8D8E7",
"@ 	c #D7D7E5",
"# 	c #D3D3E3",
"$ 	c #D1D1E2",
"% 	c #D3D3E5",
"& 	c #A6A6C2",
"* 	c #CBCBD9",
"= 	c #CFCFDF",
"- 	c #FEFEFE",
"; 	c #F9F9FE",
"> 	c #EDEDF7",
", 	c #D7D7E7",
"' 	c #C2C2D2",
") 	c #FCFCFE",
"! 	c #F3F3FD",
"~ 	c #B2B2CC",
"{ 	c #9292B1",
"] 	c #8282A3",
"^ 	c #BDBDCE",
"/ 	c #FDFDFE",
"( 	c #F0F0F9",
"_ 	c #E0E0F0",
": 	c #C8C8DC",
"< 	c #ABABC5",
"[ 	c #ACACC2",
"} 	c #F3F3FC",
"| 	c #D2D2E6",
"1 	c #BFBFD6",
"2 	c #B9B9D0",
"3 	c #BDBDD1",
"4 	c #DEDEEA",
"5 	c #D9D9E6",
"6 	c #CDCDDE",
"7 	c #C9C9D7",
"8 	c #F3F3FE",
"9 	c #E2E2F0",
"0 	c #C6C6DA",
"a 	c #F1F1F8",
"b 	c #E6E6F3",
"c 	c #E1E1F0",
"d 	c #ABABC6",
"e 	c #C5C5D4",
"f 	c #F6F6FE",
"g 	c #E9E9F6",
"h 	c #E4E4F3",
"i 	c #C9C9DD",
"j 	c #F8F8FC",
"k 	c #F1F1FC",
"l 	c #DCDCEC",
"m 	c #9E9EB9",
"n 	c #8787A8",
"o 	c #B6B6C9",
"p 	c #EDEDF8",
"q 	c #ECECF7",
"r 	c #CACADE",
"s 	c #F7F7FC",
"t 	c #F5F5FD",
"u 	c #E2E2F1",
"v 	c #B7B7CE",
"w 	c #8484A4",
"x 	c #F7F7FE",
"y 	c #EEEEF8",
"z 	c #CECEE1",
"A 	c #8888A9",
"B 	c #D1D1E0",
"C 	c #F0F0FC",
"D 	c #CCCCE0",
"E 	c #DDDDEC",
"F 	c #CFCFE1",
"G 	c #8989AA",
"H 	c #C4C4D8",
"I 	c #F1F1F9",
"J 	c #E4E4F1",
"K 	c #E0E0EE",
"L 	c #DDDDED",
"M 	c #C6C6DC",
"N 	c #F8F8FD",
"O 	c #DCDCED",
"P 	c #D7D7E9",
"Q 	c #DADAEC",
"R 	c #8D8DAA",
"S 	c #ABABC1",
"T 	c #AAAAC0",
"U 	c #ADADC5",
"V 	c #E8E8F5",
"W 	c #DEDEEE",
"X 	c #8D8DAB",
"Y 	c #D3D3E1",
"Z 	c #E7E7F5",
"` 	c #E2E2F3",
" .	c #D8D8E6",
"..	c #F9F9FD",
"+.	c #F8F8FE",
"@.	c #E8E8F7",
"#.	c #8E8EAC",
"$.	c #BBBBCD",
"%.	c #9B9BB7",
"&.	c #A0A0BA",
"*.	c #9F9FB9",
"=.	c #9C9CB9",
"-.	c #9C9CB7",
";.	c #8888A8",
". + @ # $ % & *                 ",
"= - - - ; > , & '               ",
"= - - - ) ! ~ { ] ^             ",
"= - - - / ( _ : < [             ",
"= - - - - } | 1 2 3 4 5 6 7     ",
"= - - - 8 9 0 a - - 8 b c d e   ",
"= - - f g h i j - - - k l m n o ",
"= - / ( p q r s - - - t u v d w ",
"= - x k y q r s - - - x g z 0 A ",
"B - x t } C D s - - - p E D F G ",
"H I J 9 K L M N - - k u O P Q R ",
"[ S S S S T U - - f > V h W _ X ",
"            Y ) - } ( g Z c ` X ",
"             ...+.! ( q Z c ` X ",
"            5 ; / ; x k p Z @.#.",
"            $.%.&.&.*.=.=.%.-.;."};
