/* XPM */
const char *eraser[]={
"12 12 6 1",
". c None",
"a c #585858",
"b c #58a8ff",
"d c #a0a0a0",
"# c #c0c0ff",
"c c #ffffff",
"............",
".......#a...",
"......#bba..",
".....#bbbba.",
"....#bbbbba.",
"...#bbbbba..",
"..#bbbbba...",
".ccabbba....",
".cccaba.....",
"..ccca......",
"...cd.......",
"............"};
