/* XPM */
const char * fileOpen_xpm[] = {
"16 15 193 2",
"  	c None",
". 	c #A6AAD7",
"+ 	c #838ACC",
"@ 	c #D1D2E6",
"# 	c #9CA1D5",
"$ 	c #CED0F0",
"% 	c #DCDEF7",
"& 	c #9BA0D3",
"* 	c #7196E0",
"= 	c #8FB1EC",
"- 	c #88ABEB",
"; 	c #87ABEB",
"> 	c #6B8EDE",
", 	c #B6B9DC",
"' 	c #A7ACDE",
") 	c #E9E9FB",
"! 	c #F2F1FE",
"~ 	c #ECEBFC",
"{ 	c #9FA5DC",
"] 	c #C9CBE4",
"^ 	c #4981E0",
"/ 	c #B9ECFC",
"( 	c #A6DEFC",
"_ 	c #9BDAFC",
": 	c #76ABEE",
"< 	c #7C8DD3",
"[ 	c #D1D3ED",
"} 	c #FCFCFE",
"| 	c #F2F2FE",
"1 	c #E6E6FB",
"2 	c #E6E4FB",
"3 	c #DEDEF7",
"4 	c #7F89CD",
"5 	c #D7D9EB",
"6 	c #568BE0",
"7 	c #CAFCFE",
"8 	c #AFE6FC",
"9 	c #95BBEC",
"0 	c #A1AADD",
"a 	c #F1F1FB",
"b 	c #FEFEFE",
"c 	c #F7F7FE",
"d 	c #EEEEFE",
"e 	c #E8E8FB",
"f 	c #E3E2F8",
"g 	c #C8CEF3",
"h 	c #8995D7",
"i 	c #96A0D4",
"j 	c #CDCCE0",
"k 	c #CECEE0",
"l 	c #5288E0",
"m 	c #C8FBFE",
"n 	c #97B6E8",
"o 	c #C4C3E4",
"p 	c #FDF8FE",
"q 	c #FBF6FE",
"r 	c #7491DE",
"s 	c #4670DA",
"t 	c #6087E2",
"u 	c #446AD2",
"v 	c #6380D9",
"w 	c #4960C7",
"x 	c #5185E0",
"y 	c #CBFDFE",
"z 	c #8FBDF1",
"A 	c #6E8FDD",
"B 	c #92B2F0",
"C 	c #8DABEB",
"D 	c #89A8E8",
"E 	c #86A3E8",
"F 	c #86A0E7",
"G 	c #5A7BD8",
"H 	c #396BDB",
"I 	c #5798F9",
"J 	c #4690FE",
"K 	c #4B96FE",
"L 	c #295FE7",
"M 	c #364BC2",
"N 	c #4E84DF",
"O 	c #CFFEFE",
"P 	c #4F8EE7",
"Q 	c #648DE2",
"R 	c #A7C2F5",
"S 	c #9FC5F7",
"T 	c #8FBCF5",
"U 	c #80AFF3",
"V 	c #6FA3F2",
"W 	c #6599F3",
"X 	c #65A4FE",
"Y 	c #3786FE",
"Z 	c #2E7DFC",
"` 	c #1F5AEB",
" .	c #0119BC",
"..	c #727DCC",
"+.	c #4C81DE",
"@.	c #BFF2FE",
"#.	c #3870DB",
"$.	c #DAEBFC",
"%.	c #D0E4F8",
"&.	c #D5FBFD",
"*.	c #A9DEFE",
"=.	c #7DB8FD",
"-.	c #5998FC",
";.	c #3C80FB",
">.	c #2767F6",
",.	c #164BE3",
"'.	c #0726C9",
").	c #1A24C0",
"!.	c #1120B9",
"~.	c #A3A8D8",
"{.	c #5085DF",
"].	c #85BFF5",
"^.	c #618FE7",
"/.	c #E1FEFE",
"(.	c #A2D5F8",
"_.	c #8FC4FB",
":.	c #6FABFE",
"<.	c #4C88FB",
"[.	c #306AF3",
"}.	c #164FED",
"|.	c #0630DA",
"1.	c #001EC9",
"2.	c #0116C0",
"3.	c #1C26C2",
"4.	c #2D3CBC",
"5.	c #CACBE3",
"6.	c #5086DF",
"7.	c #5590E3",
"8.	c #9FC2F0",
"9.	c #B9EDFE",
"0.	c #85CCFE",
"a.	c #64A4F9",
"b.	c #5E9CFC",
"c.	c #4784F9",
"d.	c #2864F2",
"e.	c #083CE4",
"f.	c #0029DA",
"g.	c #0024D2",
"h.	c #011AC8",
"i.	c #0D18BC",
"j.	c #5560C2",
"k.	c #3269D8",
"l.	c #5288E4",
"m.	c #B8D8F8",
"n.	c #C8EDFE",
"o.	c #AFDAFE",
"p.	c #97C0FC",
"q.	c #88AEF7",
"r.	c #789FF3",
"s.	c #587DE8",
"t.	c #4067E1",
"u.	c #3B5EDA",
"v.	c #3853CE",
"w.	c #3148C4",
"x.	c #172DB8",
"y.	c #7E85CB",
"z.	c #1347CB",
"A.	c #6C96E6",
"B.	c #FEFDFE",
"C.	c #F6F3FC",
"D.	c #ECE9F7",
"E.	c #E2DEF1",
"F.	c #DBD7EC",
"G.	c #D1CEE6",
"H.	c #C5C3E0",
"I.	c #BBB8DA",
"J.	c #B5B2D6",
"K.	c #4158BD",
"L.	c #AEAFD8",
"M.	c #0E3CC5",
"N.	c #B1C5F1",
"O.	c #F9F6FB",
"P.	c #EBE7F2",
"Q.	c #DCD8E9",
"R.	c #CECAE1",
"S.	c #BFBDD7",
"T.	c #B5B2CF",
"U.	c #AAAACA",
"V.	c #2F45B7",
"W.	c #133DC2",
"X.	c #3C69D4",
"Y.	c #4770D6",
"Z.	c #446DD6",
"`.	c #446BD3",
" +	c #3F67D1",
".+	c #3A60CB",
"++	c #3459C5",
"@+	c #2E52BE",
"#+	c #284AB9",
"$+	c #2443B3",
"%+	c #213DAF",
"&+	c #1A36AB",
"*+	c #5B65C0",
"                  . +           ",
"              @ # $ % &         ",
"* = - ; >   , ' ) ! ~ { ]       ",
"^ / ( _ : < [ } | 1 2 3 4 5     ",
"6 7 8 9 0 a b c d e f g h i j k ",
"l m n o b b b b p q r s t u v w ",
"x y z A B C D E F G H I J K L M ",
"N O P Q R S T U V W X Y Z `  ...",
"+.@.#.$.%.&.*.=.-.;.>.,.'.).!.~.",
"{.].^./.(._.:.<.[.}.|.1.2.3.4.5.",
"6.7.8.9.0.a.b.c.d.e.f.g.h.i.j.  ",
"k.l.m.n.o.p.q.r.s.t.u.v.w.x.y.  ",
"z.A.B.b B.C.D.E.F.G.H.I.J.K.L.  ",
"M.N.b b b b O.P.Q.R.S.T.U.V.    ",
"W.X.Y.Z.`. +.+++@+#+$+%+&+*+    "};
