/* XPM */
const char * fileSaveAs_xpm[] = {
"14 16 198 2",
"  	c None",
". 	c #F3BD63",
"+ 	c #E4B089",
"@ 	c #DDA78E",
"# 	c #E8D7C0",
"$ 	c #FED803",
"% 	c #FEDE58",
"& 	c #FCC587",
"* 	c #E4B49B",
"= 	c #AFB0CB",
"- 	c #B1B3CC",
"; 	c #A8A8C7",
"> 	c #A7A6C3",
", 	c #9B9BBA",
"' 	c #8C8CAF",
") 	c #8181A6",
"! 	c #76779F",
"~ 	c #66669C",
"{ 	c #B19127",
"] 	c #FED800",
"^ 	c #FEAA00",
"/ 	c #ED7913",
"( 	c #A4979C",
"_ 	c #B1B2CD",
": 	c #F2F8FE",
"< 	c #FEFEFE",
"[ 	c #96A6C5",
"} 	c #546B9B",
"| 	c #C8D1E2",
"1 	c #FEEDCC",
"2 	c #FED606",
"3 	c #FEC203",
"4 	c #FE9B0D",
"5 	c #B36031",
"6 	c #212353",
"7 	c #A7A7C7",
"8 	c #E2EBF9",
"9 	c #F5F9FE",
"0 	c #5E75A1",
"a 	c #344F85",
"b 	c #C5CEE1",
"c 	c #FBDA62",
"d 	c #FED605",
"e 	c #FEB714",
"f 	c #F8861B",
"g 	c #806670",
"h 	c #171B52",
"i 	c #9C9DBD",
"j 	c #D5E0F1",
"k 	c #EBF0F8",
"l 	c #A7B5D0",
"m 	c #9CAECC",
"n 	c #F0F3FB",
"o 	c #FEF0DB",
"p 	c #FBD521",
"q 	c #FECF1D",
"r 	c #FEAE25",
"s 	c #C6743A",
"t 	c #515C8B",
"u 	c #181848",
"v 	c #9294B6",
"w 	c #CBD6EB",
"x 	c #D1DAEB",
"y 	c #E3E9F5",
"z 	c #E0E6F2",
"A 	c #DBE2F0",
"B 	c #D3DCF0",
"C 	c #E8CC76",
"D 	c #FEDD26",
"E 	c #FEC531",
"F 	c #FDA035",
"G 	c #806566",
"H 	c #3D5085",
"I 	c #171745",
"J 	c #8788AD",
"K 	c #C4D0E7",
"L 	c #ACBBD7",
"M 	c #A1B1D1",
"N 	c #98A9CA",
"O 	c #8CA0C8",
"P 	c #8C96AE",
"Q 	c #E7CB41",
"R 	c #FEDD40",
"S 	c #FEC445",
"T 	c #C4773E",
"U 	c #45517B",
"V 	c #374474",
"W 	c #151543",
"X 	c #7B7EA5",
"Y 	c #B7C4DE",
"Z 	c #ABBBD6",
"` 	c #AFBDD8",
" .	c #A6B6D2",
"..	c #96A8D2",
"+.	c #B7A876",
"@.	c #FEE64D",
"#.	c #FED553",
"$.	c #FCB350",
"%.	c #896660",
"&.	c #3F5588",
"*.	c #2B3765",
"=.	c #13133E",
"-.	c #72749C",
";.	c #A7B7D5",
">.	c #C9D3E3",
",.	c #F8F2F0",
"'.	c #F8D765",
").	c #FEE665",
"!.	c #FED365",
"~.	c #E7A05F",
"{.	c #C8BBCA",
"].	c #6C789F",
"^.	c #192252",
"/.	c #10103A",
"(.	c #676995",
"_.	c #9EAECE",
":.	c #C2CBE0",
"<.	c #E8E7F7",
"[.	c #DCDDF2",
"}.	c #D3CCDA",
"|.	c #F7D186",
"1.	c #FEE990",
"2.	c #FECC74",
"3.	c #B38574",
"4.	c #9A9EC6",
"5.	c #596088",
"6.	c #101947",
"7.	c #0F0F38",
"8.	c #5E618D",
"9.	c #8FA1C3",
"0.	c #B3BDD5",
"a.	c #E4E3F8",
"b.	c #CFD0EC",
"c.	c #C4BDCF",
"d.	c #F0CAA2",
"e.	c #FEE9CB",
"f.	c #C48D72",
"g.	c #8C83A0",
"h.	c #8B8DB5",
"i.	c #4E567D",
"j.	c #0A133F",
"k.	c #0E0E35",
"l.	c #545785",
"m.	c #7B8DB1",
"n.	c #A1ABCA",
"o.	c #DAD8EE",
"p.	c #C4C5E3",
"q.	c #B8B1C9",
"r.	c #AF8268",
"s.	c #B88C7C",
"t.	c #89809E",
"u.	c #8184AC",
"v.	c #8482A8",
"w.	c #454D76",
"x.	c #060D39",
"y.	c #0F0F36",
"z.	c #484B7B",
"A.	c #6B7DA4",
"B.	c #969FC0",
"C.	c #CBCAE7",
"D.	c #B6B7DA",
"E.	c #ACA7C3",
"F.	c #986D69",
"G.	c #8681A6",
"H.	c #8184AF",
"I.	c #7979A2",
"J.	c #807FA8",
"K.	c #434C76",
"L.	c #020B33",
"M.	c #0F0F35",
"N.	c #393A6D",
"O.	c #5B6690",
"P.	c #7F84A7",
"Q.	c #C4C3D7",
"R.	c #B0B0C9",
"S.	c #A7A6BF",
"T.	c #9C9CB9",
"U.	c #9293B5",
"V.	c #8989A9",
"W.	c #8080A2",
"X.	c #8181A4",
"Y.	c #353B64",
"Z.	c #000224",
"`.	c #0A0A2E",
" +	c #2D2D5F",
".+	c #1E1D51",
"++	c #1E1E4C",
"@+	c #282854",
"#+	c #272652",
"$+	c #242451",
"%+	c #24244F",
"&+	c #22224D",
"*+	c #21214C",
"=+	c #1F1F4A",
"-+	c #1E1E4A",
";+	c #14143C",
">+	c #0F0F30",
",+	c #212144",
"                    . + @   ",
"                  # $ % & * ",
"= - ; > , ' ) ! ~ { ] ^ / ( ",
"_ : < [ } | < < 1 2 3 4 5 6 ",
"7 8 9 0 a b < < c d e f g h ",
"i j k l m n < o p q r s t u ",
"v w x y z A B C D E F G H I ",
"J K L M N O P Q R S T U V W ",
"X Y Z `  ...+.@.#.$.%.&.*.=.",
"-.;.>.< < ,.'.).!.~.{.].^./.",
"(._.:.<.[.}.|.1.2.3.4.5.6.7.",
"8.9.0.a.b.c.d.e.f.g.h.i.j.k.",
"l.m.n.o.p.q.r.s.t.u.v.w.x.y.",
"z.A.B.C.D.E.F.G.H.I.J.K.L.M.",
"N.O.P.Q.R.S.T.U.V.W.X.Y.Z.`.",
" +.+++@+#+$+%+&+*+=+-+;+>+,+"};
