/* XPM */
const char * fileSave_xpm[] = {
"14 14 179 2",
"  	c None",
". 	c #AFB0CB",
"+ 	c #B1B3CC",
"@ 	c #A8A8C7",
"# 	c #A7A6C3",
"$ 	c #9B9BBA",
"% 	c #8C8CAF",
"& 	c #8181A6",
"* 	c #77779E",
"= 	c #6D6D96",
"- 	c #64648E",
"; 	c #5B5B87",
"> 	c #4A4B7C",
", 	c #2C2D5E",
"' 	c #BBBBC6",
") 	c #B1B2CD",
"! 	c #F2F8FE",
"~ 	c #FEFEFE",
"{ 	c #96A6C5",
"] 	c #546B9B",
"^ 	c #C8D1E2",
"/ 	c #D5DEED",
"( 	c #737DA8",
"_ 	c #1F1E4B",
": 	c #A7A7C7",
"< 	c #E2EBF9",
"[ 	c #F5F9FE",
"} 	c #5E75A1",
"| 	c #344F85",
"1 	c #C5CEE1",
"2 	c #C0CCE0",
"3 	c #6878A4",
"4 	c #1A1A4A",
"5 	c #9C9DBD",
"6 	c #D5E0F1",
"7 	c #EBF0F8",
"8 	c #A7B5D0",
"9 	c #9CAECC",
"0 	c #F0F3FB",
"a 	c #B8C4D8",
"b 	c #4C5987",
"c 	c #181847",
"d 	c #9294B6",
"e 	c #CBD6EB",
"f 	c #D1DAEB",
"g 	c #E3E9F5",
"h 	c #E0E6F2",
"i 	c #DBE2F0",
"j 	c #D6DEEC",
"k 	c #D3DBE9",
"l 	c #D1D8E8",
"m 	c #CCD6E6",
"n 	c #C0C9DB",
"o 	c #818FAF",
"p 	c #3E4B79",
"q 	c #171745",
"r 	c #8788AD",
"s 	c #C4D0E7",
"t 	c #ACBBD7",
"u 	c #A1B1D1",
"v 	c #98A9CA",
"w 	c #8EA1C4",
"x 	c #8599BE",
"y 	c #7B8FB7",
"z 	c #6D83AB",
"A 	c #5B6E9A",
"B 	c #495B88",
"C 	c #435482",
"D 	c #394473",
"E 	c #151542",
"F 	c #7B7EA5",
"G 	c #B7C4DE",
"H 	c #ABBBD6",
"I 	c #AFBDD8",
"J 	c #A6B6D2",
"K 	c #9BAACA",
"L 	c #8D9BBE",
"M 	c #7C8DB1",
"N 	c #6E7CA4",
"O 	c #627099",
"P 	c #5B6892",
"Q 	c #455582",
"R 	c #2B3765",
"S 	c #13133F",
"T 	c #72749C",
"U 	c #A7B7D5",
"V 	c #C9D3E3",
"W 	c #FBFBFE",
"X 	c #EEEEFB",
"Y 	c #E4E4F3",
"Z 	c #DADAEB",
"` 	c #CECEE3",
" .	c #CECEE2",
"..	c #6F799E",
"+.	c #1B2756",
"@.	c #11113C",
"#.	c #676995",
"$.	c #9EAECE",
"%.	c #C2CBE0",
"&.	c #E8E7F7",
"*.	c #DCDCF1",
"=.	c #D3D3EC",
"-.	c #CAC9E4",
";.	c #C0C0DD",
">.	c #B6B6D5",
",.	c #ABABCE",
"'.	c #AFAECF",
").	c #646D96",
"!.	c #131D4C",
"~.	c #10103B",
"{.	c #5E618D",
"].	c #8FA1C3",
"^.	c #B3BDD5",
"/.	c #E4E3F8",
"(.	c #CFCFE9",
"_.	c #C5C5E1",
":.	c #BCBCDA",
"<.	c #B2B2D2",
"[.	c #A8A8CA",
"}.	c #9E9EC3",
"|.	c #A1A0C4",
"1.	c #59628B",
"2.	c #0C1643",
"3.	c #0F0F38",
"4.	c #545785",
"5.	c #7B8DB1",
"6.	c #A1ABCA",
"7.	c #DAD8EE",
"8.	c #C4C4E0",
"9.	c #BBBBD8",
"0.	c #B1B1D1",
"a.	c #A7A7C9",
"b.	c #9E9EC2",
"c.	c #9595B9",
"d.	c #9796BB",
"e.	c #4F5880",
"f.	c #060F39",
"g.	c #0F0F37",
"h.	c #484B7B",
"i.	c #6B7DA4",
"j.	c #969FC0",
"k.	c #CBCAE7",
"l.	c #B6B6D7",
"m.	c #ACACD0",
"n.	c #A3A3C8",
"o.	c #9A9AC0",
"p.	c #9191B8",
"q.	c #8787B0",
"r.	c #8988B2",
"s.	c #454F79",
"t.	c #020B32",
"u.	c #0F0F35",
"v.	c #393A6D",
"w.	c #5B6690",
"x.	c #7F84A7",
"y.	c #C4C3D7",
"z.	c #B0B0C9",
"A.	c #A6A6C0",
"B.	c #9C9CB9",
"C.	c #9292B2",
"D.	c #8B8BAA",
"E.	c #8181A3",
"F.	c #8180A4",
"G.	c #353A64",
"H.	c #000224",
"I.	c #0A0A2E",
"J.	c #2D2D5F",
"K.	c #1E1D51",
"L.	c #1E1E4C",
"M.	c #282854",
"N.	c #272752",
"O.	c #242450",
"P.	c #24244E",
"Q.	c #21214D",
"R.	c #20204C",
"S.	c #1E1E4A",
"T.	c #14143C",
"U.	c #0F0F30",
"V.	c #212144",
". + @ # $ % & * = - ; > , ' ",
") ! ~ { ] ^ ~ ~ ~ ~ ~ / ( _ ",
": < [ } | 1 ~ ~ ~ ~ ~ 2 3 4 ",
"5 6 7 8 9 0 ~ ~ ~ ~ ~ a b c ",
"d e f g h i j k l m n o p q ",
"r s t u v w x y z A B C D E ",
"F G H I J K L M N O P Q R S ",
"T U V ~ ~ W X Y Z `  ...+.@.",
"#.$.%.&.*.=.-.;.>.,.'.).!.~.",
"{.].^./.(._.:.<.[.}.|.1.2.3.",
"4.5.6.7.8.9.0.a.b.c.d.e.f.g.",
"h.i.j.k.l.m.n.o.p.q.r.s.t.u.",
"v.w.x.y.z.A.B.C.D.E.F.G.H.I.",
"J.K.L.M.N.O.P.Q.R.S.S.T.U.V."};
