/* XPM */
const char * fileClose_xpm[] = {
"16 16 177 2",
"  	c None",
". 	c #BE9394",
"+ 	c #B67172",
"@ 	c #B66E6F",
"# 	c #BC8788",
"$ 	c #CDBFC0",
"% 	c #AE6364",
"& 	c #970B0B",
"* 	c #B03535",
"= 	c #C56060",
"- 	c #C76565",
"; 	c #B74444",
"> 	c #9A0B0B",
", 	c #A54747",
"' 	c #CCBEBF",
") 	c #B3A3A6",
"! 	c #9C292A",
"~ 	c #AA1D1D",
"{ 	c #DB8989",
"] 	c #E7A7A7",
"^ 	c #E8A7A7",
"/ 	c #E29A9A",
"( 	c #B73535",
"_ 	c #971010",
": 	c #C4A9AA",
"< 	c #9E3334",
"[ 	c #AB1111",
"} 	c #DA7D7A",
"| 	c #DE8982",
"1 	c #E18B83",
"2 	c #E18A84",
"3 	c #E18784",
"4 	c #DF8484",
"5 	c #DB8181",
"6 	c #DC8181",
"7 	c #B82929",
"8 	c #981212",
"9 	c #CCC0C2",
"0 	c #B68283",
"a 	c #9E0000",
"b 	c #CA4842",
"c 	c #D17F6E",
"d 	c #F6E5E2",
"e 	c #D48B77",
"f 	c #DB7C5F",
"g 	c #DC7860",
"h 	c #CC6D62",
"i 	c #F2DBDB",
"j 	c #D48888",
"k 	c #CD5454",
"l 	c #A70303",
"m 	c #A64E4E",
"n 	c #9D292A",
"o 	c #AF0302",
"p 	c #CF583A",
"q 	c #CC927F",
"r 	c #FFFFFF",
"s 	c #F9F3F1",
"t 	c #C47958",
"u 	c #BE643F",
"v 	c #EEDBD6",
"w 	c #DCB5B2",
"x 	c #BE3837",
"y 	c #B91010",
"z 	c #960505",
"A 	c #AEA3A6",
"B 	c #990101",
"C 	c #B90900",
"D 	c #D14407",
"E 	c #C65511",
"F 	c #C49279",
"G 	c #F7F1EE",
"H 	c #E6D3CC",
"I 	c #D7B8B0",
"J 	c #B13615",
"K 	c #C5200C",
"L 	c #BB0200",
"M 	c #A00000",
"N 	c #BD9394",
"O 	c #C3AEAF",
"P 	c #BD1000",
"Q 	c #D24500",
"R 	c #DA5F00",
"S 	c #C15C00",
"T 	c #B68D7F",
"U 	c #D3BEB9",
"V 	c #A54005",
"W 	c #D24A00",
"X 	c #CB2F00",
"Y 	c #BF0D00",
"Z 	c #A70000",
"` 	c #B87B7C",
" .	c #C3B1B3",
"..	c #A60000",
"+.	c #BE0D00",
"@.	c #D04100",
"#.	c #D65C00",
"$.	c #B15812",
"%.	c #F4EEED",
"&.	c #AD6232",
"*.	c #D15900",
"=.	c #D14200",
"-.	c #C21600",
";.	c #AC0000",
">.	c #BB7F80",
",.	c #AA0909",
"'.	c #B70400",
").	c #C73100",
"!.	c #B54912",
"~.	c #DABEAF",
"{.	c #E1C7AD",
"].	c #CDA477",
"^.	c #F6F0ED",
"/.	c #BB6832",
"(.	c #CC4A00",
"_.	c #BD1100",
":.	c #AD0000",
"<.	c #C2A2A3",
"[.	c #B04142",
"}.	c #B10000",
"|.	c #B31500",
"1.	c #CC8B78",
"2.	c #E6C6AD",
"3.	c #C96E05",
"4.	c #D47C00",
"5.	c #DAAA73",
"6.	c #E7CAB8",
"7.	c #B93700",
"8.	c #B30300",
"9.	c #B01616",
"0.	c #BC9FA1",
"a.	c #B50303",
"b.	c #AE0200",
"c.	c #AC1B01",
"d.	c #D08266",
"e.	c #BF4D05",
"f.	c #CE6100",
"g.	c #D46C00",
"h.	c #CE6900",
"i.	c #DA975C",
"j.	c #C25410",
"k.	c #B11000",
"l.	c #B40000",
"m.	c #BA7475",
"n.	c #B56465",
"o.	c #BA0000",
"p.	c #AB0200",
"q.	c #AA1300",
"r.	c #B32C00",
"s.	c #BB3E00",
"t.	c #C04A00",
"u.	c #C14B00",
"v.	c #B83600",
"w.	c #AC0B00",
"x.	c #B60000",
"y.	c #BA3A3B",
"z.	c #C00404",
"A.	c #B20000",
"B.	c #A70200",
"C.	c #A50900",
"D.	c #A50B00",
"E.	c #A70600",
"F.	c #AF0000",
"G.	c #BF0000",
"H.	c #BC4343",
"I.	c #B2AEB1",
"J.	c #B69B9D",
"K.	c #B84343",
"L.	c #BC1010",
"M.	c #BB0000",
"N.	c #BD0909",
"O.	c #BB3435",
"P.	c #B88889",
"Q.	c #BCBEBF",
"R.	c #B3ADAE",
"S.	c #B4A9AB",
"T.	c #BABCBE",
"            . + @ # $           ",
"        % & * = - ; > , '       ",
"    ) ! ~ { ] ^ ^ ^ / ( _ :     ",
"    < [ } | 1 2 3 4 5 6 7 8 9   ",
"  0 a b c d e f g h i j k l m   ",
"  n o p q r s t u v r w x y z   ",
"A B C D E F r G H r I J K L M N ",
"O M P Q R S T r r U V W X Y Z ` ",
" ...+.@.#.$.  r r %.&.*.=.-.;.>.",
"  ,.'.).!.~.r {.].r ^./.(._.:.<.",
"  [.}.|.1.r 2.3.4.5.r 6.7.8.9.  ",
"  0.a.b.c.d.e.f.g.h.i.j.k.l.m.  ",
"    n.o.p.q.r.s.t.u.v.w.x.y.    ",
"      n.z.A.B.C.D.E.F.G.H.I.    ",
"        J.K.L.M.o.N.O.P.        ",
"            Q.R.S.T.            "};
