/* XPM */
const char * fileNew_xpm[] = {
"16 16 124 2",
"  	c None",
". 	c #C1C1C1",
"+ 	c #C6C6C6",
"@ 	c #C7C7C7",
"# 	c #C8C8C8",
"$ 	c #C9C9C9",
"% 	c #CACACA",
"& 	c #CBCBCB",
"* 	c #CCCCCC",
"= 	c #CDCDCD",
"- 	c #C2C2C2",
"; 	c #C8C9C9",
"> 	c #F2F2F2",
", 	c #F1F1F1",
"' 	c #F0F0F0",
") 	c #EFEEEE",
"! 	c #EDEDED",
"~ 	c #EDECEC",
"{ 	c #ECECEC",
"] 	c #E3E3E3",
"^ 	c #F2F1F1",
"/ 	c #F0EFEF",
"( 	c #EFEFEF",
"_ 	c #EEEEEE",
": 	c #E1E1E1",
"< 	c #95D794",
"[ 	c #96DA96",
"} 	c #93DB92",
"| 	c #A6E1A5",
"1 	c #D8F5D8",
"2 	c #CBF3CB",
"3 	c #D9ECD9",
"4 	c #F1F0F0",
"5 	c #EBEAEA",
"6 	c #9FDA9E",
"7 	c #C6EEC5",
"8 	c #B9ECB8",
"9 	c #D9EBD9",
"0 	c #91CA8E",
"a 	c #B8DFB6",
"b 	c #AFDCAD",
"c 	c #B5E2B4",
"d 	c #B4E6B3",
"e 	c #79D877",
"f 	c #2DBC2A",
"g 	c #2CC12A",
"h 	c #43BE41",
"i 	c #94CB92",
"j 	c #C8E7C7",
"k 	c #BCE1BA",
"l 	c #95D193",
"m 	c #4CBB48",
"n 	c #12B10E",
"o 	c #0DBC0A",
"p 	c #0BC708",
"q 	c #27BF24",
"r 	c #E7E6E6",
"s 	c #E8E8E8",
"t 	c #EAEAEA",
"u 	c #EAE9E9",
"v 	c #E8E7E7",
"w 	c #62B05E",
"x 	c #3FAA3A",
"y 	c #229D1D",
"z 	c #13970D",
"A 	c #149A0E",
"B 	c #12A60D",
"C 	c #0FAF0B",
"D 	c #0DBA09",
"E 	c #2BB628",
"F 	c #E5E5E5",
"G 	c #E9E8E8",
"H 	c #D1DED0",
"I 	c #A3C9A1",
"J 	c #A4CAA1",
"K 	c #41A23D",
"L 	c #14980E",
"M 	c #14960E",
"N 	c #95C493",
"O 	c #ADD4AB",
"P 	c #C6E2C5",
"Q 	c #CECECE",
"R 	c #E6E6E6",
"S 	c #ECEBEB",
"T 	c #F3F2F2",
"U 	c #F5F4F4",
"V 	c #4DA649",
"W 	c #209D1B",
"X 	c #54B050",
"Y 	c #DAE9D9",
"Z 	c #CFCFCF",
"` 	c #F4F3F3",
" .	c #DFDFDF",
"..	c #E4E4E4",
"+.	c #4CA148",
"@.	c #49AC44",
"#.	c #87C584",
"$.	c #E2EDE1",
"%.	c #CFD0D0",
"&.	c #F3F3F3",
"*.	c #F7F6F6",
"=.	c #BBC3BB",
"-.	c #A2B5A1",
";.	c #DAE8D9",
">.	c #D0D0D0",
",.	c #F4F4F4",
"'.	c #F6F5F5",
").	c #F7F7F7",
"!.	c #F9F9F9",
"~.	c #E2E2E2",
"{.	c #CBCACA",
"].	c #BEBFBF",
"^.	c #D1D1D1",
"/.	c #F6F6F6",
"(.	c #F8F7F7",
"_.	c #FAFAFA",
":.	c #FCFCFC",
"<.	c #BBBBBB",
"[.	c #D6D6D6",
"}.	c #BCBCBC",
"|.	c #BDBDBD",
"1.	c #BCBDBD",
"2.	c #B8B8B8",
"3.	c #DDDDDD",
". + @ # # $ % % & * = -         ",
"; > , ' ) ! ! ~ ~ { { * ]       ",
"$ ^ , / ( ) _ _ ! ! ! & :       ",
"$ ' / / ( ( ( ( ( ) < [ }       ",
"% ) ( ( / / ( ( / / | 1 2 3     ",
"% _ ( / / ' ' ' 4 5 6 7 8 9     ",
"& _ ) / ' ' 4 0 a b c d e f g h ",
"* _ ( ( ' ' ! i j k l m n o p q ",
"= r s t u v u w x y z A B C D E ",
"= ] F r G 5 { H I J K L M N O P ",
"Q R v u S ! ( , T U V W X Y     ",
"Z G 5 ~ _ ' > `  ...+.@.#.$.    ",
"%.S ! ( , &.U *...' =.-.;.      ",
">._ ' > ,.'.).!.~.{.].          ",
"^.&.,./.(.!._.:.$ <.            ",
"[.}.}.}.|.}.1.}.2.3.            "};
