/* XPM */
const char *iconSplitVertical[]={
"16 13 3 1",
". c None",
"# c #808080",
"a c #ffffff",
"......###.......",
".#############..",
".#aaaaa#aaaaa#..",
".#aaaaa#aaaaa#..",
".#aaaaa#aaaaa#..",
".#aaaaa#aaaaa#..",
".#aaaaa#aaaaa#..",
".#aaaaa#aaaaa#..",
".#aaaaa#aaaaa#..",
".#aaaaa#aaaaa#..",
".#aaaaa#aaaaa#..",
".#############..",
"......###......."};
