/* XPM */
const char *iconSplitHorizontal[]={
"16 13 3 1",
". c None",
"# c #808080",
"a c #ffffff",
"................",
".##############.",
".#aaaaaaaaaaaa#.",
".#aaaaaaaaaaaa#.",
".#aaaaaaaaaaaa#.",
"##aaaaaaaaaaaa##",
"################",
"##aaaaaaaaaaaa##",
".#aaaaaaaaaaaa#.",
".#aaaaaaaaaaaa#.",
".#aaaaaaaaaaaa#.",
".##############.",
"................"};
