/* XPM */
const char *LetterS_2[]={
"8 12 4 1",
"a c None",
"b c #303030",
"# c #a0a0a0",
". c #dcdcdc",
".######a",
"#aaaaaab",
"#aabbaab",
"#abaabab",
"#abaaaab",
"#aabaaab",
"#aaab.ab",
"#aaaabab",
"#abaabab",
"#aabbaab",
"#aaaaaab",
"abbbbbba"};
