/* XPM */
const char *newGroupIcon[]={
"16 13 9 1",
". c None",
"f c #000000",
"d c #004000",
"a c #808080",
"b c #a0a0a0",
"g c #dcdcdc",
"c c #ffff00",
"# c #ffffc0",
"e c #ffffff",
"............#...",
"..aa.aa.ab.c#c..",
".daadaadb###e###",
"aa........bc#c..",
"aa..ffff..ba#...",
".d.gf...g.d.#...",
"aa.gfg..g.aa....",
"aa.gfgffg.aa....",
".dggf..fg.d.....",
"aa..ffff..aa....",
"aa.....g..aa....",
".daadaadaad.....",
"..aa.aa.aa......"};
