/* XPM */
const char *newProcessIcon[]={
"16 13 9 1",
". c None",
"g c #000000",
"d c #004000",
"a c #808080",
"b c #a0a0a0",
"f c #dcdcdc",
"c c #ffff00",
"# c #ffffc0",
"e c #ffffff",
"............#...",
"..aa.aa.ab.c#c..",
".daadaadb###e###",
"aa..fff...bc#c..",
"aa..gggfffba#...",
".d..gffgf.d.#...",
"aa..gffgffaa....",
"aa..ggg...aa....",
".d..gff...d.....",
"aa..gff...aa....",
"aa..ff....aa....",
".daadaadaad.....",
"..aa.aa.aa......"};
