/* XPM */
const char * paste_xpm[] = {
"16 16 208 2",
"  	c None",
". 	c #FEFCF8",
"+ 	c #FAE6C1",
"@ 	c #FAE6C2",
"# 	c #FBE6C1",
"$ 	c #F5E5C6",
"% 	c #ACBEDB",
"& 	c #98ADD2",
"* 	c #697796",
"= 	c #C2BFB8",
"- 	c #F9E7C4",
"; 	c #FDEAC5",
"> 	c #F3CB81",
", 	c #F1CF85",
"' 	c #F1CB75",
") 	c #F7CF76",
"! 	c #A9A38E",
"~ 	c #C8D7EC",
"{ 	c #F2F7FD",
"] 	c #D6E3F6",
"^ 	c #818183",
"/ 	c #D89C2A",
"( 	c #E2A72E",
"_ 	c #AC8D5A",
": 	c #B3AAA6",
"< 	c #EFBE61",
"[ 	c #F3F0DF",
"} 	c #FEF2BF",
"| 	c #9EAAB0",
"1 	c #5278BD",
"2 	c #748FC2",
"3 	c #6C8BC1",
"4 	c #7594C8",
"5 	c #5681CB",
"6 	c #535662",
"7 	c #FA8902",
"8 	c #F26805",
"9 	c #765A4A",
"0 	c #F0BF64",
"a 	c #F3F0D8",
"b 	c #F9E9B7",
"c 	c #BBB39D",
"d 	c #808482",
"e 	c #868479",
"f 	c #877B68",
"g 	c #857152",
"h 	c #846942",
"i 	c #A56325",
"j 	c #FC6800",
"k 	c #E95600",
"l 	c #705549",
"m 	c #E1E1E1",
"n 	c #F0BF65",
"o 	c #F3EACF",
"p 	c #F2E2B2",
"q 	c #FBE7AD",
"r 	c #FFE99F",
"s 	c #FFE086",
"t 	c #FFCE61",
"u 	c #E8AD3B",
"v 	c #DA9224",
"w 	c #D3761A",
"x 	c #CB6C21",
"y 	c #C16621",
"z 	c #6C5B55",
"A 	c #E4E4E4",
"B 	c #F0BF66",
"C 	c #F3E9CB",
"D 	c #F3E0AB",
"E 	c #F3DDA0",
"F 	c #F3D588",
"G 	c #F4CC6F",
"H 	c #F2B336",
"I 	c #B69B68",
"J 	c #A1CEFF",
"K 	c #BBD8FF",
"L 	c #B0D2FF",
"M 	c #A8CDFF",
"N 	c #A2CCFF",
"O 	c #7995B3",
"P 	c #F0C068",
"Q 	c #F3E6BB",
"R 	c #F3D78E",
"S 	c #F3D489",
"T 	c #F3D078",
"U 	c #F4BB4B",
"V 	c #F29D0E",
"W 	c #B3925C",
"X 	c #D1EAFF",
"Y 	c #C8E0FA",
"Z 	c #ACCEFA",
"` 	c #AECEFB",
" .	c #A6C9FE",
"..	c #53A6FF",
"+.	c #7C99B8",
"@.	c #F3E4B5",
"#.	c #F3DA92",
"$.	c #F3D68D",
"%.	c #F3C055",
"&.	c #F4AD2A",
"*.	c #F29E0E",
"=.	c #B49865",
"-.	c #CCE6FF",
";.	c #CEE3FB",
">.	c #B9D6FB",
",.	c #C0D8FC",
"'.	c #8FC0F9",
").	c #3A8EF6",
"!.	c #198EFF",
"~.	c #ACB7C2",
"{.	c #F3E4BA",
"].	c #F3D790",
"^.	c #F3CB71",
"/.	c #F3B73E",
"(.	c #F4B436",
"_.	c #F2A81A",
":.	c #B49A6A",
"<.	c #CDE2FB",
"[.	c #BBD7FB",
"}.	c #BBD6FC",
"|.	c #C7DBFE",
"1.	c #A2C4FF",
"2.	c #59A9FF",
"3.	c #A0ABBA",
"4.	c #F3E4BC",
"5.	c #F3CC73",
"6.	c #F3C159",
"7.	c #F3B841",
"8.	c #F4B438",
"9.	c #F2A91F",
"0.	c #B49C6C",
"a.	c #CBE5FF",
"b.	c #C2DBFB",
"c.	c #ACCEFB",
"d.	c #9AC1FB",
"e.	c #87B3FA",
"f.	c #8CB5FC",
"g.	c #66B1FF",
"h.	c #9FAAB9",
"i.	c #F0C069",
"j.	c #F3E3B7",
"k.	c #F3BF5B",
"l.	c #F3BC4E",
"m.	c #F3BA44",
"n.	c #F4B53B",
"o.	c #F2AA21",
"p.	c #B49C6E",
"q.	c #CBE6FF",
"r.	c #A4C6FB",
"s.	c #97C0FB",
"t.	c #92BCFB",
"u.	c #9BC0FC",
"v.	c #6EB5FF",
"w.	c #F3DFA9",
"x.	c #F3BB48",
"y.	c #F3B943",
"z.	c #F3B63B",
"A.	c #F4B132",
"B.	c #B49B6A",
"C.	c #C3DBFB",
"D.	c #A6C7FB",
"E.	c #A4C7FB",
"F.	c #9FC3FB",
"G.	c #A5C6FD",
"H.	c #73B9FF",
"I.	c #FBC969",
"J.	c #FCE8B4",
"K.	c #FCD376",
"L.	c #FCCF6A",
"M.	c #FCCB62",
"N.	c #FDC95A",
"O.	c #FBBD41",
"P.	c #BAA87F",
"Q.	c #CEE6FF",
"R.	c #B6D3FB",
"S.	c #A1C4FB",
"T.	c #9BC1FB",
"U.	c #A4C4FD",
"V.	c #75BBFF",
"W.	c #ACA093",
"X.	c #935A35",
"Y.	c #8C552E",
"Z.	c #8C5429",
"`.	c #8C5328",
" +	c #8C5327",
".+	c #8A4B23",
"++	c #736569",
"@+	c #BDE9FF",
"#+	c #CDE9FF",
"$+	c #C0E0FF",
"%+	c #BBDEFF",
"&+	c #B5DBFF",
"*+	c #B6DAFF",
"=+	c #67BBFF",
"-+	c #9BA7B8",
";+	c #D0D0D0",
">+	c #B7B7B7",
",+	c #BCBCBC",
"'+	c #7D8895",
")+	c #3A76B3",
"!+	c #3870AB",
"~+	c #3B76B4",
"{+	c #B5BBC1",
"]+	c #DCDCDC",
"^+	c #D8D8D8",
"/+	c #D9D9D9",
"(+	c #DDDDDD",
"_+	c #F1F1F1",
". + @ # $ % & * = - ;           ",
"> , ' ) ! ~ { ] ^ / ( _ :       ",
"< [ } | 1 2 3 4 5 6 7 8 9       ",
"0 a b c d e f g h i j k l m     ",
"n o p q r s t u v w x y z A     ",
"B C D E F G H I J K L M N O     ",
"P Q R S T U V W X Y Z `  ...+.  ",
"P @.#.$.%.&.*.=.-.;.>.,.'.).!.~.",
"P {.].^./.(._.:.-.<.[.}.|.1.2.3.",
"P 4.5.6.7.8.9.0.a.b.c.d.e.f.g.h.",
"i.j.k.l.m.n.o.p.q.b.r.s.t.u.v.h.",
"i.w.x.y.z.A._.B.-.C.D.E.F.G.H.h.",
"I.J.K.L.M.N.O.P.Q.R.E.S.T.U.V.h.",
"W.X.Y.Z.`. +.+++@+#+$+%+&+*+=+-+",
"  ;+>+>+>+>+,+'+)+!+!+!+!+!+~+{+",
"                ]+^+/+/+/+^+(+_+"};
