/* XPM */
const char *pause_icon[] ={
"13 13 5 1",
" 	c None",
". c #dcdcdc",
"+	c #3636A3",
"@	c #313193",
"#	c #2C2C85",
".............",
".++++...++++.",
".+@@#...+@@#.",
".+@@#...+@@#.",
".+@@#...+@@#.",
".+@@#...+@@#.",
".+@@#...+@@#.",
".+@@#...+@@#.",
".+@@#...+@@#.",
".+@@#...+@@#.",
".+@@#...+@@#.",
".####...####.",
"............."};
