/* XPM */
const char *pick[]={
"14 14 3 1",
". c None",
"a c #303030",
"# c #ffffff",
".#.#.#.#.#.#.#",
"#.............",
".............#",
"#.aaaaa.......",
"..a...a..a...#",
"#.a.......a...",
"..a.aaaaaaaa.#",
"#.a.......a...",
"..a...a..a...#",
"#.aaaaa.......",
".............#",
"#.............",
".............#",
"#.#.#.#.#.#.#."};
