/* XPM */
const char * print_xpm[] = {
"16 16 85 1",
" 	c None",
".	c #BEBFC1",
"+	c #939496",
"@	c #B5B5B6",
"#	c #B5B6B6",
"$	c #949597",
"%	c #87898A",
"&	c #FDFDFD",
"*	c #FFFFFF",
"=	c #F5F5F6",
"-	c #8F8F90",
";	c #E5E5E8",
">	c #F3F3F4",
",	c #FBFBFB",
"'	c #888888",
")	c #939393",
"!	c #919191",
"~	c #D3D3D7",
"{	c #E1E1E4",
"]	c #EBEBED",
"^	c #F1F1F2",
"/	c #A4A4A4",
"(	c #A5A6A7",
"_	c #878787",
":	c #BDBDC2",
"<	c #CBCBCF",
"[	c #D6D6D9",
"}	c #DCDCDF",
"|	c #DEDEE1",
"1	c #B7B7B7",
"2	c #AAABAC",
"3	c #B7B8B8",
"4	c #EFEFEF",
"5	c #747474",
"6	c #5B5B5B",
"7	c #595959",
"8	c #575757",
"9	c #777777",
"0	c #BABABA",
"a	c #F8F8F8",
"b	c #4E4E4E",
"c	c #606060",
"d	c #626262",
"e	c #ABABAB",
"f	c #CACACA",
"g	c #ACACAC",
"h	c #AFAFAF",
"i	c #9C9C9C",
"j	c #959595",
"k	c #B2B2B2",
"l	c #E5E5E5",
"m	c #E2E2E2",
"n	c #C5C5C5",
"o	c #C1C1C1",
"p	c #C0C0C0",
"q	c #BFBFBF",
"r	c #BEBEBE",
"s	c #A9A9A9",
"t	c #CCCCCC",
"u	c #999999",
"v	c #090909",
"w	c #070707",
"x	c #B2B2B1",
"y	c #929292",
"z	c #646464",
"A	c #5A5A5A",
"B	c #66666A",
"C	c #ADADB3",
"D	c #B6B6BC",
"E	c #BCBCC1",
"F	c #BEBEC3",
"G	c #6E6E71",
"H	c #797979",
"I	c #9E9EA1",
"J	c #D8D8DB",
"K	c #E2E2E4",
"L	c #E7E7E9",
"M	c #E9E9EB",
"N	c #A9A9AB",
"O	c #7A7A7A",
"P	c #DEDEE0",
"Q	c #FCFCFD",
"R	c #EBEBEC",
"S	c #BABCBE",
"T	c #909192",
"    ........    ",
"   +@######@$   ",
"   %&*******%   ",
"   %=*******%   ",
"   -;>,***,>-   ",
" ')!~{]^>^]{!/) ",
"(!/_:<[}|}[<'1/2",
"3445667887669443",
"0aa5bbcddcbb9aa0",
"effghhijjihhgffe",
"klmnopqrrqponmok",
"stuvwwwwwwwwvuxs",
"y'zABCDEFEDGAz'y",
"   HIJKLMLKNH   ",
"   OP=Q***QRO   ",
"   STTTTTTTTS   "};
