/* XPM */
const char * properties_xpm[] = {
"16 16 137 2",
"  	c None",
". 	c #D5D5D5",
"+ 	c #E1E1E1",
"@ 	c #E0E0E0",
"# 	c #DFDFDF",
"$ 	c #E0DFDF",
"% 	c #E1E0E0",
"& 	c #DADADA",
"* 	c #DEDEDE",
"= 	c #F2F2F2",
"- 	c #F1F1F1",
"; 	c #F0F0F0",
"> 	c #EFEEEE",
", 	c #EEEDED",
"' 	c #EDEDED",
") 	c #E7E6E7",
"! 	c #DFDFE3",
"~ 	c #E1E1E4",
"{ 	c #EBEAEA",
"] 	c #ECECEC",
"^ 	c #E2E2E2",
"/ 	c #F1F0F0",
"( 	c #EFEFEF",
"_ 	c #EEEEEE",
": 	c #ECEBEC",
"< 	c #DFDFE5",
"[ 	c #F5F5F7",
"} 	c #DFDEE3",
"| 	c #E8E8E9",
"1 	c #DFDEDE",
"2 	c #D5D5DC",
"3 	c #EBEBEF",
"4 	c #E6E6EB",
"5 	c #DCDCE1",
"6 	c #DDDDDD",
"7 	c #E4E4E7",
"8 	c #E0E0E6",
"9 	c #F0EFEF",
"0 	c #E8E8EA",
"a 	c #DADAE1",
"b 	c #D8D8E0",
"c 	c #DDDCE3",
"d 	c #DAD9DB",
"e 	c #DEDFDF",
"f 	c #D7D7DD",
"g 	c #F7F7F9",
"h 	c #D7D7DF",
"i 	c #D9D9DF",
"j 	c #CECED8",
"k 	c #D4D4DD",
"l 	c #CDCDD4",
"m 	c #E9E9EA",
"n 	c #E7E7EB",
"o 	c #E1E1E7",
"p 	c #CCCCD7",
"q 	c #C5C5D1",
"r 	c #C4C4CF",
"s 	c #DDDDDE",
"t 	c #CECED6",
"u 	c #E0E0E7",
"v 	c #D2D2DB",
"w 	c #CBCBD5",
"x 	c #C3C3CF",
"y 	c #B0B0BF",
"z 	c #B3B3C2",
"A 	c #E4E4E4",
"B 	c #DEDDDD",
"C 	c #E2E1E1",
"D 	c #E6E6E6",
"E 	c #E7E6E6",
"F 	c #E7E7E7",
"G 	c #C6C5CF",
"H 	c #C4C4D0",
"I 	c #C3C3D0",
"J 	c #AAAABC",
"K 	c #87879F",
"L 	c #9595AB",
"M 	c #BDB2AC",
"N 	c #EAE6E3",
"O 	c #E4E3E3",
"P 	c #E5E5E5",
"Q 	c #E8E8E8",
"R 	c #EAEAEA",
"S 	c #ECEBEB",
"T 	c #DDDDE1",
"U 	c #B1B1C0",
"V 	c #ADABBA",
"W 	c #BF9D5E",
"X 	c #D7AB0D",
"Y 	c #D5AF5E",
"Z 	c #E8E7E7",
"` 	c #EAE9E9",
" .	c #EBEBEB",
"..	c #EDECEC",
"+.	c #C1B09E",
"@.	c #CD9B27",
"#.	c #DC9100",
"$.	c #F1A500",
"%.	c #DFAF08",
"&.	c #F1DDC2",
"*.	c #E9E9E9",
"=.	c #F3F3F3",
"-.	c #D6C3AB",
";.	c #E3A607",
">.	c #FEBC00",
",.	c #FFBC00",
"'.	c #F9BD00",
").	c #DDAD3B",
"!.	c #E3E3E3",
"~.	c #F4F4F4",
"{.	c #F6F5F5",
"].	c #E3E2E2",
"^.	c #CA9F5F",
"/.	c #FDCE00",
"(.	c #FFCA00",
"_.	c #FFD500",
":.	c #F7C900",
"<.	c #E0B97D",
"[.	c #F5F5F5",
"}.	c #F7F7F7",
"|.	c #F8F8F8",
"1.	c #C8C5C3",
"2.	c #D8A22F",
"3.	c #FFCB00",
"4.	c #FF9200",
"5.	c #FFB400",
"6.	c #E4B332",
"7.	c #C1C1C1",
"8.	c #E7CFB5",
"9.	c #F6B707",
"0.	c #FF9E00",
"a.	c #FFC000",
"b.	c #DEA531",
"c.	c #E2C2A0",
"d.	c #E09D25",
"e.	c #DFA036",
"f.	c #EBD6C1",
". + + + + @ # $ @ % @ + &       ",
"* = - ; > , ' ) ! ~ { ] @ ^     ",
"# - / ( > > _ : < [ } | 1 ^     ",
"* ( ( ( ( 2 > > ~ 3 4 5 # ^     ",
"6 > > ( 7 8 ~ 9 0 a b c d ^     ",
"e _ > ( f g h i 8 a j k l ^     ",
"$ , > ( m n n o k p q r s ^     ",
"@ , > ( 9 t u v w x y z A ^     ",
"B C A D E F G H I J K L M N     ",
"* O P E Q R S ' T U V W X Y     ",
"@ D Z `  ..._ ; / +.@.#.$.%.&.  ",
"^ *.{ ] _ 9 - =.Q -.;.>.,.'.).  ",
"!.S ' ( / = ~.{. .].^./.(._.:.<.",
"!.> ; = =.[.}.|._ & 1.2.3.4.5.6.",
"+ ] _ _ ( ; ; - Q 7.F 8.9.0.a.b.",
" .6 6 6 6 6 6 6 6 P     c.d.e.f."};
