/* XPM */
const char * quit_xpm[] = {
"16 16 173 2",
"  	c None",
". 	c #D0A4A4",
"+ 	c #B23131",
"@ 	c #BA2A2A",
"# 	c #D33838",
"$ 	c #C75C5C",
"% 	c #C76060",
"& 	c #CA6161",
"* 	c #CE6464",
"= 	c #D16767",
"- 	c #D56969",
"; 	c #D96C6C",
"> 	c #DC6E6E",
", 	c #DE7070",
"' 	c #E06E6E",
") 	c #EA4848",
"! 	c #B82929",
"~ 	c #C65C5C",
"{ 	c #DFA5A5",
"] 	c #E8C0C0",
"^ 	c #E9D6D6",
"/ 	c #F3EBEB",
"( 	c #F1EAEA",
"_ 	c #E6D4D4",
": 	c #E0BBBB",
"< 	c #ECAEAE",
"[ 	c #EEAFAF",
"} 	c #F0B0B0",
"| 	c #E67272",
"1 	c #B72828",
"2 	c #C45555",
"3 	c #D78E8E",
"4 	c #D99494",
"5 	c #EBD4D4",
"6 	c #FFFFFF",
"7 	c #F9F7F7",
"8 	c #E3D8D8",
"9 	c #E5D9D9",
"0 	c #E2CECE",
"a 	c #E39C9C",
"b 	c #EE9E9E",
"c 	c #E96F6F",
"d 	c #B62727",
"e 	c #B93636",
"f 	c #CF7575",
"g 	c #EACDCD",
"h 	c #FEFEFE",
"i 	c #CCB1B1",
"j 	c #BF7272",
"k 	c #D97E7E",
"l 	c #E18383",
"m 	c #DB8383",
"n 	c #DFBDBD",
"o 	c #DDC7C7",
"p 	c #E98989",
"q 	c #EB6868",
"r 	c #B32525",
"s 	c #B01C1C",
"t 	c #CE7171",
"u 	c #C9AAAA",
"v 	c #CD6666",
"w 	c #D96E6E",
"x 	c #E5ABAB",
"y 	c #D8A4A4",
"z 	c #DF7272",
"A 	c #E57676",
"B 	c #E7BBBB",
"C 	c #CF9393",
"D 	c #EC6060",
"E 	c #B12323",
"F 	c #B41F1F",
"G 	c #DEACAC",
"H 	c #F8F4F4",
"I 	c #AE4545",
"J 	c #D45858",
"K 	c #D75B5B",
"L 	c #FBF7F7",
"M 	c #F9F6F6",
"N 	c #C75656",
"O 	c #E46464",
"P 	c #E86A6A",
"Q 	c #FBF6F6",
"R 	c #D8B8B8",
"S 	c #EB4A4A",
"T 	c #AE2222",
"U 	c #BA2222",
"V 	c #EFDADA",
"W 	c #DEC7C7",
"X 	c #BD2A2A",
"Y 	c #CF3838",
"Z 	c #D54545",
"` 	c #FCF9F9",
" .	c #FBF9F9",
"..	c #C34646",
"+.	c #E55353",
"@.	c #E75050",
"#.	c #F0D0D0",
"$.	c #EDDCDC",
"%.	c #E04343",
"&.	c #AC2020",
"*.	c #BF2626",
"=.	c #EFDBDB",
"-.	c #DFC8C8",
";.	c #C82E2E",
">.	c #D13333",
",.	c #D63636",
"'.	c #C43636",
").	c #E64242",
"!.	c #E94444",
"~.	c #F2D0D0",
"{.	c #EDDDDD",
"].	c #DC4343",
"^.	c #A81D1D",
"/.	c #C42A2A",
"(.	c #E1B0B0",
"_.	c #BF3434",
":.	c #DA3939",
"<.	c #C83939",
"[.	c #EC4B4B",
"}.	c #FBF5F5",
"|.	c #D8B2B2",
"1.	c #F04B4B",
"2.	c #A51B1B",
"3.	c #C92D2D",
"4.	c #D67070",
"5.	c #D19D9D",
"6.	c #DE3C3C",
"7.	c #E8BBBB",
"8.	c #D9B7B7",
"9.	c #D53E3E",
"0.	c #ED4646",
"a.	c #F4ACAC",
"b.	c #C57575",
"c.	c #F94F4F",
"d.	c #A21818",
"e.	c #CD3030",
"f.	c #D23333",
"g.	c #E4B7B7",
"h.	c #DAA1A1",
"i.	c #E04444",
"j.	c #E14141",
"k.	c #ED4B4B",
"l.	c #F3ABAB",
"m.	c #DCB8B8",
"n.	c #E64949",
"o.	c #FA5050",
"p.	c #9F1616",
"q.	c #DB4343",
"r.	c #E1B7B7",
"s.	c #FAF5F5",
"t.	c #ECCECE",
"u.	c #EFCFCF",
"v.	c #D54E4E",
"w.	c #FC5151",
"x.	c #9B1313",
"y.	c #D53535",
"z.	c #E23F3F",
"A.	c #DA7878",
"B.	c #DDB3B3",
"C.	c #DBB3B3",
"D.	c #CB7777",
"E.	c #E94A4A",
"F.	c #971D1D",
"G.	c #CA2F2F",
"H.	c #DD3B3B",
"I.	c #EA4444",
"J.	c #EE4848",
"K.	c #E94848",
"L.	c #F64D4D",
"M.	c #DF3E3E",
"N.	c #CEA3A3",
"O.	c #951B1B",
"P.	c #930E0E",
". + @ @ @ @ @ @ @ @ @ @ @ @ + . ",
"+ # $ % % % & * = - ; > , ' ) + ",
"! ~ { { { ] ^ / ( _ : < [ } | ! ",
"1 2 3 4 5 6 7 8 9 7 6 0 a b c 1 ",
"d e f g h i j k l m n h o p q d ",
"r s t 6 u v w x y z A B 6 C D r ",
"E F G H I J K L M N O P Q R S E ",
"T U V W X Y Z `  ...+.@.#.$.%.T ",
"&.*.=.-.;.>.,.`  .'.).!.~.{.].&.",
"^./.(.H _.,.:.`  .<.!.[.}.|.1.^.",
"2.3.4.6 5.:.6.7.8.9.0.a.6 b.c.2.",
"d.e.f.g.h h.i.).j.k.l.h m.n.o.d.",
"p.f.,.q.r.6 s.t.u.}.6 m.v.o.w.p.",
"x.y.:.6.z.A.B.{.{.C.D.E.o.w.w.x.",
"F.G.H.z.).I.0.J.K.L.c.o.w.w.M.F.",
"N.O.P.P.P.P.P.P.P.P.P.P.P.P.O.N."};
