/* XPM */
const char * shadow_xpm[] = {
"47 47 2 1",
" 	c None",
".	c #000000",
"                                           ..  ",
"                                           ... ",
"                                           ... ",
"                                           ....",
"                                           ....",
"                                           ....",
"                                           ....",
"                                           ....",
"                                           ....",
"                                           ....",
"                                           ....",
"                                           ....",
"                                           ....",
"                                           ....",
"                                           ....",
"                                           ....",
"                                           ....",
"                                           ....",
"                                           ....",
"                                           ....",
"                                           ....",
"                                           ....",
"                                           ....",
"                                           ....",
"                                           ....",
"                                           ....",
"                                           ....",
"                                           ....",
"                                           ....",
"                                           ....",
"                                           ....",
"                                           ....",
"                                           ....",
"                                           ....",
"                                           ....",
"                                           ....",
"                                           ....",
"                                           ....",
"                                           ....",
"                                           ....",
"                                           ....",
"                                           ....",
"                                           ....",
".............................................. ",
".............................................. ",
" ............................................  ",
"   ........................................    "};
