/* XPM */
const char *SimControl_2[]={
"32 32 11 1",
"# c None",
"g c #000000",
"c c #303030",
"a c #585858",
"h c #800000",
"f c #808080",
". c #a0a0a0",
"i c #c00000",
"b c #f9f9f9",
"e c #ff0000",
"d c #ffffff",
".......................#########",
"......................a#########",
"..bbbbbbbbbbbbbbbbbbbaa#########",
"..bbcccccccccccccccbbaa#########",
"..bcdddddddddddddddcbaa#########",
"..bcedddeddddddddddcbaa#########",
"..bceddeeddddddddddcbaa#########",
"..bcedededdddddddddcbaa#########",
"..bcdedddeeeeeeeeeecbaa#########",
"..bcdddddddddddddddcbaa#########",
"..bbcccccccccccccccbbaa#########",
"..bbbbbbbbbbbbbbbbbbbaac########",
"..bb#..bbbbffbbbbddbbaaccccc####",
"..bb.aagbbfaagbbddddbaac###c####",
"..bb.aagbbfaagbbddddbaa####c####",
"..bbbggbbbbccbbbbdd#baa####c####",
"..bbbbbbbbbbbbbbbbbbbaa####c####",
"..bbbbbbbbbbbbbbbbbbbaa####c####",
"..aaaaaaaaaaaaaaaaaaaaa####c####",
".aaaaaaaaaaaaaaaaaaaaaa####c####",
"############ccc############c####",
"#############c########hhhhhhhhhh",
"#############c########hddddidddh",
"########hhhhhhhhhhh###hddiiiiddh",
"########hddddiddddh###hiiiddidih",
"########hdddiiidddh###hididdiiih",
"########hididddiiih###hddiiiiddh",
"########hiiidddidih###hdddiddddh",
"########hddidddiddh###hhhhhhhhhh",
"########hdddiiidddh#############",
"########hddddiddddh#############",
"########hhhhhhhhhhh#############"};
