/* XPM */
const char * zoomIn_xpm[] = {
"16 16 105 2",
"  	c None",
". 	c #D4D6DD",
"+ 	c #C1CAD4",
"@ 	c #BCC4CF",
"# 	c #BEC2CE",
"$ 	c #C2D1DB",
"% 	c #C2DEE7",
"& 	c #C2DEE8",
"* 	c #C2DCE6",
"= 	c #B4CEDB",
"- 	c #9AA8BB",
"; 	c #CBCAD4",
"> 	c #C2CEDA",
", 	c #D4E8F0",
"' 	c #C1DFE9",
") 	c #C9E3EA",
"! 	c #D2E7EC",
"~ 	c #D4E8ED",
"{ 	c #C7DFE6",
"] 	c #8E9DB1",
"^ 	c #DBDAE0",
"/ 	c #CDCFD8",
"( 	c #D8E8ED",
"_ 	c #F2F8FA",
": 	c #D3E8EE",
"< 	c #C8E2E9",
"[ 	c #466789",
"} 	c #D9ECEF",
"| 	c #DBECEF",
"1 	c #F6F9FA",
"2 	c #7D8DA5",
"3 	c #ACB3C2",
"4 	c #B8BECB",
"5 	c #BCDAE5",
"6 	c #CCE4EB",
"7 	c #BDDDE6",
"8 	c #DEEDF0",
"9 	c #DFEDF0",
"0 	c #DEECEF",
"a 	c #AAB3C3",
"b 	c #BAD8E3",
"c 	c #C9E1E8",
"d 	c #E3EFF1",
"e 	c #949AAE",
"f 	c #B1B6C4",
"g 	c #ADC9D6",
"h 	c #CDE2E8",
"i 	c #D4E7EC",
"j 	c #DCECEF",
"k 	c #E6F1F3",
"l 	c #EAF3F5",
"m 	c #E6ECF1",
"n 	c #9C9FB2",
"o 	c #CDCCD4",
"p 	c #89A0B5",
"q 	c #C9E0E6",
"r 	c #D8E9EC",
"s 	c #EBF3F5",
"t 	c #E8EBEF",
"u 	c #A7A7B7",
"v 	c #A4A8B9",
"w 	c #8BA3B8",
"x 	c #CDDFE5",
"y 	c #E4EFF2",
"z 	c #EAF2F4",
"A 	c #E8ECF0",
"B 	c #AAADBD",
"C 	c #C9C8D1",
"D 	c #A7AABA",
"E 	c #92A1B5",
"F 	c #A6B4C3",
"G 	c #9CA4B6",
"H 	c #9CA0B2",
"I 	c #C8C7D1",
"J 	c #B0B0BF",
"K 	c #AC9085",
"L 	c #C4B297",
"M 	c #D0CFD6",
"N 	c #C3C1CC",
"O 	c #EAE8C2",
"P 	c #FDE4A4",
"Q 	c #F6A559",
"R 	c #C8B697",
"S 	c #E1D7AD",
"T 	c #FEFDE2",
"U 	c #FFE29C",
"V 	c #F69840",
"W 	c #C8B595",
"X 	c #E9DEB3",
"Y 	c #FFFDE8",
"Z 	c #FFDC87",
"` 	c #F57D0C",
" .	c #C8B593",
"..	c #E6DDB1",
"+.	c #FFF78F",
"@.	c #FFB500",
"#.	c #F57D0A",
"$.	c #C6B494",
"%.	c #DFD19A",
"&.	c #FEEE0A",
"*.	c #F3B214",
"=.	c #977D77",
"-.	c #D9CE9D",
";.	c #D1CEA6",
">.	c #CAC8D1",
"      . + @ #                   ",
"    $ % & * = - ;               ",
"  > , ' ) ! ~ { ] ^             ",
"/ ( _ : < [ } | 1 2 3           ",
"4 5 6 7 ! [ 8 9 0 0 ^           ",
"a b c [ [ [ [ [ d e ^ 2         ",
"f g h i j [ k l m n             ",
"o p q r 0 [ s 1 t u             ",
"  v w x 0 y z A B C             ",
"    D 2 E F G H I J K L         ",
"        M N       O P Q R       ",
"                  S T U V W     ",
"                    X Y Z `  .  ",
"                      ..+.@.#.$.",
"                        %.&.*.=.",
"                          -.;.>."};
