/* XPM */
const char * zoomOut_xpm[] = {
"16 16 108 2",
"  	c None",
". 	c #D4D6DD",
"+ 	c #C1CAD4",
"@ 	c #BCC4CF",
"# 	c #BEC2CE",
"$ 	c #C2D1DB",
"% 	c #C2DEE7",
"& 	c #C2DEE8",
"* 	c #C2DCE6",
"= 	c #B4CEDB",
"- 	c #9AA8BB",
"; 	c #CBCAD4",
"> 	c #C2CEDA",
", 	c #D4E8F0",
"' 	c #C1DFE9",
") 	c #C9E3EA",
"! 	c #D2E7EC",
"~ 	c #D4E8ED",
"{ 	c #C7DFE6",
"] 	c #8E9DB1",
"^ 	c #DBDAE0",
"/ 	c #CDCFD8",
"( 	c #D8E8ED",
"_ 	c #F2F8FA",
": 	c #D3E8EE",
"< 	c #C8E2E9",
"[ 	c #D2E6EC",
"} 	c #D9ECEF",
"| 	c #DBECEF",
"1 	c #F6F9FA",
"2 	c #7D8DA5",
"3 	c #B8BECB",
"4 	c #BCDAE5",
"5 	c #CCE4EB",
"6 	c #BDDDE6",
"7 	c #D8EAEE",
"8 	c #DEEDF0",
"9 	c #DFEDF0",
"0 	c #DEECEF",
"a 	c #AAB3C3",
"b 	c #BAD8E3",
"c 	c #C9E1E8",
"d 	c #466789",
"e 	c #E3EFF1",
"f 	c #949AAE",
"g 	c #B1B6C4",
"h 	c #ADC9D6",
"i 	c #CDE2E8",
"j 	c #D4E7EC",
"k 	c #DCECEF",
"l 	c #E2EFF1",
"m 	c #E6F1F3",
"n 	c #EAF3F5",
"o 	c #E6ECF1",
"p 	c #9C9FB2",
"q 	c #CDCCD4",
"r 	c #89A0B5",
"s 	c #C9E0E6",
"t 	c #D8E9EC",
"u 	c #E4F0F2",
"v 	c #EBF3F5",
"w 	c #E8EBEF",
"x 	c #A7A7B7",
"y 	c #A4A8B9",
"z 	c #8BA3B8",
"A 	c #CDDFE5",
"B 	c #E4EFF2",
"C 	c #EAF2F4",
"D 	c #E8ECF0",
"E 	c #AAADBD",
"F 	c #C9C8D1",
"G 	c #A7AABA",
"H 	c #92A1B5",
"I 	c #A6B4C3",
"J 	c #9CA4B6",
"K 	c #9CA0B2",
"L 	c #C8C7D1",
"M 	c #B0B0BF",
"N 	c #AC9085",
"O 	c #C4B297",
"P 	c #D0CFD6",
"Q 	c #C3C1CC",
"R 	c #EAE8C2",
"S 	c #FDE4A4",
"T 	c #F6A559",
"U 	c #C8B697",
"V 	c #E1D7AD",
"W 	c #FEFDE2",
"X 	c #FFE29C",
"Y 	c #F69840",
"Z 	c #C8B595",
"` 	c #E9DEB3",
" .	c #FFFDE8",
"..	c #FFDC87",
"+.	c #F57D0C",
"@.	c #C8B593",
"#.	c #E6DDB1",
"$.	c #FFF78F",
"%.	c #FFB500",
"&.	c #F57D0A",
"*.	c #C6B494",
"=.	c #DFD19A",
"-.	c #FEEE0A",
";.	c #F3B214",
">.	c #977D77",
",.	c #D9CE9D",
"'.	c #D1CEA6",
").	c #CAC8D1",
"      . + @ #                   ",
"    $ % & * = - ;               ",
"  > , ' ) ! ~ { ] ^             ",
"/ ( _ : < [ } | 1 2 ^           ",
"3 4 5 6 ! 7 8 9 1 0 ^           ",
"a b c d d d d d e f ^           ",
"g h i j k l m n o p             ",
"q r s t 0 u v 1 w x             ",
"  y z A 0 B C D E F             ",
"    G 2 H I J K L M N O         ",
"        P Q       R S T U       ",
"                  V W X Y Z     ",
"                    `  ...+.@.  ",
"                      #.$.%.&.*.",
"                        =.-.;.>.",
"                          ,.'.)."};
