/* Created with The GIMP */
#define eraser_cursor_mask_width 32
#define eraser_cursor_mask_height 32
static unsigned char eraser_cursor_mask_bits[] = {
   0x03, 0x00, 0x00, 0x00, 0x07, 0x00, 0x00, 0x00, 0x0f, 0x00, 0x00, 0x00,
   0x1f, 0x00, 0x00, 0x00, 0x3f, 0x00, 0x00, 0x00, 0x7f, 0x00, 0x00, 0x00,
   0xff, 0x00, 0x00, 0x00, 0xff, 0x01, 0x00, 0x00, 0xff, 0x03, 0x00, 0x00,
   0xff, 0x07, 0x00, 0x00, 0xff, 0x03, 0x00, 0x00, 0x7f, 0x00, 0x00, 0x00,
   0x1f, 0x00, 0x00, 0x00, 0x07, 0x00, 0x00, 0x00, 0x07, 0x00, 0x00, 0x00,
   0x00, 0x00, 0x00, 0x00, 0x00, 0x00, 0x00, 0x04, 0x00, 0x00, 0x00, 0x0e,
   0x00, 0x00, 0x00, 0x1f, 0x00, 0x00, 0x80, 0x3f, 0x00, 0x00, 0xc0, 0x7f,
   0x00, 0x00, 0xe0, 0xff, 0x00, 0x00, 0xf0, 0x7f, 0x00, 0x00, 0xf8, 0x3f,
   0x00, 0x00, 0xfc, 0x1f, 0x00, 0x00, 0xfe, 0x0f, 0x00, 0x00, 0xff, 0x07,
   0x00, 0x00, 0xfe, 0x03, 0x00, 0x00, 0xfc, 0x01, 0x00, 0x00, 0xf8, 0x1f,
   0x00, 0x00, 0xf0, 0x1f, 0x00, 0x00, 0xf0, 0x1f };
