/* XPM */
const char *new_process_cursor[]={
"32 32 4 1",
"b c None",
"# c None",
"a c #000000",
". c #ffffff",
"..##############################",
".a.#############################",
".aa.############################",
".aaa.###########################",
".aaaa.##########################",
".aaaaa.#########################",
".aaaaaa.########################",
".aaaaaaa.#######################",
".aaaaaaaa.######################",
".aaaaaaaaa.#####################",
".aaaaaa...######################",
".aaaa..#########################",
".aa..#########...###############",
".a.###########.a.b##############",
"...###########.a.b##############",
"###########....a....############",
"###########.aaaaaaa.############",
"###########....a....############",
"############bb.a.###..........##",
"##############.a.##..aa.aa.aa..#",
"##############...#..aaaaaaaaaa..",
"##################.aa........aa.",
"##################.aa..aaa...aa.",
"##################..a..a..a..a..",
"##################.aa..a..a..aa.",
"##################.aa..aaa...aa.",
"##################..a..a.....a..",
"##################.aa..a.....aa.",
"##################.aa........aa.",
"##################..aaaaaaaaaa..",
"###################..aa.aa.aa..#",
"####################..........##"};
