/* XPM */
static char *new_node_cursor[]={
"32 32 4 1",
"b c None",
"# c None",
"a c #000000",
". c #ffffff",
"..##############################",
".a.#############################",
".aa.############################",
".aaa.###########################",
".aaaa.##########################",
".aaaaa.#########################",
".aaaaaa.########################",
".aaaaaaa.#######################",
".aaaaaaaa.######################",
".aaaaaaaaa.#####################",
".aaaaaa...#######b##############",
".aaaa..##########b##############",
".aa..#######bb................bb",
".a.#########b..aa..aa..aa..aa..b",
"...#########..aaaaaaaaaaaaaaaa..",
"############.aa..............aa.",
"############.aa.bbbbbbbbbbbb.aa.",
"############..a.bbbbbbbbbbbb.a..",
"############..a.bbbbbbbbbbbb.a..",
"############.aa.bbbbbbbbbbbb.aa.",
"############.aa.bbbbbbbbbbbb.aa.",
"############..a.bbbbbbbbbbbb.a..",
"############..a.bbbbbbbbbbbb.a..",
"############.aa.bbbbbbbbbbbb.aa.",
"############.aa.bbbbbbbbbbbb.aa.",
"############..a.bbbbbbbbbbbb.a..",
"############..a.bbbbbbbbbbbb.a..",
"############.aa.bbbbbbbbbbbb.aa.",
"############.aa..............aa.",
"############..aaaaaaaaaaaaaaaa..",
"############b..aa..aa..aa..aa..b",
"############bb................bb"};
