/* XPM */
static char * g12_xpm[] = {
"32 22 150 2",
"  	c None",
". 	c #FFFFFF",
"+ 	c #101010",
"@ 	c #181818",
"# 	c #292929",
"$ 	c #6B6363",
"% 	c #635A5A",
"& 	c #4A4242",
"* 	c #423939",
"= 	c #393131",
"- 	c #211818",
"; 	c #312121",
"> 	c #7B5A52",
", 	c #523931",
"' 	c #4A3129",
") 	c #392118",
"! 	c #AD9C94",
"~ 	c #7B5A4A",
"{ 	c #BDADA5",
"] 	c #6B4A39",
"^ 	c #D6C6BD",
"/ 	c #8C7363",
"( 	c #735A4A",
"_ 	c #6B5242",
": 	c #523929",
"< 	c #7B5239",
"[ 	c #4A3121",
"} 	c #634A39",
"| 	c #5A4231",
"1 	c #7B5A42",
"2 	c #422918",
"3 	c #392110",
"4 	c #84634A",
"5 	c #AD5A18",
"6 	c #7B5231",
"7 	c #734218",
"8 	c #844A18",
"9 	c #C66B21",
"0 	c #945218",
"a 	c #A55A18",
"b 	c #A59C94",
"c 	c #847B73",
"d 	c #735A42",
"e 	c #4A3929",
"f 	c #423121",
"g 	c #BD7331",
"h 	c #D67B29",
"i 	c #CE7321",
"j 	c #B56318",
"k 	c #B5ADA5",
"l 	c #9C948C",
"m 	c #948C84",
"n 	c #736B63",
"o 	c #A58463",
"p 	c #9C7B5A",
"q 	c #7B5A39",
"r 	c #392918",
"s 	c #845A31",
"t 	c #634221",
"u 	c #734A21",
"v 	c #5A3918",
"w 	c #9C6329",
"x 	c #C67B31",
"y 	c #6B4218",
"z 	c #945A21",
"A 	c #FF9C39",
"B 	c #E78C31",
"C 	c #A56321",
"D 	c #8C5218",
"E 	c #C67321",
"F 	c #ADA59C",
"G 	c #8C847B",
"H 	c #FFAD52",
"I 	c #DE9442",
"J 	c #AD7331",
"K 	c #EF9C42",
"L 	c #D68C39",
"M 	c #FFA542",
"N 	c #A56B29",
"O 	c #CE8431",
"P 	c #B57329",
"Q 	c #845218",
"R 	c #6B4A21",
"S 	c #FFAD4A",
"T 	c #CE8C39",
"U 	c #7B5221",
"V 	c #634218",
"W 	c #7B6342",
"X 	c #634A29",
"Y 	c #B58442",
"Z 	c #946B31",
"` 	c #CE9442",
" .	c #FFB552",
"..	c #A57331",
"+.	c #DE9C42",
"@.	c #F7AD4A",
"#.	c #523918",
"$.	c #EFA542",
"%.	c #D69439",
"&.	c #9C6B29",
"*.	c #423118",
"=.	c #EFAD4A",
"-.	c #C68C39",
";.	c #CE8C29",
">.	c #9C8C73",
",.	c #A57B39",
"'.	c #EFB552",
").	c #C69442",
"!.	c #E7AD4A",
"~.	c #FFBD52",
"{.	c #9C7331",
"].	c #B58431",
"^.	c #C6BDAD",
"/.	c #B58C42",
"(.	c #8C6B31",
"_.	c #F7BD52",
":.	c #846329",
"<.	c #5A4218",
"[.	c #F7B542",
"}.	c #FFC652",
"|.	c #D6A542",
"1.	c #D6CEBD",
"2.	c #CEC6B5",
"3.	c #8C7339",
"4.	c #FFCE5A",
"5.	c #F7C652",
"6.	c #DEB552",
"7.	c #D6AD4A",
"8.	c #AD8C39",
"9.	c #FFD663",
"0.	c #EFC652",
"a.	c #F7D663",
"b.	c #BDA54A",
"c.	c #FFDE63",
"d.	c #F7D65A",
"e.	c #CEB552",
"f.	c #FFDE52",
"g.	c #E7CE5A",
"h.	c #DEC652",
"i.	c #FFE763",
"j.	c #DECE5A",
"k.	c #E7D65A",
"l.	c #FFEF6B",
"m.	c #FFF76B",
"n.	c #52524A",
"o.	c #424239",
"p.	c #393931",
"q.	c #313129",
"r.	c #FFFF73",
"s.	c #EFEF6B",
"} : : : : : , , , | | , , | | , , , , | | | | | | | | : : : | } ",
"} 8 a a a a a u Q ; ; #.a 0 v f q.e * , ].Z X C z R a z t J :.e ",
"} z 9 E E E C 8 8 - - #.5 a a [ - ..Z #.N C 8 8 8 8 8 8 D C Q e ",
"} ).'._._.}.].8 y @ @ y j 8 v <.- {.].z 8 8 8 8 7 7 7 8 7 7 V e ",
"} ).~._.~.0.:.N #.@ @ z |./.{.[.8.b.].z x O U - @ @ - ; 2 y v e ",
"] ).}._.5.{.J 4.b.f X 7.h.d.e.6.e./.k.l.l.m.3.@ @ @ @ @ @ r #.e ",
"] -.}.0.{.Z 5.4.4.5.d.7.|.0.b.7.).d.i.l.l.l.j.X : | [ - @ #.v : ",
"] Y -.:.N _.4.4.4.4.!.!.'.5.6./.b.e.c.i.l.l.k.6.e.e.6./.y 8 v [ ",
"] t u z ].=.}.4.4._.!.+. .'././.r f b.9.d.7.7.g.a.i.s.a.e.N v e ",
"] , : f ; s @.}.5.!.` $.[.|.)., ; # (.g.).k.l.l.l.c.l.l.l.` y e ",
"] o.* n.* f =.=.+.+.+.` !./.b.G # e b.).d.c.a.c.l.0.g.l.i.x 8 e ",
"] o.n.b l Y %.I -.| ..Z |.).^.^.n ,.-.5.c.c.'.9.i.l.l.l.d.+.8 e ",
"} } ,.).).-.` ].-.6 J %.` e.k F G ` |.9.4.c.c.c.c.i.i.i.i.J 8 e ",
"] :.-.T -.-.:.| s , | Y -.b.! ^.p ` '._.4.9.c.c.c.c.c.i.i.J 8 e ",
"} s ].N X ..s * & & } -.-.6.{ ! Y J 5.}.5.9.9.9.9.c.c.c.c.J 7 e ",
"| * Z z e , $ c b > O +./.4.0.0.'.&.5.4.4.4.9.9.9.9.9.9.9.J 7 e ",
"| p.p.n.% % b F b & 6 -.-._.}.4.!.&.5._.}.4.4.4.4.9.9.9.9.].7 e ",
"] p.* c l l b b G p.| ,.-.=.}.4.!.w '.@.}.4.4.4.4.4.4.4.4.N 7 e ",
"] p.n.m l l l l l c w ].T $.~.~.!.D ` }.4.4.4.4.4.4.4.4.4.N 7 e ",
"] p.n.m m m m l m % | 6 %.%.~._.|.D &._.}.'._.4.4.4.4.4.}.J 7 e ",
"} e ' e , * e e e ' ' ' ,...).Z , , u ].` ).` |.|.|.|.` ).Z V e ",
"< < < < < _ _ _ _ ( 1 _ _ _ ( ( ( ( d 1 1 d 1 1 d 1 < < _ _ _ ] "};
