/* XPM */
const char * browser_connection[] = {
"16 15 4 1",
" 	c None",
".	c #999999",
"+	c #666666",
"@	c #4C4C4C",
"                ",
".++             ",
".++             ",
".++             ",
".++             ",
".++             ",
".++             ",
".++       .+    ",
".++       .++   ",
".++........++++ ",
".+++++++++++++++",
"@@@@@@@@@@+++@@ ",
"          ++@   ",
"          +@    ",
"                "};
