/* XPM */
const char * browser_group[] = {
"16 16 4 1",
" 	c None",
".	c #800000",
"+	c #4C4C4C",
"@	c #4C4B4B",
"                ",
"                ",
"  ....    ....  ",
"  ....    ....  ",
"  ....    ....++",
"  ....    ....++",
"      ....    ++",
"      ....    ++",
"      ....    @+",
"      ....    ++",
"  ....    ....++",
"  ....    ....++",
"  ....    ....++",
"  ....    ....@+",
"   ++++@+++++@@+",
"   +++++++++++++"};
