/* XPM */
const char * browser_process[] = {

"16 16 8 1",
" 	c None",
".	c #DCDCDC",
"+	c #585858",
"@	c #C0C0C0",
"#	c #0000FF",
"$	c #000080",
"%	c #FF0000",
"&	c #800000",
".....+    .....+",
".@@@@+  # .@@@@+",
".@@@@+####.@@@@+",
".@@@@+$$#$.@@@@+",
".@@@@+  # .@@@@+",
"++++++    ++++++",
"  %&            ",
"  %&            ",
" %%&&           ",
"  %&            ",
".....+          ",
".@@@@+          ",
".@@@@+          ",
".@@@@+          ",
".@@@@+          ",
"++++++          "};
