/* XPM */
const char *clear[]={
"12 12 4 1",
". c None",
"a c #ffff00",
"# c #ffffc0",
"b c #ffffff",
"......#.....",
"......#.....",
".....aba....",
"....aa#aa...",
"..##b#b#b##.",
"....aa#aa...",
".....aba....",
"......#.....",
"......#.....",
"............",
"............",
"............"};
