/* XPM */
static const char *close_very_small[]={
"6 6 3 1",
"# c None",
". c #303030",
"a c #dcdcdc",
".####.",
"#.##.#",
"##..##",
"##..a#",
"#.##.a",
".####."};
