/* XPM */
const char *connectionModulatory[]={
"16 13 3 1",
"# c None",
"a c #008000",
". c #00ff00",
"..##############",
"..##############",
"..##############",
"..##############",
"..##############",
"..##############",
"..########..####",
"..########...###",
"...............#",
"................",
"aaaaaaaaaa...aa#",
"##########..a###",
"##########aa####"};
