/* XPM */
const char *up[]={
"12 12 4 1",
". c None",
"a c #303030",
"b c #585858",
"# c #a0a0a0",
"............",
"............",
".....#a.....",
"....#bba....",
"...#bbbba...",
"..#bbbbbba..",
".#bbbbbbbba.",
"#bbbbbbbbbba",
"aaaaaaaaaaaa",
"............",
"............",
"............"};
