/* XPM */
const char *fileopen[]={
"16 14 6 1",
". c None",
"# c #000000",
"a c #4a4a11",
"c c #808000",
"d c #808304",
"b c #fdfd39",
"........###.....",
".......#...#....",
"............#.#.",
"..aaa........##.",
".abbbaaaaaa.###.",
".abbbbbbbba.....",
".abbbbbbbba.....",
".abbbb#########.",
".abbb#cccccccc#.",
".abb#dddddddd#..",
".ab#dddddddd#...",
".a#dddddddd#....",
".##########.....",
"................"};
