/* XPM */
const char *filesave[]={
"12 12 4 1",
"b c None",
". c #000000",
"# c #808000",
"a c #c3c3c3",
"............",
".#.aaaaaa.b.",
".#.aaaaaa...",
".#.aaaaaa.#.",
".#.aaaaaa.#.",
".##......##.",
".##########.",
".##.......#.",
".##....aa.#.",
".##....aa.#.",
".##....aa.#.",
"b..........."};
