/* XPM */
const char *fileclose[]={
"16 14 5 1",
". c None",
"# c #000000",
"a c #303030",
"c c #808080",
"b c #a0a0a0",
".......#.###....",
".......##...#...",
".......###......",
"..aaa...........",
".abbbaaaaaaaaa..",
".abbbbbbbbbbba..",
".abbbbbbbbbbba..",
".accccccccccca..",
".accccccccccca..",
".accccccccccca..",
".accccccccccca..",
".accccccccccca..",
".aaaaaaaaaaaaa..",
"................"};
