/* XPM */
const char *icon_groupplot[]={
"14 14 24 1",
"d c #800000",
"s c #8d0000",
"k c #990000",
"p c #a60000",
"q c #aa0000",
"l c #ad0000",
"o c #af0000",
"u c #b00000",
"c c #b20000",
"e c #b30000",
"m c #b70000",
"j c #bc0000",
"a c #c00000",
"r c #c10000",
"h c #cc0000",
"n c #d10000",
"t c #d30000",
"v c #d50000",
"b c #d90000",
"i c #db0000",
"g c #e00000",
"f c #e50000",
"# c #f20000",
". c #ff0000",
"..#aab..cddeaa",
"..#aab..cddeaa",
"ffghhi##jkklee",
"ddk..faaf..kdd",
"ddk..faaf..kdd",
"ccmhhnbbnhhmcc",
"..fddc..cddf..",
"..fddc..cddf..",
"ccoppqccrhhmcc",
"ddsaapddh..kdd",
"ddsaapddh..kdd",
"fftssuffmkkvff",
"..fddc..cddf..",
"..fddc..cddf.."};
