/* XPM */
const char * infoIcon[] = {
"16 13 32 1",
" 	c None",
".	c #000012",
"+	c #000015",
"@	c #000049",
"#	c #00006D",
"$	c #000080",
"%	c #000081",
"&	c #000082",
"*	c #000084",
"=	c #00008B",
"-	c #00008C",
";	c #000091",
">	c #000093",
",	c #000096",
"'	c #000098",
")	c #0000AF",
"!	c #0000B3",
"~	c #0000C0",
"{	c #0909C2",
"]	c #0E0EC3",
"^	c #1111C4",
"/	c #1313C4",
"(	c #1818C5",
"_	c #1A1AC6",
":	c #1C1CC5",
"<	c #1F1FC7",
"[	c #2D2DCA",
"}	c #3A3ACD",
"|	c #3A3ACE",
"1	c #3C3CCD",
"2	c #4848D0",
"3	c #FFFFFF",
"                ",
"    ~{|~~~~     ",
"   ~/^~~~~~~_   ",
"   ~~~<33~~~~   ",
"  ~~~~:33~~~~~  ",
"  {~~~~~~~~~~~  ",
"  (~~~133~~~~,  ",
"  ]~~~233~~~~.  ",
"  ~~~~[33~~~~*  ",
"   ~~~}33~~!'   ",
"   ~~~~~~>;-+   ",
"     )&$=#@     ",
"                "};
