/* XPM */
const char *invert2[]={
"12 12 3 1",
". c None",
"# c #585858",
"a c #808080",
"..##....a#..",
".#a##...a#..",
"#.a#.#..a#..",
"..a#....a#..",
"..a#....a#..",
"..a#....a#..",
"..a#....a#..",
"..a#....a#..",
"..a#....a#..",
"..a#..#.a#.#",
"..a#...#a##.",
"..a#....##.."};
