/* XPM */
const char *LetterP_2[]={
"8 12 4 1",
"a c None",
"b c #303030",
"# c #a0a0a0",
". c #dcdcdc",
".######.",
"#aaaaaab",
"#abbbaab",
"#ab.abab",
"#ab.abab",
"#abbbaab",
"#ab.aaab",
"#ab.aaab",
"#ab.aaab",
"#ab.aaab",
"#aaaaaab",
".bbbbbb."};
