/* XPM */
const char *paste[]={
"16 14 7 1",
". c None",
"# c #000000",
"e c #000080",
"c c #808080",
"b c #b0a459",
"a c #ffff00",
"d c #ffffff",
"......####......",
"...####aa####...",
"..#bb#a##a#bb#..",
"..#c#dddddd#c#..",
"..#c########c#..",
"..#bbbb.eeeeee..",
"..#bbbbceddddee.",
"..#bbbbceddddede",
"..#bbbbced##deee",
"..#bbbbcedddddde",
"..#bbbbced####de",
"...#####edddddde",
"........edddddde",
"........eeeeeeee"};
