/* XPM */
const char *pencil[]={
"12 12 6 1",
". c None",
"d c #000000",
"c c #404000",
"b c #808000",
"a c #c0c000",
"# c #ffff00",
".........#..",
"........##a.",
".......##aa.",
"......##aa..",
".....##aa...",
"....##aa....",
"...##aa.....",
"..##aa......",
".b#aa.......",
".bbc........",
".dc.........",
"............"};
