/* XPM */
const char * process_link[] = {
"23 29 64 1",
" 	c None",
".	c #6D0F0B",
"+	c #6C0F0A",
"@	c #F79D99",
"#	c #F8A19C",
"$	c #EE6E68",
"%	c #6F100B",
"&	c #F9A39F",
"*	c #F79995",
"=	c #F2827C",
"-	c #74110C",
";	c #F69590",
">	c #F6918C",
",	c #75120D",
"'	c #F58E89",
")	c #F3847F",
"!	c #77120D",
"~	c #F58D85",
"{	c #F58983",
"]	c #982B26",
"^	c #F38681",
"/	c #F17973",
"(	c #EA5F58",
"_	c #73100B",
":	c #F27A74",
"<	c #F1756F",
"[	c #DE3C34",
"}	c #EF736D",
"|	c #F0716A",
"1	c #A72D27",
"2	c #F27E78",
"3	c #972A25",
"4	c #EE6E64",
"5	c #71100B",
"6	c #79140F",
"7	c #8A201A",
"8	c #EE6862",
"9	c #ED665F",
"0	c #7B140F",
"a	c #9D2C27",
"b	c #EB635D",
"c	c #EC615A",
"d	c #E34941",
"e	c #CC2F28",
"f	c #EA5D56",
"g	c #E95A53",
"h	c #E8554E",
"i	c #C52F27",
"j	c #E6534C",
"k	c #E55247",
"l	c #D12F27",
"m	c #E6514A",
"n	c #DE3A32",
"o	c #D93027",
"p	c #E54C45",
"q	c #7E1712",
"r	c #E0423A",
"s	c #8E231E",
"t	c #680E0A",
"u	c #6A0F0A",
"v	c #78130E",
"w	c #660E0A",
"x	c #610D09",
"y	c #5F0D09",
"   ...............+    ",
"   .@##@@@@@@@@@$%     ",
"   .@&&##@@@@*@=-      ",
"   .@@@@@**;>@=,       ",
"   .*@*;>>'';)!        ",
"   .;>''~~{{*].        ",
"   .>'{{^^)){/!        ",
"   .'{))))))={(_       ",
"   .~^))=:://<{[_      ",
"   .{):^>)<}|$|{1      ",
"   .^2^/3))$$44|45     ",
"   .){/6.7^/8999)7     ",
"   .)/0  5a^$bcc$d5    ",
"   .b0    %e)(fgc$5    ",
"   .,      %/9hhf|5    ",
"   +       5i:jjh}%    ",
"            %)jkg8%    ",
"            .$jd4l%    ",
"            %chd:0     ",
"            .$m4n.     ",
"            74jd%      ",
"           %o4p,       ",
"          .3ci%.       ",
"         +qrs+         ",
"       tuv]5w          ",
"     +tt.ux            ",
"   tt+wy               ",
"                       ",
"                       "};
