/* XPM */
const char *zoomOutIcon[]={
"16 13 9 1",
". c None",
"b c #000000",
"d c #585858",
"g c #800000",
"f c #808000",
"# c #a0a0a0",
"c c #c0ffff",
"a c #dcdcdc",
"e c #ffff00",
"................",
"...#####........",
"..##...##.......",
".##..a..##......",
".#...a...#......",
".#.bbbbb.#......",
".#...a...#......",
".#c..a..#de.....",
"..#c...#dffe....",
"...d#d#d.gffe...",
"..........gffe..",
"..........agff..",
"............g..."};
