/* XPM */
const static char *iqr_2[]={
"26 22 5 1",
". c None",
"b c #303030",
"a c #585858",
"# c #a0a0a0",
"c c #c3c3c3",
"####......................",
"#aab......................",
"#bbb......................",
"..........................",
"..........................",
"####..############..######",
"#aab..#aaaaaaaaaab..#aaaaa",
"#aab..#aabbbbbbaab..#aabbb",
"#aab..#aab....#aab..#aab..",
"#aab..#aab....#aab..#aab..",
"#aab..#aab....#aab..#aab..",
"#aab..#aab....#aab..#aab..",
"#aab..#aab....#aab..#aab..",
"#aab###aab#####aab###aab..",
"#aaaaaaaaaaaaaaaaaaaaaab..",
"#bbbbbbbbbbbbbbaabbbbbbb..",
"..............#aab........",
"..............#aab........",
"..............#aab........",
"..............#aab........",
"..............#aab........",
"..............#aab........"};
