/* Created with The GIMP */
#define pencil_cursor_width 32
#define pencil_cursor_height 32
static unsigned char pencil_cursor_bits[] = {
   0x00, 0x00, 0x00, 0x00, 0x02, 0x00, 0x00, 0x00, 0x06, 0x00, 0x00, 0x00,
   0x0e, 0x00, 0x00, 0x00, 0x1e, 0x00, 0x00, 0x00, 0x3e, 0x00, 0x00, 0x00,
   0x7e, 0x00, 0x00, 0x00, 0xfe, 0x00, 0x00, 0x00, 0xfe, 0x01, 0x00, 0x00,
   0xfe, 0x03, 0x00, 0x00, 0x7e, 0x00, 0x00, 0x00, 0x1e, 0x00, 0x00, 0x00,
   0x06, 0x00, 0x00, 0x00, 0x02, 0x00, 0x00, 0x00, 0x00, 0x00, 0x00, 0x00,
   0x00, 0x00, 0x00, 0x00, 0x00, 0x00, 0x00, 0x20, 0x00, 0x00, 0x00, 0x50,
   0x00, 0x00, 0x00, 0x88, 0x00, 0x00, 0x00, 0xc4, 0x00, 0x00, 0x00, 0x62,
   0x00, 0x00, 0x00, 0x31, 0x00, 0x00, 0x80, 0x18, 0x00, 0x00, 0x40, 0x0c,
   0x00, 0x00, 0x20, 0x06, 0x00, 0x00, 0x10, 0x03, 0x00, 0x00, 0x88, 0x01,
   0x00, 0x00, 0xc4, 0x00, 0x00, 0x00, 0x6c, 0x00, 0x00, 0x00, 0x3c, 0x00,
   0x00, 0x00, 0x02, 0x00, 0x00, 0x00, 0x00, 0x00 };
