/* XPM */
const char *new_connection_cursor[]={
"32 32 4 1",
"b c None",
"# c None",
"a c #000000",
". c #ffffff",
"..##############################",
".a.#############################",
".aa.############################",
".aaa.###########################",
".aaaa.##########################",
".aaaaa.#########################",
".aaaaaa.########################",
".aaaaaaa.#######################",
".aaaaaaaa.####################b#",
".aaaaaaaaa.##########bbbbbbbbbbb",
".aaaaaa...##########bbbbbbbbbbbb",
".aaaa..#######b###bbbbbbbbbbbbbb",
".aa..######bbb...bbbbbbbbbbbbbbb",
".a.bbbbbbbbbbb.a.bbbbbbbbbbbbbbb",
"...bbbbbbbbbbb.a.bbbbbbbbbbbbbbb",
"###bbbbbbbb....a....bbbbbbbbbbbb",
"###bbbbbbbb.aaaaaaa.bbbbbbbbbbbb",
"###bbbbbbbb....a....bbbbbb..bbbb",
"###bbbbbbbbbbb.a.bbbbbbbbb.a.bbb",
"###bbbbbbbbbbb.a.bbbbbbbbbb.a.bb",
"###bbbbbbbbbbb...b...........a.b",
"###bbbbbbbbbbbbbbb.aaaaaaaaaaaa.",
"############bbbb##.a.........a.b",
"###########bbbbb##.a.bbbbbb.a.bb",
"###########bbbbbbb.a.bbbbb.a.bbb",
"###########bbbbb#b.a.bbbbb..bbbb",
"############bbbb#b.a.bbbbbbbbbbb",
"############bbbbbb.a.bbbbbbbbbbb",
"############bbbbbb.a.bbbbbbbbbbb",
"############bbbbbb...bbbbbbbbbbb",
"############bbbbbbbbbbbbbbbbbbbb",
"#############bbbbbbbbbbbbbbbbbbb"};
