/* XPM */
const char *zoom[] = {
/* columns rows colors chars-per-pixel */
"32 32 204 2",
"   c #0B0E13",
".  c #121821",
"X  c #171E29",
"o  c #1B232F",
"O  c #1B2534",
"+  c #1F2A3D",
"@  c #232F42",
"#  c #293850",
"$  c #293959",
"%  c #344560",
"&  c #344561",
"*  c #364764",
"=  c #384A67",
"-  c #364A6C",
";  c #394C6B",
":  c #364D7B",
">  c #384E78",
",  c #3F5473",
"<  c #425771",
"1  c #465D7F",
"2  c #3F5781",
"3  c #3E598E",
"4  c #415987",
"5  c #465E8D",
"6  c #435F96",
"7  c #4A648A",
"8  c #4C668F",
"9  c #4B6495",
"0  c #4F6890",
"q  c #436099",
"w  c #43609B",
"e  c #4B6799",
"r  c #48649A",
"t  c #556F91",
"y  c #5E729B",
"u  c #66779A",
"i  c #4665A2",
"p  c #4766A6",
"a  c #4A68A4",
"s  c #4A6AAB",
"d  c #506CA6",
"f  c #5975A1",
"g  c #5978A7",
"h  c #5A79A6",
"j  c #5171AF",
"k  c #5A79A8",
"l  c #5A7AA9",
"z  c #4E6FB1",
"x  c #4F70B2",
"c  c #4F70B3",
"v  c #5173B2",
"b  c #5072B3",
"n  c #5172B3",
"m  c #5173B3",
"M  c #5274B3",
"N  c #5172B4",
"B  c #5273B4",
"V  c #5374B4",
"C  c #5375B6",
"Z  c #5474B4",
"A  c #5776B6",
"S  c #5678B5",
"D  c #5778BA",
"F  c #597CB9",
"G  c #5A7DBE",
"H  c #6B7EA5",
"J  c #5F82BE",
"K  c #6381AF",
"L  c #6585AC",
"P  c #7585A5",
"I  c #7487AD",
"U  c #7788AC",
"Y  c #6281B4",
"T  c #6483B4",
"R  c #6688B5",
"E  c #6281BB",
"W  c #6282BA",
"Q  c #6285BA",
"!  c #6683BD",
"~  c #6885BD",
"^  c #678ABC",
"/  c #698BBC",
"(  c #7289B7",
")  c #748BBA",
"_  c #5E81C2",
"`  c #6186C7",
"'  c #6689C0",
"]  c #6488C3",
"[  c #6F8AC1",
"{  c #698DC6",
"}  c #6387C9",
"|  c #6388CA",
" . c #678CCB",
".. c #6A8FCB",
"X. c #738FC3",
"o. c #6C91CB",
"O. c #6E92CD",
"+. c #7590C3",
"@. c #7790C3",
"#. c #7A95C5",
"$. c #7B94C6",
"%. c #7C95C6",
"&. c #7193C8",
"*. c #7194C9",
"=. c #7F98C8",
"-. c #6D93D3",
";. c #6D95D6",
":. c #6E96D6",
">. c #7396D0",
",. c #7097D4",
"<. c #769AD4",
"1. c #799CD4",
"2. c #759DDA",
"3. c #79A0CE",
"4. c #7BA0D0",
"5. c #7AA1D2",
"6. c #7DA3D6",
"7. c #7CA0D8",
"8. c #7DA1D8",
"9. c #7CA0D9",
"0. c #7DA0D9",
"q. c #7FA2DA",
"w. c #7FA3DB",
"e. c #7FA3DC",
"r. c #7AA5DE",
"t. c #7BA4DF",
"y. c #7EA5DC",
"u. c #7DA6DD",
"i. c #7CA5DE",
"p. c #7EA7E1",
"a. c #7FABE1",
"s. c #7EAAE4",
"d. c #7FAAE4",
"f. c #839BC9",
"g. c #89A0CB",
"h. c #8BA2CC",
"j. c #80A4DE",
"k. c #80A7DE",
"l. c #82A6DE",
"z. c #81AADB",
"x. c #85A9DB",
"c. c #83A8DE",
"v. c #84A8DF",
"b. c #85A8DF",
"n. c #85A9DF",
"m. c #9FB2D5",
"M. c #ACBCDB",
"N. c #82ABE3",
"B. c #86A9E0",
"V. c #86AAE0",
"C. c #84AAE2",
"Z. c #87ABE2",
"A. c #82ACE1",
"S. c #86ADE2",
"D. c #84AEE2",
"F. c #86AFE3",
"G. c #83ABE6",
"H. c #81ADE4",
"J. c #83AFE4",
"K. c #88ACE2",
"L. c #8AADE2",
"P. c #88AEE2",
"I. c #89AFE3",
"U. c #8AAEE2",
"Y. c #8AAFE2",
"T. c #8BAEE3",
"R. c #8BAFE3",
"E. c #8CAFE3",
"W. c #87B1E5",
"Q. c #8AB0E3",
"!. c #89B2E2",
"~. c #8AB0E4",
"^. c #8BB1E4",
"/. c #89B2E5",
"(. c #8AB2E5",
"). c #8CB0E4",
"_. c #8BB5E5",
"`. c #8DB5E7",
"'. c #90BAE7",
"]. c #91BAE7",
"[. c #90B9EB",
"{. c #94BAE8",
"}. c #96BAE9",
"|. c #94BEE9",
" X c #95BEE9",
".X c #91BAEC",
"XX c #9ABDEA",
"oX c #A2C1EC",
"OX c #A2C2EC",
"+X c #ACCBED",
"@X c #A5C9F0",
"#X c #CFD8EA",
"$X c #D1DAEB",
"%X c #D2DBEB",
"&X c #D8E0EE",
"*X c #DDE3F0",
"=X c #DDE4F0",
"-X c #E6EAF4",
";X c #E7ECF4",
":X c #EAEEF6",
">X c #F4F6FA",
",X c #F6F8FB",
"<X c gray100",
"1X c None",
/* pixels */
"1X1X1X1X1X1X1X1X1XH ) @.( U 1X1X1X1X1X1X1X1X1X1X1X1X1X1X1X1X1X1X",
"1X1X1X1X1X1Xu p A [ =.f.$.! B q 1X1X1X1X1X1X1X1X1X1X1X1X1X1X1X1X",
"1X1X1X1X1Xd N %.M.$X=X-X*X#Xm.~ n 5 1X1X1X1X1X1X1X1X1X1X1X1X1X1X",
"1X1X1X1Xi Z h.&X<X<X<X<X<X<X<X%X+.M 3 1X1X1X1X1X1X1X1X1X1X1X1X1X",
"1X1X1Xw x g.:X<X<X<X<X<X<X<X<X<X;X#.V : 1X1X1X1X1X1X1X1X1X1X1X1X",
"1X1Xy z E ,X<X<X<X<X<X<X<X<X<X<X<X>XW v 1X1X1X1X1X1X1X1X1X1X1X1X",
"1X1Xs b 1X<X<X<X<X<X<X<X<X<X<X<X<X<X1XS 6 1X1X1X1X1X1X1X1X1X1X1X",
"1XP c X.1X1X1X1X1X1X1X1X1X1X1X1X1X1X1X#.V 1X1X1X1X1X1X1X1X1X1X1X",
"1X9 C 1X1X1X1X1X1X1X1X1X1X1X1X1X1X1X1X1XF $ 1X1X1X1X1X1X1X1X1X1X",
"1Xa D 1X1X1X1X1X1X1X1X1X1X1X1X1X1X1X1X1XJ > 1X1X1X1X1X1X1X1X1X1X",
"1Xm G 1X1X1X1X1X1X1X1X1X1X1X1X1X1X1X1X1X] 4 1X1X1X1X1X1X1X1X1X1X",
"1Xj _ 1X1X1X1X1X1X1X1X1X1X1X1X1X1X1X1X1X{ 2 1X1X1X1X1X1X1X1X1X1X",
"1Xr ` 1X1X1X1X1X1X1X1X1X1X1X1X1X1X1X1X1Xo.- 1X1X1X1X1X1X1X1X1X1X",
"1XI } 1X1X1X1X1X1X1X1X1X1X1X1X1X1X1X1X1XO.+ 1X1X1X1X1X1X1X1X1X1X",
"1X1X| <.1X1X1X1X1X1X1X1X1X1X1X1X1X1X1Xx.' 1X1X1X1X1X1X1X1X1X1X1X",
"1X1Xe -.1X1X1X1X1X1X1X1X1X1X1X1X1X1X1Xy.; 1X1X1X1X1X1X1X1X1X1X1X",
"1X1X1X .2.1X1X1X1X1X1X1X1X1X1X1X1X1X/./ 1X1X1X1X1X1X1X1X1X1X1X1X",
"1X1X1X1X:.t.1X1X1X1X1X1X1X1X1X1X1X[.6.X 1X1X1X1X1X1X1X1X1X1X1X1X",
"1X1X1X1X# ,.p.}.1X1X1X1X1X1X1X@X.X4.o 1X8 ;.1X1X1X1X1X1X1X1X1X1X",
"1X1X1X1X1X1Xg i.D._.].+X X|.'.!.t   1XK oXG...1X1X1X1X1X1X1X1X1X",
"1X1X1X1X1X1X1XO 1 R 5.z.3.L < . 1X1Xh d.XXOXs.Q 1X1X1X1X1X1X1X1X",
"1X1X1X1X1X1X1X1X1X1X1X1X1X1X1X1X1X1Xr.a.J.{.`.H.l 1X1X1X1X1X1X1X",
"1X1X1X1X1X1X1X1X1X1X1X1X1X1X1X1X1X1Xk u.A.F.(.W.N.7 1X1X1X1X1X1X",
"1X1X1X1X1X1X1X1X1X1X1X1X1X1X1X1X1X1X1X^ k.S.I.~.I.C.= 1X1X1X1X1X",
"1X1X1X1X1X1X1X1X1X1X1X1X1X1X1X1X1X1X1X1X*.c.P.Q.^.~.l.1X1X1X1X1X",
"1X1X1X1X1X1X1X1X1X1X1X1X1X1X1X1X1X1X1X1X1X1.n.U.E.).T.8.1X1X1X1X",
"1X1X1X1X1X1X1X1X1X1X1X1X1X1X1X1X1X1X1X1X1X1X0.B.Y.R.R.Z.&.1X1X1X",
"1X1X1X1X1X1X1X1X1X1X1X1X1X1X1X1X1X1X1X1X1X1X, e.V.L.U.K.j.T 1X1X",
"1X1X1X1X1X1X1X1X1X1X1X1X1X1X1X1X1X1X1X1X1X1X1X0 w.b.B.v.9.* 1X1X",
"1X1X1X1X1X1X1X1X1X1X1X1X1X1X1X1X1X1X1X1X1X1X1X1Xf 9.q.7.% 1X1X1X",
"1X1X1X1X1X1X1X1X1X1X1X1X1X1X1X1X1X1X1X1X1X1X1X1X1XY >.& 1X1X1X1X",
"1X1X1X1X1X1X1X1X1X1X1X1X1X1X1X1X1X1X1X1X1X1X1X1X1X1X@ 1X1X1X1X1X"
};
