/* XPM */
const char *close1[]={
"14 14 77 2",
".O c #264e6a",
".G c #2a567e",
".z c #365e8e",
".i c #3e5e7e",
".h c #3e627e",
".j c #3e6286",
".u c #426682",
".k c #42668a",
".g c #426a82",
".q c #466682",
".C c #466a86",
".w c #466a92",
".B c #4a6a86",
".l c #4a6a96",
".I c #4a6e86",
".t c #4a6e8a",
".1 c #4a6e8e",
".A c #4a7286",
".J c #4e6a8a",
".S c #4e6e8e",
".7 c #4e6e96",
".R c #4e728a",
".p c #4e728e",
".T c #526e92",
".0 c #527292",
".D c #527296",
".s c #52768e",
"#a c #52769a",
"## c #52769e",
".x c #56769e",
".r c #5676a2",
"#g c #567aa2",
".6 c #5a7a9a",
".K c #5a7a9e",
"#b c #5a7aa2",
".E c #5e7aa2",
"#h c #5e7ea6",
".L c #6282a2",
".U c #6282a6",
".y c #6282ae",
".M c #6686aa",
".F c #6686ae",
".V c #6a8aaa",
".N c #6e8eb2",
"#k c #6e96ca",
".8 c #728eae",
".W c #7292b2",
".2 c #7692b2",
"#e c #7696b2",
"#c c #7696b6",
".X c #7a96b6",
".9 c #7a9ab6",
".3 c #7e9ab6",
"#d c #7e9aba",
"#. c #829aba",
".4 c #829eba",
"#i c #8e8e8e",
"#f c #929292",
".m c #96aece",
".Y c #9e9e9e",
".P c #a2a2a2",
"#j c #a6a6a6",
".H c #aeaeae",
".5 c #b6cade",
".d c #bacede",
".n c #bebebe",
".Z c #c2c2c2",
".Q c #c6c6c6",
".c c #c6d6e2",
".e c #cacaca",
".a c #cedae6",
".o c #d2d2d2",
".b c #d2deea",
".f c #d6d6d6",
".# c #dedede",
"Qt c #e2e2e2",
".v c #fefefe",
"QtQt.#.a.b.c.c.c.d.e.f.#QtQt",
"Qt.#.a.g.h.i.j.k.l.m.n.o.#Qt",
".#.a.p.q.h.h.j.k.l.r.m.n.o.#",
".b.s.t.q.u.v.v.w.l.x.y.z.n.f",
".b.A.B.C.B.v.v.D.x.E.F.G.H.e",
".c.I.I.t.J.v.v.K.L.M.N.O.P.Q",
".c.R.t.S.T.v.v.U.V.W.X.O.Y.Z",
".c.0.1.S.0.v.v.V.2.3.4.O.Y.Z",
".5.6.D.7.7.v.v.8.9#..4.O.P.Q",
".e.m###a#a#b.M#c#d#e.O#f.H.e",
".f.n.m#g#h.M.W.4.4.O#i#j.n.f",
".#.o.n#k.z.G.O.O.O#f#j.n.o.#",
"Qt.#.o.n.H.P.Y.Y.P.H.n.o.#Qt",
"QtQt.#.f.e.Q.Z.Z.Q.e.f.#QtQt"};
