/* XPM */
const char *divide_right[]={
"6 40 4 1",
". c None",
"b c #000000",
"a c #808080",
"# c #a0a0a0",
"......",
"......",
".#....",
".a#...",
".aa#..",
".aaa#.",
".aaab.",
".aab..",
".ab...",
".b....",
"......",
"......",
"......",
"......",
"......",
"......",
"......",
"......",
"......",
"......",
"......",
"......",
"......",
"......",
"......",
"......",
"......",
"......",
"......",
"......",
".#....",
".a#...",
".aa#..",
".aaa#.",
".aaab.",
".aab..",
".ab...",
".b....",
"......",
"......"};

