/* XPM */
const char *divide_left[]={
"6 40 5 1",
". c None",
"b c #000000",
"c c #303030",
"a c #808080",
"# c #a0a0a0",
"......",
"......",
"....#.",
"...#a.",
"..#aa.",
".#aaa.",
".baaa.",
"..caa.",
"...ca.",
"....c.",
"......",
"......",
"......",
"......",
"......",
"......",
"......",
"......",
"......",
"......",
"......",
"......",
"......",
"......",
"......",
"......",
"......",
"......",
"......",
"......",
"....#.",
"...#a.",
"..#aa.",
".#aaa.",
".caaa.",
"..caa.",
"...ca.",
"....c.",
"......",
"......"};

