/* XPM */
const char *drag_very_small[]={
"6 6 2 1",
". c None",
"# c #303030",
"...#..",
"....#.",
"######",
"######",
"....#.",
"...#.."};
