/* XPM */
const char *filesaveas[]={
"16 14 4 1",
"# c None",
". c #000000",
"a c #6b5618",
"b c #808000",
"..........######",
".a.####.#.######",
".a.#............",
".a...b.######.#.",
".aaa.b.######...",
".aaa.b.######.b.",
".a...b.######.b.",
".a...b........b.",
".a...bbbbbbbbbb.",
"#....bbbbbbbbbb.",
"####.bb.......b.",
"####.bb....##.b.",
"####.bb....##.b.",
"#####..........."};
