/* XPM */
const char *group_synapse_in[]={
"14 14 5 1",
". c None",
"c c #0000c0",
"b c #0058c0",
"a c #0080ff",
"# c #585858",
"....###.......",
"...##.##......",
"...##.........",
"....###.......",
".....###......",
"...#..##......",
"...#####......",
"....###..a....",
"........abc..a",
".......abbbaac",
"........cbbbbc",
".........cbbbc",
".........abbbc",
"........cccccc"};
