/* XPM */
const char *group_module_out[]={
"14 14 5 1",
". c None",
"b c #0000c0",
"a c #0058c0",
"# c #0080ff",
"c c #585858",
".##...........",
"#aa#..b.......",
"aaaa##b.......",
".aaaaab.......",
"..aaaab.......",
"..aaaab.......",
".bbbbbb.......",
"......cc....cc",
"......ccc..ccc",
"......cccccccc",
"......cc.cc.cc",
"......cc....cc",
"......cc....cc",
"......cc....cc"};
