/* XPM */
const char *icon_groupplot[]={
"32 32 6 1",
"# c None",
"d c #303030",
"c c #800000",
". c #a0a0a0",
"b c #c00000",
"a c #ff0000",
"......................##########",
".aaaabbbbaaaaccccbbbb.##########",
".aaaabbbbaaaaccccbbbb.##########",
".aaaabbbbaaaaccccbbbb.##########",
".aaaabbbbaaaaccccbbbb.##########",
".ccccaaaabbbbaaaacccc.##########",
".ccccaaaabbbbaaaacccc.##########",
".ccccaaaabbbbaaaacccc.##########",
".ccccaaaabbbbaaaacccc.##########",
".aaaaccccaaaaccccaaaa.##########",
".aaaaccccaaaaccccaaaa.##########",
".aaaaccccaaaaccccaaaa.##########",
".aaaaccccaaaaccccaaaa.##########",
".ccccbbbbccccaaaacccc.##########",
".ccccbbbbccccaaaacccc.##########",
".ccccbbbbccccaaaacccc.##########",
".ccccbbbbccccaaaacccc.##########",
".aaaaccccaaaaccccaaaa.##########",
".aaaaccccaaaaccccaaaa.##########",
".aaaaccccaaaaccccaaaa.##########",
".aaaaccccaaaaccccaadd.##########",
"...................dd.##########",
"################################",
"###################dd#dddddd#ddd",
"###################dd#dd##dd#dd#",
"###################dd#dd##dd#dd#",
"###################dd#dd##dd#dd#",
"###################dddddddddddd#",
"##########################dd####",
"##########################dd####",
"##########################dd####",
"##########################dd####"};
