/* XPM */
const char *icon_datasampler[]={
"32 32 91 2",
".# c None",
".c c #000000",
".I c #003b5c",
".e c #020202",
"#w c #292929",
"#r c #2e2e2e",
"#y c #303030",
"#k c #323232",
".5 c #363636",
"#x c #38363b",
"#v c #393939",
".v c #3f3f3f",
".X c #424242",
".n c #464646",
".3 c #494a05",
"#b c #4e4f06",
"#q c #505106",
"#j c #525306",
".i c #545506",
"#s c #585858",
"#l c #606060",
".V c #625c52",
"#d c #686868",
".P c #72644f",
".d c #727272",
".1 c #7f851e",
".b c #800000",
".K c #807055",
".N c #818720",
".U c #828821",
".2 c #868537",
".k c #87837e",
".D c #88785b",
".T c #898a39",
".t c #8a795c",
".u c #8a8173",
".O c #8c9023",
".j c #8d8c10",
".s c #948c82",
".r c #9c9b9e",
"#t c #9d9d9d",
"#a c #9e9d27",
"Qt c #a0a0a0",
".G c #a1991e",
"#c c #a4a2a5",
"#u c #a7a7a7",
"#p c #aaaaaa",
".4 c #aeadb0",
"#m c #afafaf",
"#o c #b0b0b0",
".M c #b2bc0f",
".S c #b4b590",
"#n c #b5b5b5",
"#i c #bbbbbb",
".H c #bfb966",
".Q c #bfbdc2",
".W c #bfbec1",
"#e c #c0c0c0",
"#h c #c6c6c6",
".y c #c7c27a",
".h c #c7c5ca",
"#g c #cacaca",
".J c #ccb389",
"## c #cccccc",
".L c #cccccd",
"#f c #cecece",
"#. c #d1d1d1",
".F c #d4c411",
".E c #d5d4d5",
".9 c #d6d6d6",
".C c #d7c19f",
".w c #d9cd44",
".q c #dad8a1",
".8 c #dbdbdb",
".x c #ddd360",
".7 c #dedede",
".6 c #dfdfdf",
".0 c #e1e1e1",
".Z c #e2e2e1",
".B c #e3d1b8",
".g c #e4e4e4",
".A c #eae0d1",
".z c #eae8cf",
".Y c #eaeaea",
".o c #edea9c",
".m c #eeeeee",
".p c #f3efcc",
".R c #f6f6f6",
".l c #f8f8f9",
".a c #ff0000",
".f c #ffffff",
"QtQtQtQtQtQtQtQtQtQtQtQtQtQtQtQtQtQtQtQtQtQtQt.#.#.#.#.#.#.#.#.#",
"Qt.#.#.#.#.#.#.a.a.a.a.a.b.#.#.#.#.#.#.#.#.#Qt.#.#.#.#.#.#.#.#.#",
"Qt.#.#.#.#.#.#.a.a.a.a.a.b.#.#.#.#.#.#.#.#.#Qt.#.#.#.#.#.#.#.#.#",
"Qt.#.#.#.#.#.#.a.a.a.a.a.b.#.#.#.#.#.#.#.#.#Qt.#.#.#.#.#.#.#.#.#",
"Qt.#.#.#.#.#.#.a.a.a.a.a.b.#.#.#.#.#.#.#.#.#Qt.#.#.#.#.#.#.#.#.#",
"Qt.#.#.#.a.a.a.a.a.a.a.a.a.a.a.b.#.#.#.#.#.#Qt.#.#.#.#.#.#.#.#.#",
"Qt.#.#.#.#.a.a.a.a.a.a.a.a.a.b.#.#.#.#.#.#.#Qt.#.#.#.#.#.#.#.#.#",
"Qt.#.#.#.#.c.a.a.a.a.a.a.a.b.d.e.#.#.#.#.#.#Qt.#.#.#.#.#.#.#.#.#",
"Qt.#.#.#.#.c.f.a.a.a.a.a.b.g.g.h.e.#.#.#.#.#Qt.#.#.#.#.#.#.#.#.#",
"Qt.#.i.j.i.i.f.k.a.a.a.b.g.l.l.m.h.n.#.#.#.#Qt.#.#.#.#.#.#.#.#.#",
"Qt.#.i.o.p.q.j.i.i.a.b.r.s.t.u.g.g.v.#.#.#.#Qt.#.#.#.#.#.#.#.#.#",
"Qt.#.i.w.x.y.q.z.q.j.i.i.A.B.C.D.E.v.#.#.#.#Qt.#.#.#.#.#.#.#.#.#",
"Qt.#.#.i.F.G.G.H.y.q.z.q.j.I.J.K.L.v.#.#.#.#Qt.#.#.#.#.#.#.#.#.#",
"Qt.#.#.i.M.N.O.O.G.G.H.y.q.z.i.P.Q.v.#.#.#.#Qt.#.#.#.#.#.#.#.#.#",
"Qt.#.#.c.R.R.S.T.U.O.O.G.G.H.i.V.W.v.#.#.#.#Qt.#.#.#.#.#.#.#.#.#",
"Qt.#.#.#.X.m.Y.Z.0.S.T.1.O.O.2.3.4.v.#.#.#.#Qt.#.#.#.#.#.#.#.#.#",
"Qt.#.#.#.5.6.6.7.8.9#.##.S#a.N#b#c.v.#.#.#.#Qt.#.#.#.#.#.#.#.#.#",
"Qt.#.#.#.#.e.5#d#e#f#g#h#e#i#i#j.r.v.#.#.#.#Qt.#.#.#.#.#.#.#.#.#",
"Qt.#.#.#.#.#.#.#.e#k#l#m#i#n#o#p#q.v.#.#.#.#Qt.#.#.#.#.#.#.#.#.#",
"Qt.#.#.#.#.#.#.#.#.#.#.e#r#s#t#u.i#v.#.#.#.#Qt.#.#.#.#.#.#.#.#.#",
"Qt.#.#.#.#.#.#.#.#.#.#.#.#.#.e#w#x.#.##y#y.#Qt.#.#.#.#.#.#.#.#.#",
"QtQtQtQtQtQtQtQtQtQtQtQtQtQtQtQtQtQtQt#y#yQtQt.#.#.#.#.#.#.#.#.#",
".#.#.#.#.#.#.#.#.#.#.#.#.#.#.#.#.#.#.#.#.#.#.#.#.#.#.#.#.#.#.#.#",
".#.#.#.#.#.#.#.#.#.#.#.#.#.#.#.#.#.#.##y#y.##y#y#y#y#y#y.##y#y#y",
".#.#.#.#.#.#.#.#.#.#.#.#.#.#.#.#.#.#.##y#y.##y#y.#.##y#y.##y#y.#",
".#.#.#.#.#.#.#.#.#.#.#.#.#.#.#.#.#.#.##y#y.##y#y.#.##y#y.##y#y.#",
".#.#.#.#.#.#.#.#.#.#.#.#.#.#.#.#.#.#.##y#y.##y#y.#.##y#y.##y#y.#",
".#.#.#.#.#.#.#.#.#.#.#.#.#.#.#.#.#.#.##y#y#y#y#y#y#y#y#y#y#y#y.#",
".#.#.#.#.#.#.#.#.#.#.#.#.#.#.#.#.#.#.#.#.#.#.#.#.#.##y#y.#.#.#.#",
".#.#.#.#.#.#.#.#.#.#.#.#.#.#.#.#.#.#.#.#.#.#.#.#.#.##y#y.#.#.#.#",
".#.#.#.#.#.#.#.#.#.#.#.#.#.#.#.#.#.#.#.#.#.#.#.#.#.##y#y.#.#.#.#",
".#.#.#.#.#.#.#.#.#.#.#.#.#.#.#.#.#.#.#.#.#.#.#.#.#.##y#y.#.#.#.#"};
