/* XPM */
const char *icon_connection_plot[]={
"32 32 9 1",
". c None",
"a c #303030",
"g c #585858",
"c c #800000",
"# c #a0a0a0",
"b c #c00000",
"d c #c3c3c3",
"e c #ff0000",
"f c #ff3d3d",
"................................",
"................................",
"................................",
"................................",
"................................",
"###############..###############",
"#aaaaaaaaaaaaa#..#aaaaaaaaaaaaa#",
"#aaaaaaaaaaaaa#..#aaaaaaaaaaaaa#",
"#aaaaaaaaaaaaa#..#aaaaaaaabbaaa#",
"#aaaaaaaaaaaaa#..#aaaaaaaabbaaa#",
"#acccccccaaaaa#..#aaaaaaaaaaaaa#",
"#acbbbbbcaaaaa#dd#aaaaaaaaaaaaa#",
"#acbeeebcaaaaa####aaaaaaaaaaaaa#",
"#acbefebcaaaaa#gg#aaaaaaaaaaaaa#",
"#acbeeebcaaaaa#..#aaaaaaaaaaaaa#",
"#acbbbbbcaaaaa#..#aaaaaaaaaaaaa#",
"#acccccccaaaaa#..#aaaaaaaaaaaaa#",
"#aaaaaaaaaaaaa#..#aaaaaaaaaaaaa#",
"#aaaaaaaaaaaaa#..#aaaaaaaaaaaaa#",
"###############..###############",
"...................aa...........",
"...................aa...........",
"................................",
"...................aa.aaaaaa.aaa",
"...................aa.aa..aa.aa.",
"...................aa.aa..aa.aa.",
"...................aa.aa..aa.aa.",
"...................aaaaaaaaaaaa.",
"..........................aa....",
"..........................aa....",
"..........................aa....",
"..........................aa...."};
