/* XPM */
const char *icon_timeplot[]={
"32 32 7 1",
"# c None",
"c c #0000c0",
"b c #00c000",
"e c #303030",
". c #a0a0a0",
"d c #c00000",
"a c #ffffff",
"......................##########",
".aaaaaaaaaaaaaaaaaaaa.##########",
".aaaaaaaaaaaaaaaaaaaa.##########",
".baaaaaaaaaaaaabaaaaa.##########",
".baaaaaaacaaaabbaaaac.##########",
".abaaaaaccaaaababaaca.##########",
".abaaaacaacaaabaabcaa.##########",
".aabaaacaaacabaacbaaa.##########",
".aaabacaaaaacbacaabaa.##########",
".ddabacaaaaaabcaaaaba.##########",
".aaddbaaaaaabaaaaaaab.##########",
".aaaabaaaaaabaaaadaaa.##########",
".aaacabdaaaabaaaddaaa.##########",
".aaacaabddabaaddadaaa.##########",
".aacaaabaadbadaaaadaa.##########",
".aacaaaabaabdaaaaadaa.##########",
".acaaaaababaaaaaaaada.##########",
".acaaaaaabbaaaaaaaada.##########",
".caaaaaaaabaaaaaaaaad.##########",
".caaaaaaaaaaaaaaaaaaa.##########",
".aaaaaaaaaaaaaaaaaaee.##########",
"...................ee.##########",
"################################",
"###################ee#eeeeee#eee",
"###################ee#ee##ee#ee#",
"###################ee#ee##ee#ee#",
"###################ee#ee##ee#ee#",
"###################eeeeeeeeeeee#",
"##########################ee####",
"##########################ee####",
"##########################ee####",
"##########################ee####"};
