/* XPM */
const char *icon_timeplot[]={
"14 14 84 2",
"#n c #17c517",
".I c #299c57",
".C c #32ad51",
".h c #35cc35",
"#b c #48c33d",
".Z c #4c4cd2",
".p c #4cd24c",
".x c #5959d5",
".c c #61d761",
"#g c #66d966",
".1 c #6a8829",
"#. c #6ad768",
".U c #6ad96a",
".l c #7272db",
".8 c #7575dc",
".4 c #75dc75",
".z c #7a7add",
".A c #7ad682",
".L c #7add7a",
".o c #7f7fdf",
".J c #7f92cb",
".P c #7fc29c",
".r c #7fd588",
".u c #7fde7f",
".i c #7fdf7f",
".O c #825917",
".f c #8484e0",
".S c #89e189",
".# c #94e494",
".n c #9898e5",
".m c #99e599",
"#i c #9bc27f",
"#l c #a3a3e8",
".V c #a5c0cd",
"#h c #a5e8a5",
"#k c #a7a7e9",
".K c #b2b2ec",
".b c #b2ecb2",
".g c #babaed",
".q c #bfefbf",
".T c #c1c7ea",
".B c #c1ebc5",
"#r c #c9c9f1",
".R c #c9f1c9",
".G c #ccccf2",
".0 c #ccf2cc",
".7 c #cd3838",
".Y c #cf3d3d",
".D c #d0dce7",
".H c #d1d1f3",
".9 c #d5d5f4",
".5 c #d6f4d6",
".s c #d8d8f5",
".2 c #d96666",
"## c #d9ddc6",
".v c #daf5da",
".y c #dbdbf5",
".N c #dc7575",
"#a c #dd7a7a",
"#c c #de7f7f",
".6 c #df7f7f",
".a c #e0f7e0",
".W c #e2c5b9",
"#q c #e49494",
".E c #e59999",
"#f c #e5f8e5",
"#o c #e8a3a3",
"#p c #e9a7a7",
".k c #eaeaf9",
".d c #eaf9ea",
".M c #ecb2b2",
".Q c #efeffb",
".t c #effbef",
"#j c #f2cbcb",
".w c #f2f2fb",
".3 c #f3d1d1",
"#d c #f4d5d5",
".F c #f4d6d6",
".j c #f4fcf4",
".X c #f5d8d8",
".e c #f9f9fd",
"#m c #f9fdf9",
"#e c #fbf2f2",
"Qt c #ffffff",
"QtQtQtQtQtQtQtQtQtQtQtQtQtQt",
".#QtQtQtQtQtQtQtQt.a.bQtQtQt",
".c.dQtQt.e.f.gQtQt.h.i.j.k.l",
".b.mQtQt.n.o.oQtQt.p.q.r.o.s",
".t.u.v.w.xQt.y.z.A.B.n.C.DQt",
".E.F.p.o.GQtQt.H.I.J.K.t.L.a",
".M.N.O.P.QQtQt.R.S.TQtQt.a.U",
"QtQt.V.i.WQtQt.b.mQt.X.YQtQt",
"QtQt.Z.0.1.2.3.4.5.N.6.7QtQt",
"Qt.8.9Qt#.###a#b#c#d#e#d.NQt",
".s.o.wQt#f#g#h#i#jQtQt#e.6.X",
"#k#lQtQt#m.m#nQtQtQtQtQt#o#p",
".ZQtQtQtQtQt.#QtQtQtQtQtQt#q",
"#rQtQtQtQtQtQtQtQtQtQtQtQtQt"};
