/* XPM */
const char *iqr_mini[]={
"13 12 2 1",
"# c None",
". c #303030",
"..###########",
".############",
"#############",
"..#......#...",
"..#..##..#..#",
"..#..##..#..#",
"..#..##..#..#",
"............#",
"#######..####",
"#######..####",
"#######..####",
"#######..####"};
