/* XPM */
const char *quit[]={
"14 14 10 1",
". c None",
"h c #a63535",
"g c #c00000",
"b c #d0a2a2",
"# c #d0c8c8",
"d c #ff0000",
"c c #ff3030",
"a c #ff5454",
"e c #ff7878",
"f c #ffffff",
".....####.....",
"...##aaaabb...",
"..#accccccdb..",
"..acceddddddb.",
".#ccfeeddfdgbb",
"#acdefddfddghb",
"#acdddffdddghb",
"#acdddffdddghb",
"#acddfddfddghb",
".#cdfddddfggb.",
".#dddddddgghb.",
"..bdgggggghb..",
"...bbhhhhbb...",
".....bbbb....."};
