/* XPM */
const char *run[]={
"13 13 4 1",
". c None",
"b c #008000",
"a c #00c000",
"# c #00ff00",
"..#a.........",
"..#aa........",
"..#aaa.......",
"..#aaaa......",
"..#aaaaa.....",
"..#aaaaaa....",
"..#aaaaaab...",
"..#aaaaab....",
"..#aaaab.....",
"..#aaab......",
"..#aab.......",
"..#ab........",
"..#b........."};
