/* XPM */
const char *trash2[]={
"12 12 4 1",
". c None",
"b c #585858",
"a c #808080",
"# c #a0a0a0",
".....#a.....",
"..########..",
".#aaaaaaaab.",
".#bbbbbbbbb.",
"..#a#a#a#a..",
"..#a#a#a#a..",
"..#a#a#a#a..",
"..#a#a#a#a..",
"..#a#a#a#a..",
"..#a#a#a#a..",
"..#a#a#a#a..",
"...bbbbbb..."};
