/* XPM */
const char *down[]={
"12 12 4 1",
". c None",
"a c #303030",
"b c #585858",
"# c #a0a0a0",
"............",
"............",
"............",
"############",
"abbbbbbbbbba",
".abbbbbbbba.",
"..abbbbbba..",
"...abbbba...",
"....abba....",
".....aa.....",
"............",
"............"};
