/* XPM */
const char *zoomInIcon[]={
"16 13 9 1",
". c None",
"a c #000000",
"c c #585858",
"f c #800000",
"e c #808000",
"# c #a0a0a0",
"b c #c0ffff",
"g c #dcdcdc",
"d c #ffff00",
"................",
"...#####........",
"..##...##.......",
".##..a..##......",
".#...a...#......",
".#.aaaaa.#......",
".#...a...#......",
".#b..a..#cd.....",
"..#b...#ceed....",
"...c#c#c.feed...",
"..........feed..",
"..........gfee..",
"............f..."};
