/* XPM */
static char *default[]={
"32 32 9 1",
". c None",
"f c #000080",
"g c #0000c0",
"e c #0000ff",
"# c #585858",
"b c #808080",
"c c #a0a0a0",
"a c #c3c3c3",
"d c #ffffff",
".#..............................",
"ab#.............................",
".ab#............................",
"..ab#...........................",
"...ab#..........................",
"....ac#.........aaaaa...........",
".....ac#.....aaacccccaaa........",
"......ac#..aaccccdddccccaa......",
".......ac#acccdddddddddcccaa....",
"........accc.ddddddddddddcc.#...",
"........acdddddddddddddddddc#...",
".......accdeeedddddddddeefdcc#..",
".......acddeggfdddddddeggfddc#..",
"......accddegggfdddddegggfdddc#.",
"......acdddeggggfdddeggggfdddc#.",
"......acdddegfeggfgeggfegfdddc#.",
".....accdddegfdegggggfdegfdddcc#",
".....acddddegfddegggfddegfddddc#",
".....acddddegfdddegfdddegfddddc#",
".....acddddegfdddddddddegfddddc#",
".....accdddegfdddddddddegfdddcc#",
"......acdddegfdddddddddegfdddc#.",
"......acdddegfdddddddddegfdddc#.",
"......accddegfdddddddddegfddcc#.",
".......acddegfdddddddddegfddc#..",
".......accdfffdddddddddfffdcc#..",
"........acdddddddddddddddddc#...",
"........acccdddddddddddddccc#...",
".........##cccdddddddddccc##....",
"...........##ccccdddcccc##......",
".............###ccccc###........",
"................#####..........."};
