/* XPM */
const char * InputFromModule_xpm[] = {
"14 13 32 1",
" 	c None",
".	c #343434",
"+	c #373737",
"@	c #414141",
"#	c #383838",
"$	c #3F3F3F",
"%	c #434343",
"&	c #333333",
"*	c #3E3E3E",
"=	c #3C3C3C",
"-	c #363636",
";	c #404040",
">	c #393939",
",	c #3A3A3A",
"'	c #3D3D3D",
")	c #A1A1A1",
"!	c #A0A0A0",
"~	c #4A4A4A",
"{	c #B3B3B3",
"]	c #8F8F8F",
"^	c #ACACAC",
"/	c #A4A4A4",
"(	c #AEAEAE",
"_	c #797979",
":	c #B1B1B1",
"<	c #787878",
"[	c #7D7D7D",
"}	c #979797",
"|	c #A7A7A7",
"1	c #868686",
"2	c #848484",
"3	c #898989",
"       .    +@",
"       .#  $+ ",
"       ++  %& ",
"       &*=  & ",
"       & -; & ",
"       > ,' , ",
"    )!~+    -*",
"   ){{]       ",
" ^/{{(_       ",
" :{{^<        ",
" {{{[         ",
"}{{|1         ",
"23            "};
