/* XPM */
static char*groupview[]={
"32 32 6 1",
"d c #808080",
"# c #a0a0a0",
"a c #000000",
"c c #0000ff",
". c None",
"b c #ff0000",
"................................",
"..........#a#...................",
"....aaa...aaa...aaa.......aaa...",
"...aaaaa..#a#..aaaaa...bbbaaaa..",
"...aaaaa.......aaaaa..bb.aaaaa..",
"...aaaabbbb....aaaaa..b..aaaaa..",
"....aaa...bbbb..aaa...b...aaa...",
".....c.......bbb.....aaa....c...",
".....c.........bbb..aaaaa..cc...",
".....cc...aaa....bbbaaaaaccc....",
"..#a#.cc.aaaaa......aaaaa.......",
"..aaa..ccaaaaa.......aaab.......",
"..#a#....aaaaa.......b..b..dad..",
"..........baa...#a#..b..b..aaa..",
".........bb.....aaa.bb..b..dad..",
"......aaab......#a#bb...b.......",
".....aaaaa.........b..aab.......",
".....aaaaabb.......b.aaaaa......",
".....aaaaa.bbbaa..bb.aaaaa......",
"......aaa...aaaaabb..aaaaa......",
".#a#...c....aaaaa.....aaa.......",
".aaa...c....aaaaa......c........",
".#a#...c.....aaa.......c........",
"......cc.#a#..b.......cc...aaa..",
"......c..aaa..bb...aaac...aaaaa.",
"......c..#a#...b..aaaaa..caaaaa.",
"...aaac........bb.aaaaccccaaaaa.",
"..aaaaa.........b.aaaaa....aba..",
"..aaaaa......#a#bb.aaa......b...",
"..aaaaa......aaa.bb........bb...",
"...aaa.......#a#..bbb....bbb....",
".....................bbbbb......"};
