/* XPM */
const static char *info_small[]={
"8 8 3 1",
". c None",
"# c #303030",
"a c #dcdcdc",
"..####..",
".##..##.",
".....##.",
"....##a.",
"...##...",
"........",
"...##...",
"...##..."};
