/* XPM */
const char *invert[]={
"12 12 5 1",
". c None",
"c c #000000",
"b c #303030",
"a c #585858",
"# c #a0a0a0",
"...####.....",
".##aaaa##...",
"#aa....aa#..",
"#a......a#..",
"a...........",
"a........a..",
"a........aa.",
"a.......aaa.",
"ba......abc.",
"baa....aa...",
".bbaaaabb...",
"...bbbb....."};
