/* XPM */
static char *test[]={
"32 32 87 2",
".# c None",
".e c #303030",
".o c #424242",
".b c #585858",
".n c #6b6b6b",
".h c #6d6d6d",
".j c #707070",
".m c #898989",
"#b c #8e8270",
"#a c #8f8575",
".r c #8f8984",
"## c #91887a",
".V c #91887b",
"#. c #928b7f",
".U c #928b80",
".9 c #938d84",
".T c #948e85",
".H c #948f86",
".8 c #949089",
".S c #95918a",
".G c #95918b",
".F c #97948f",
".E c #989794",
".c c #999999",
".D c #9a9a9a",
".l c #9b9b9b",
"Qt c #a0a0a0",
"#u c #bc9e73",
"#l c #bca178",
"#d c #bca37f",
".6 c #bca685",
".X c #bca88a",
".Q c #bcab90",
".C c #bcae97",
".d c #bcb7b1",
"#t c #bda076",
"#s c #bea57f",
".v c #beb6af",
"#r c #bfaa88",
"#q c #c0af91",
"#p c #c2b39a",
"#o c #c3b8a3",
"#n c #c4bdac",
"#m c #c6c1b6",
".k c #cecece",
".a c #dedede",
".w c #dfdfdf",
".q c #e2e0de",
"#k c #e5cca7",
"#c c #e7d1b0",
".u c #e7e0d9",
"#j c #e9d6b8",
".5 c #e9d6ba",
".g c #eaeaea",
"#i c #ecdabf",
".W c #ecdbc2",
".4 c #ecdcc1",
".P c #ecdfca",
".I c #ece2d4",
"#h c #eedec8",
".3 c #eee0c9",
".B c #eee7dc",
"#g c #f0e4d0",
".2 c #f0e4d2",
".O c #f1e6d4",
"#f c #f2e8d8",
".1 c #f2e9da",
".N c #f3eadc",
".A c #f3ede3",
"#e c #f4ede1",
".t c #f4f0ec",
".0 c #f5eee2",
".M c #f5eee4",
".p c #f6f5f5",
".7 c #f7f1e9",
".Z c #f8f2ea",
".L c #f8f3eb",
".z c #f8f4ed",
".Y c #faf6f2",
".K c #faf8f4",
".y c #fbf8f5",
".s c #fbf9f6",
".R c #fcfcfb",
".i c #fcfcfc",
".J c #fdfdfc",
".x c #fefefe",
".f c #ffffff",
"QtQtQtQtQtQtQtQtQtQtQtQtQtQtQtQtQtQtQtQtQtQt.#.#.#.#.#.#.#.#.#.#",
"Qt.#.#.#.#.#.#.#.#.#.#.#.#.#.#.#.#.#.#.#.#Qt.#.#.#.#.#.#.#.#.#.#",
"Qt.#.#.#.#.#.a.a.#.#.#.#.#.#.#.#.#.#.#.#.#Qt.#.#.#.#.#.#.#.#.#.#",
"Qt.#.#.#.#.b.b.b.b.b.b.b.b.b.c.b.#.#.#.#.#Qt.#.#.#.#.#.#.#.#.#.#",
"Qt.#.#.#.#.b.a.a.a.a.a.d.b.c.b.c.e.#.#.#.#Qt.#.#.#.#.#.#.#.#.#.#",
"Qt.#.#.#.#.b.a.f.f.f.f.g.h.f.c.b.e.#.#.#.#Qt.#.#.#.#.#.#.#.#.#.#",
"Qt.#.#.#.#.b.a.f.f.f.f.i.j.k.f.c.e.#.#.#.#Qt.#.#.#.#.#.#.#.#.#.#",
"Qt.#.#.#.#.b.a.f.l.l.l.f.m.j.n.o.e.#.#.#.#Qt.#.#.#.#.#.#.#.#.#.#",
"Qt.#.#.#.#.b.a.f.f.f.f.f.p.q.d.r.e.#.#.#.#Qt.#.#.#.#.#.#.#.#.#.#",
"Qt.#.#.#.#.b.a.f.l.l.l.l.s.t.u.v.e.#.#.#.#Qt.#.#.#.#.#.#.#.#.#.#",
"Qt.#.#.#.#.b.w.f.f.f.x.y.z.A.B.C.e.#.#.#.#Qt.#.#.#.#.#.#.#.#.#.#",
"Qt.#.#.#.#.b.a.f.l.D.E.F.G.H.I.C.e.#.#.#.#Qt.#.#.#.#.#.#.#.#.#.#",
"Qt.#.#.#.#.b.a.f.J.K.L.M.N.O.P.Q.e.#.#.#.#Qt.#.#.#.#.#.#.#.#.#.#",
"Qt.#.#.#.#.b.a.R.E.F.S.T.U.V.W.X.e.#.#.#.#Qt.#.#.#.#.#.#.#.#.#.#",
"Qt.#.#.#.#.b.a.Y.Z.0.1.2.3.4.5.6.e.#.#.#.#Qt.#.#.#.#.#.#.#.#.#.#",
"Qt.#.#.#.#.b.a.7.8.9#.###a#b#c#d.e.#.#.#.#Qt.#.#.#.#.#.#.#.#.#.#",
"Qt.#.#.#.#.b.a#e#f#g#h#i#j#c#k#l.e.#.#.#.#Qt.#.#.#.#.#.#.#.#.#.#",
"Qt.#.#.#.#.b#m#m#n#o#p#q#r#s#t#u.e.#.#.#.#Qt.#.#.#.#.#.#.#.#.#.#",
"Qt.#.#.#.#.b.e.e.e.e.e.e.e.e.e.e.e.#.#.#.#Qt.#.#.#.#.#.#.#.#.#.#",
"Qt.#.#.#.#.#.#.#.#.#.#.#.#.#.#.#.#.#.#.#.#Qt.#.#.#.#.#.#.#.#.#.#",
"Qt.#.#.#.#.#.#.#.#.#.#.#.#.#.#.#.#.#.#.e.eQt.#.#.#.#.#.#.#.#.#.#",
"QtQtQtQtQtQtQtQtQtQtQtQtQtQtQtQtQtQtQt.e.eQt.#.#.#.#.#.#.#.#.#.#",
".#.#.#.#.#.#.#.#.#.#.#.#.#.#.#.#.#.#.#.#.#.#.#.#.#.#.#.#.#.#.#.#",
".#.#.#.#.#.#.#.#.#.#.#.#.#.#.#.#.#.#.#.e.e.#.e.e.e.e.e.e.#.e.e.e",
".#.#.#.#.#.#.#.#.#.#.#.#.#.#.#.#.#.#.#.e.e.#.e.e.#.#.e.e.#.e.e.#",
".#.#.#.#.#.#.#.#.#.#.#.#.#.#.#.#.#.#.#.e.e.#.e.e.#.#.e.e.#.e.e.#",
".#.#.#.#.#.#.#.#.#.#.#.#.#.#.#.#.#.#.#.e.e.#.e.e.#.#.e.e.#.e.e.#",
".#.#.#.#.#.#.#.#.#.#.#.#.#.#.#.#.#.#.#.e.e.e.e.e.e.e.e.e.e.e.e.#",
".#.#.#.#.#.#.#.#.#.#.#.#.#.#.#.#.#.#.#.#.#.#.#.#.#.#.e.e.#.#.#.#",
".#.#.#.#.#.#.#.#.#.#.#.#.#.#.#.#.#.#.#.#.#.#.#.#.#.#.e.e.#.#.#.#",
".#.#.#.#.#.#.#.#.#.#.#.#.#.#.#.#.#.#.#.#.#.#.#.#.#.#.e.e.#.#.#.#",
".#.#.#.#.#.#.#.#.#.#.#.#.#.#.#.#.#.#.#.#.#.#.#.#.#.#.e.e.#.#.#.#"};
