/* XPM */
const char *paste[]={
"13 14 82 2",
"Qt c None",
".F c #363636",
".J c #3e6993",
"#j c #3e6d90",
"#k c #3e6f93",
"#l c #3f6a94",
"#m c #406d96",
".A c #407188",
".O c #467ba5",
".e c #4782a6",
".Y c #4784a4",
".6 c #487aaa",
".f c #487ea7",
".s c #487faa",
".# c #4881aa",
"#a c #4979ab",
".a c #497fa7",
".V c #4980ab",
"#c c #4a7eae",
".h c #4b7ea2",
".E c #4d4d4d",
".G c #505050",
"#g c #598eb8",
".M c #5b95bb",
".I c #5e94b7",
".5 c #606060",
"#f c #6194bc",
".z c #6291b2",
".b c #66859d",
"#e c #6794bf",
".o c #696d71",
".D c #727272",
"#d c #73a2c1",
".d c #758b99",
".q c #7699b9",
".x c #7b7b7b",
".y c #7d7d7d",
"#b c #85a4c0",
"## c #8fa9be",
".c c #929292",
".k c #9e9e9e",
".7 c #9fb2c0",
".w c #a0a0a0",
"#p c #a3a3a3",
".N c #a5a5a5",
".K c #a7a7a7",
".B c #b1b1b1",
".v c #b2b2b2",
".p c #b3c6d9",
"#i c #b5b5b5",
".3 c #b6c2cd",
"#n c #bbbbbb",
".U c #bdbdbd",
"#o c #bebebe",
".2 c #bfbfbf",
".u c #c0c0c0",
"#. c #c1c1c1",
".T c #c4c4c4",
".r c #c6c6c6",
".n c #cbcbcb",
".g c #cccccc",
".Z c #ced5db",
".9 c #cfcfcf",
".1 c #d3d3d3",
".S c #d5d5d5",
".H c #d8d8d8",
".W c #d9dee3",
".R c #e0e0e0",
".P c #e0e3e6",
".L c #e8eaec",
".X c #ebebeb",
".Q c #ededed",
".0 c #eeeeee",
".8 c #efefef",
".C c #eff0f3",
"#h c #f3f3f3",
".m c #f4f4f4",
".j c #f4f5f7",
".t c #f5f6f7",
".l c #fafafa",
".4 c #fdfdfd",
".i c #ffffff",
"Qt.#.a.b.c.c.c.c.d.e.f.gQt",
".h.i.j.k.i.l.m.n.o.p.q.f.r",
".s.t.i.c.u.v.w.x.y.i.z.A.B",
".f.C.i.u.D.E.F.G.H.i.I.J.K",
".f.L.i.i.i.i.i.i.i.i.M.J.N",
".O.P.i.Q.R.S.T.T.T.T.T.T.U",
".V.W.i.i.i.i.T.i.i.X.i.i.U",
".Y.Z.i.0.R.1.T.i.i.2.i.i.U",
".f.3.i.i.i.i.T.4.i.5.i.i.U",
".6.7.i.8.R.1.U.9.5.i.5#..N",
".6##.i.i.i.i.T.i.i.5.i.i.U",
"#a#b.i.i.i.i.T.i.i.T.i.i.U",
"#c#d#e#f.M#g.T.i.i#h.i.i#i",
"Qt.6#j#k#l#m#n.U.U#o.U.U#p"};
