/* XPM */
const char *process[]={
"10 10 3 1",
". c None",
"a c #303030",
"# c #808080",
"..........",
".########.",
".#......a.",
".#.##...a.",
".#.aa...a.",
".#...##.a.",
".#...aa.a.",
".#......a.",
".aaaaaaaa.",
".........."};
