/* XPM */
const static char *SimControl[]={
"32 32 8 1",
". c None",
"d c #00c000",
"e c #00c0c0",
"c c #585858",
"b c #808080",
"f c #c00000",
"# c #dcdcdc",
"a c #ffffff",
"..............##################",
".aaaaaaaaaaaa.##################",
".abbbbbbbbbbab##################",
".ab.....####ab##################",
".ab.c...#..#ab##################",
".ab.ccccccc#acccccccccccccccc###",
".ab.c...#..#aca#ada#a#a#a#a#c###",
".ab.c...#..#ac#a#d#a#a#a#a#ac###",
".ab.ccccccc#aca#addea#a#a#aec###",
".ab.c..c#..#ac#a#d#eda#a#a#ec###",
".ab.c..c#..#aca#d#eeada#a#eec###",
".ab.c..cccc#ac#d#e#e#adddeddc###",
".ab.c..c#..#acadaeaea#a#aea#c###",
".ab.c..c#..#ac#d#eae#eeeee#ac###",
".ab.c..cccc#acd#e#aee#a#a#a#c###",
".ab.c..c#..#ac#e#a#e#a#a#a#ac###",
".ab.c..c#..#ace#a#a#a#a#a#a#c###",
".ab.c..c#..#ac#a#a#a#a#a#a#ac###",
".ab.c..cccc#acccccccccccccccc###",
".ab.c...#..#ab##################",
".ab.c...#..#ab##################",
".ab.ccccccc#ab##################",
".ab.c...#..#ab##################",
".ab######ccccccccccccc##########",
".ab######ca#a#a#a#a#ac##########",
".aaaaaaaacdd#a#afa#a#c##########",
"..bbbbbbbca#d#aff#a#dc##########",
".........c#a#dfa#fdd#c##########",
".........ca#afd#dfa#ac##########",
".........cfffa#d#afa#c##########",
".........ca#a#a#a#fffc##########",
".........ccccccccccccc##########"};
