/* XPM */
static char*timeplot[]={
"32 32 8 1",
"e c #000080",
"a c #ffc0c0",
"c c #c0c0ff",
"f c #800000",
"d c #0000ff",
". c None",
"b c #c00000",
"# c #ff0000",
"................................",
"................................",
".........................#......",
"..........#.............a#......",
".........a#b............a#b.....",
".........a#b............a#b.....",
".........a#b...........a##b.....",
".........a##b..........a##bb....",
".........a##b..........a###b....",
".........###b..........a###b....",
".........###b..........a#b#b....",
"........a#b#b..........a#b#b....",
"........a#b#b..........a#b#b....",
"........a#a#b..........a#b#b....",
"........##a#b..........a#a#b....",
"........##a#b..........a#a#b....",
".......a#ba#b..........a#a#b....",
".......a#ba#b.........a##a#b....",
".......a#ba#b.........a##a#b....",
"....ccc##.a#b.........a#cc#b....",
"..ccddd#cca#b.........a#dd#cc...",
".cdddea#ddc#b........cd#be#ddc..",
".dde.a##bdd#cc....aacdd#ba##ddc.",
"....a##b.ea#ddccca#####b..a#bdd.",
".aaa##b...a#bdddd#dddeb...a#bed.",
".####b....a#bea##eee......a##...",
".bbbb.....a#b.##f..........a#b..",
"..........a##a#f...........a##..",
"...........a###..............b..",
"...........a##..................",
"................................",
"................................"};
