/* XPM */
static char*corrplot[]={
"32 32 5 1",
"c c #808080",
"# c #303030",
". c None",
"b c #585858",
"a c #dcdcdc",
"................................",
"...............#................",
"..............a#................",
"..............a#................",
".............a###...............",
".............a#b#...............",
".............a#b#b..............",
".............a#b#b..............",
".............a#b#b..............",
".............a#b#b..............",
".............a#b#b..............",
".............a#b#b..............",
"............a##b##..............",
"............a#b..#b.............",
".aaa..aaa..aaab.aaa..aaa..aaa...",
".ccc..ccc..cccb.ccc..ccc..ccc#..",
".bbb..bbb..bbbb.bbbb.bbb.abbb##.",
".a##b......a##b...#b....a##b....",
"..a##......a#b....#b....a#b.....",
"...a#b.....a#b....##b.aa##b.....",
"...a#bb..aa##b.....#ba###b......",
"....a##ba###b......####bb.......",
".....a####bb........##b.........",
".......ccc......................",
"................................",
"................................",
"................................",
"................................",
"................................",
"................................",
"................................",
"................................"};
