/* XPM */
const char *group[]={
"10 10 6 1",
". c None",
"c c #0000ff",
"a c #00c000",
"d c #303030",
"# c #808080",
"b c #ff0000",
"..........",
".########.",
".#aabbccd.",
".#aabbccd.",
".#bbccaad.",
".#bbccaad.",
".#aaccbbd.",
".#aaccbbd.",
".dddddddd.",
".........."};
