/* XPM */
const char *iconSplitHorizontalSmall[]={
"10 10 2 1",
". c #585858",
"# c #ffffff",
"..........",
".########.",
".########.",
".########.",
"..........",
"..........",
".########.",
".########.",
".########.",
".........."};
