/* XPM */
const char *iconCloseSmall[]={
"16 13 4 1",
". c None",
"a c #585858",
"# c #808080",
"b c #ffffff",
"................",
"................",
"....#a.....b#...",
"....b#a...b#a...",
".....b#a.b#a....",
"......b#b#a.....",
".......b#a......",
"......b#a#a.....",
".....b#a.b#a....",
"....b#a...b#a...",
"....#a.....b#...",
"................",
"................"};
