/* XPM */
const char * run_disabled[] = {
"20 22 6 1",
" 	c None",
".	c #FFFFFF",
"+	c #BFBFBF",
"@	c #ABABAB",
"#	c #7F7F7F",
"$	c #95A895",
"                    ",
"                    ",
"                    ",
"      .             ",
"      +.            ",
"      @+.           ",
"      #$+.          ",
"      $#$+.         ",
"      #$#$+.        ",
"      $#$#$+.       ",
"      #$#$#$+.      ",
"      $#$#$#+#      ",
"      #$#$#+#       ",
"      $#$#+# @      ",
"      #$#+# @       ",
"      $#+# @        ",
"      #+# @         ",
"      +# @          ",
"      # @           ",
"       @            ",
"      @             ",
"                    "};
