/* XPM */
const char*start[]={
"32 32 45 1",
"a c #fefec4",
"# c #424204",
"q c #fefe2c",
"O c #faf684",
"I c #aa9e6c",
"K c #fefe8c",
"A c #5a5214",
"j c #51461c",
"E c #8a7a4c",
"t c #fefe54",
"i c #c3c3c3",
"M c #faf674",
"y c #665a44",
"u c #e2de4c",
"w c #fefe44",
"z c #ded66c",
"P c #daca74",
"L c #fefab4",
"m c #404000",
"b c #bab604",
"p c #fefe34",
"h c #ceca04",
"e c #fefe94",
"d c #fefef4",
"J c #fefe5c",
"D c #eae66c",
"l c #624e2c",
"H c #fefebc",
"o c #fefe24",
"G c #fefe84",
"Q c #cec664",
"F c #fefe4c",
"n c #fefe14",
"B c #d6d6d4",
". c None",
"s c #fefe3c",
"f c #fefe04",
"r c #faf65c",
"g c #cacacc",
"c c #fefefc",
"N c #7a721c",
"v c #fefe64",
"C c #9e8654",
"k c #5e4e34",
"x c #5e563c",
"..................###...........",
".................#aab##.........",
"................#cdaefb#........",
"............g..#cdaefb#.........",
"..............#cdaefb#..........",
".............#cdaefb#...........",
"............#cdaefh#........i...",
"...........#cdaefh#.............",
"..........#cdaefh#..............",
".........#cdaeff####jklm.i......",
"........#cdaffffnoppqqrrmi......",
".......#caafffffoqqqsttum.......",
".......#aavfffffpwstttum........",
".......####jxxydaaettzm.........",
".............Acdaettzm..........",
"...........BAcdaettzm...........",
"...........AcdaeptzCm...........",
"..........#cdaessDEmmmm.........",
".........#cdaeopFFvGeHIm........",
"........#caaeoooFtFJKLIm.i......",
".......#aaaeoffftJFFMIm..i......",
"........#######NaeJOPm..........",
"...............#aaOQm..i........",
"..............#cafhN............",
".............#cafh#.............",
"............#cafb#..............",
"............#aeb#...............",
"...........#ceb#................",
"...........#ab#.................",
"..........#cb#.......i..........",
"...........##...................",
"................................"};
