/* XPM */
static char *zoom[]={
"64 64 10 1",
". c None",
"e c #585858",
"h c #808000",
"# c #808080",
"a c #a8dcff",
"c c #c0ffff",
"b c #c3c3c3",
"f c #dcdcdc",
"g c #ffff00",
"d c #ffffff",
".....##a###########bbbbbbbbbbb##################################",
"....#..a.#........bb#.#.#cc##bbbbb..............................",
".......a..#.....bbb.#c#ccddccccc#bbbb...........................",
".......a...#..bbb.#cccddddcdddddcd#.bb..........................",
".......a....bbb.#ccddddccdddccdcdccc#.bb........................",
".......a....b##cccddddcdddcddccddddcdc#b........................",
".......a...bb.##cdddccdddcdccdddcddddccbb.......................",
".......a..bb##cdddcdcddddccccccccddcddc#.bb.....................",
".......a..b..ccdddddcddccdcccccccccdcccc.#b.....................",
".......a.bb##cddddddcccdccccccccccccdccccc.e....................",
".......a.b..cdddddcddddcccccccccccccdccccc#ee...................",
".......a.b##cddcdccccccccccccccccccccccccc..e...................",
".......abb.cdddcdcdccccccccccccccccccccccc.#ee..................",
".......ab##ccdcdccdccccccccccccccccccccccccc.e..................",
".......bbccccddddcccccccccccccccccccccccccc##e..................",
".......b##ccddddcdccccccccccccccccccccccccccc.e.................",
".......b.cccdddddccccccccccccccccccccccccccc##ef................",
".......b##ccddddccccccccccccccccccccccccccccc.ef................",
".......b.ccdddddccccccccccccccccccccccccccccc.ef................",
".......b##cdcddccccccccccccccccccccccccccccc##e.................",
".......b.ccccddcdccccccccccccccccccccccccccc##e.................",
".......b##ccdddccccccccccccccccccccccccccccc..e.................",
".......b..ccddccdccccccccccccccccccccccccccc##e.................",
".......b.##cdcdcdccccccccccccccccccccccccccc..e.................",
".......bbbccccddddccccccccccccccccccccccccc##e..................",
".......bb##.cccdcccccccccccccccccccccccccccc.e..................",
".......ab...cccdcccccccccccccccccccccccccc##e...................",
".......a.b##cccdddccccccccccccccccccccccccc.e...................",
".......a.bb.ccccdddcccccccccccccccccccccc##e....................",
".......a.bbb#cccccdccccccccccccccccccccccce.....................",
".......a.bbb.c#ccccccccccccccccccccccccc##......................",
".......a....e#.ccccccccccccccccccccccc###bb#....................",
".......a.....e.#....ccccccccccccccccccc#bb#g#...................",
".......a......e#.#ccccccccccccccccccc##b###hg#..................",
".......a........e#.#ccccccccccccccc#..bb###hhg#.................",
".......a..........e#.#ccccccccc#c#.#ee####hhhhg#................",
".......a............e#.#cee#c#.#.#ee...#hhhhhhhg#...............",
".......a..............eeeeeeeeeeee......#hhhhhhhg#..............",
".......a.................................#hhhhhhhg#.............",
".......a..................................#hhhhhhhg#............",
".......a...................................#hhhhhhhg#...........",
".......a....................................#hhhhhhhg#..........",
".......a.....................................#hhhhhhhg#.........",
".......a......................................#hhhhhhhg#........",
".......a.......................................#hhhhhhhg#.......",
".......a........................................#hhhhhhhg#......",
".......a.........................................#hhhhhhhg#.....",
".......a..........................................#hhhhhhhg#....",
".......a...........................................#hhhhhhhg#...",
".......a............................................#hhhhhhhg#..",
".......a.............................................#hhhhhhhg#.",
".......#..............................................#hhhhhhh#f",
".......#...............................................#hhhhh##.",
"......#.................................................#hhhh#..",
".........................................................#h##.ff",
"..........................................................###fff",
"...........................................................#ff..",
"............................................................fff.",
".............................................................ff.",
"................................................................",
"................................................................",
"................................................................",
"................................................................",
"................................................................"};
