/* Created with The GIMP */
#define eraser_cursor_width 32
#define eraser_cursor_height 32
static unsigned char eraser_cursor_bits[] = {
   0x00, 0x00, 0x00, 0x00, 0x02, 0x00, 0x00, 0x00, 0x06, 0x00, 0x00, 0x00,
   0x0e, 0x00, 0x00, 0x00, 0x1e, 0x00, 0x00, 0x00, 0x3e, 0x00, 0x00, 0x00,
   0x7e, 0x00, 0x00, 0x00, 0xfe, 0x00, 0x00, 0x00, 0xfe, 0x01, 0x00, 0x00,
   0xfe, 0x03, 0x00, 0x00, 0x7e, 0x00, 0x00, 0x00, 0x1e, 0x00, 0x00, 0x00,
   0x06, 0x00, 0x00, 0x00, 0x02, 0x00, 0x00, 0x00, 0x00, 0x00, 0x00, 0x00,
   0x00, 0x00, 0x00, 0x00, 0x00, 0x00, 0x00, 0x00, 0x00, 0x00, 0x00, 0x04,
   0x00, 0x00, 0x00, 0x0a, 0x00, 0x00, 0x00, 0x11, 0x00, 0x00, 0x80, 0x20,
   0x00, 0x00, 0x40, 0x60, 0x00, 0x00, 0x20, 0x30, 0x00, 0x00, 0x10, 0x18,
   0x00, 0x00, 0x28, 0x0c, 0x00, 0x00, 0x44, 0x06, 0x00, 0x00, 0x82, 0x03,
   0x00, 0x00, 0x84, 0x01, 0x00, 0x00, 0xc8, 0x00, 0x00, 0x00, 0x70, 0x00,
   0x00, 0x00, 0xe0, 0x0f, 0x00, 0x00, 0x00, 0x00 };
