/* XPM */
static char * g5_xpm[] = {
"32 22 150 2",
"  	c None",
". 	c #FFFFFF",
"+ 	c #101010",
"@ 	c #181818",
"# 	c #292929",
"$ 	c #6B6363",
"% 	c #635A5A",
"& 	c #4A4242",
"* 	c #423939",
"= 	c #393131",
"- 	c #211818",
"; 	c #312121",
"> 	c #7B5A52",
", 	c #523931",
"' 	c #4A3129",
") 	c #392118",
"! 	c #AD9C94",
"~ 	c #7B5A4A",
"{ 	c #BDADA5",
"] 	c #6B4A39",
"^ 	c #D6C6BD",
"/ 	c #8C7363",
"( 	c #735A4A",
"_ 	c #6B5242",
": 	c #523929",
"< 	c #7B5239",
"[ 	c #4A3121",
"} 	c #634A39",
"| 	c #5A4231",
"1 	c #7B5A42",
"2 	c #422918",
"3 	c #392110",
"4 	c #84634A",
"5 	c #AD5A18",
"6 	c #7B5231",
"7 	c #734218",
"8 	c #844A18",
"9 	c #C66B21",
"0 	c #945218",
"a 	c #A55A18",
"b 	c #A59C94",
"c 	c #847B73",
"d 	c #735A42",
"e 	c #4A3929",
"f 	c #423121",
"g 	c #BD7331",
"h 	c #D67B29",
"i 	c #CE7321",
"j 	c #B56318",
"k 	c #B5ADA5",
"l 	c #9C948C",
"m 	c #948C84",
"n 	c #736B63",
"o 	c #A58463",
"p 	c #9C7B5A",
"q 	c #7B5A39",
"r 	c #392918",
"s 	c #845A31",
"t 	c #634221",
"u 	c #734A21",
"v 	c #5A3918",
"w 	c #9C6329",
"x 	c #C67B31",
"y 	c #6B4218",
"z 	c #945A21",
"A 	c #FF9C39",
"B 	c #E78C31",
"C 	c #A56321",
"D 	c #8C5218",
"E 	c #C67321",
"F 	c #ADA59C",
"G 	c #8C847B",
"H 	c #FFAD52",
"I 	c #DE9442",
"J 	c #AD7331",
"K 	c #EF9C42",
"L 	c #D68C39",
"M 	c #FFA542",
"N 	c #A56B29",
"O 	c #CE8431",
"P 	c #B57329",
"Q 	c #845218",
"R 	c #6B4A21",
"S 	c #FFAD4A",
"T 	c #CE8C39",
"U 	c #7B5221",
"V 	c #634218",
"W 	c #7B6342",
"X 	c #634A29",
"Y 	c #B58442",
"Z 	c #946B31",
"` 	c #CE9442",
" .	c #FFB552",
"..	c #A57331",
"+.	c #DE9C42",
"@.	c #F7AD4A",
"#.	c #523918",
"$.	c #EFA542",
"%.	c #D69439",
"&.	c #9C6B29",
"*.	c #423118",
"=.	c #EFAD4A",
"-.	c #C68C39",
";.	c #CE8C29",
">.	c #9C8C73",
",.	c #A57B39",
"'.	c #EFB552",
").	c #C69442",
"!.	c #E7AD4A",
"~.	c #FFBD52",
"{.	c #9C7331",
"].	c #B58431",
"^.	c #C6BDAD",
"/.	c #B58C42",
"(.	c #8C6B31",
"_.	c #F7BD52",
":.	c #846329",
"<.	c #5A4218",
"[.	c #F7B542",
"}.	c #FFC652",
"|.	c #D6A542",
"1.	c #D6CEBD",
"2.	c #CEC6B5",
"3.	c #8C7339",
"4.	c #FFCE5A",
"5.	c #F7C652",
"6.	c #DEB552",
"7.	c #D6AD4A",
"8.	c #AD8C39",
"9.	c #FFD663",
"0.	c #EFC652",
"a.	c #F7D663",
"b.	c #BDA54A",
"c.	c #FFDE63",
"d.	c #F7D65A",
"e.	c #CEB552",
"f.	c #FFDE52",
"g.	c #E7CE5A",
"h.	c #DEC652",
"i.	c #FFE763",
"j.	c #DECE5A",
"k.	c #E7D65A",
"l.	c #FFEF6B",
"m.	c #FFF76B",
"n.	c #52524A",
"o.	c #424239",
"p.	c #393931",
"q.	c #313129",
"r.	c #FFFF73",
"s.	c #EFEF6B",
"] : : : : : : , , | | | , | | , , , | | | | | | | | | , : : | } ",
"} 8 a a a a a 7 0 a a 0 0 a 8 [ q.= } Z e U N u Q z R :.N e ; e ",
"} z 9 9 E E j 8 5 5 5 5 a D ; - f - u -.z 0 0 8 8 8 8 8 0 8 7 e ",
"} ).'._._.~.].8 5 j j j 5 0 7 *.].:.Q C 8 8 8 0 a a a 0 D 8 v e ",
"| )._.~.4.0.U C E x j P +.J J r ).6.,.z 7 v N O O O L P 7 8 v e ",
"] ).=.'.5.{...{.6 /.9.6.7.8.0./.e.8./.t - @ (.m.m.m.r.e.- - - e ",
"] -.}.'.{.(.8.r - ; 6.7.6.5.5.e./.,.; - - - (.l.l.l.r.e.; - - e ",
"] ].-.:.&.8.r - - t +.!.'._.6./.3.n.c % f 6 7.h.h.g.k.6.y r - e ",
"] t U &.:.e n $ ( ).!.!._.'./.7.% ^.1.^.b.b.7.g.a.i.s.a.7.z 2 e ",
"} s $.,.= n b / 6.!.|.@.!.|.7.0.m c { 6.).k.l.l.i.c.l.l.l.).y e ",
"] Z ~.` l F >.|.+.` :.K !./.a.9.a.j.7.).d.c.c.l.c.5.i.l.c.` 8 e ",
"] (.S @.b.e.|.+.).T x L |.|.4.4.4.4.).g.c._.4.i.i.i.l.l.0.` 8 e ",
"} (.@.K +.T +.J | (.} s ` !.4.4.9.!.|.9.c.9.9.c.c.c.i.i.i.].8 e ",
"] (.T T %.Z ..J | * &.-.-._.4.4.4.T '.5.4.9.c.c.c.c.c.i.i.J 7 e ",
"} Z Z Z ..t | < n.n...%.-._.7.6._.J 5._.5.9.9.9.9.9.c.c.c...7 e ",
"| u t , s | * c b & * /.].Y * & ,.&.5.4.4.4.4.9.9.9.9.9.9.J 7 e ",
"| e p.* & l m F F n.Z T -.b.n & X w 5.4.}.4.4.4.4.4.4.9.9.].7 e ",
"] p.& n G b b b l n.Z ].-.b.{ $ | z '.'._.4.4.4.4.4.4.4.4.N 7 e ",
"] p.n.m m l l l m & o.q ` ` k $ o.u |._.'.4.4.4.4.4.4.4.4.N 7 e ",
"} p.n.m m m m l m n _ w %.` ! n o.t &._.}.}.~.4.4.}.4.4._.J y e ",
"} e = p.p.p.p.p.p.* | :.]...(.o.p.e u Y |.).` ` |.|.|.|.Y J V e ",
"d < < < < _ _ _ _ ( 1 _ _ d ( ( ( ( ( ~ ~ ~ 1 1 d d < < < < ] ] "};
