/* XPM */
static char * g9_xpm[] = {
"32 22 150 2",
"  	c None",
". 	c #FFFFFF",
"+ 	c #101010",
"@ 	c #181818",
"# 	c #292929",
"$ 	c #6B6363",
"% 	c #635A5A",
"& 	c #4A4242",
"* 	c #423939",
"= 	c #393131",
"- 	c #211818",
"; 	c #312121",
"> 	c #7B5A52",
", 	c #523931",
"' 	c #4A3129",
") 	c #392118",
"! 	c #AD9C94",
"~ 	c #7B5A4A",
"{ 	c #BDADA5",
"] 	c #6B4A39",
"^ 	c #D6C6BD",
"/ 	c #8C7363",
"( 	c #735A4A",
"_ 	c #6B5242",
": 	c #523929",
"< 	c #7B5239",
"[ 	c #4A3121",
"} 	c #634A39",
"| 	c #5A4231",
"1 	c #7B5A42",
"2 	c #422918",
"3 	c #392110",
"4 	c #84634A",
"5 	c #AD5A18",
"6 	c #7B5231",
"7 	c #734218",
"8 	c #844A18",
"9 	c #C66B21",
"0 	c #945218",
"a 	c #A55A18",
"b 	c #A59C94",
"c 	c #847B73",
"d 	c #735A42",
"e 	c #4A3929",
"f 	c #423121",
"g 	c #BD7331",
"h 	c #D67B29",
"i 	c #CE7321",
"j 	c #B56318",
"k 	c #B5ADA5",
"l 	c #9C948C",
"m 	c #948C84",
"n 	c #736B63",
"o 	c #A58463",
"p 	c #9C7B5A",
"q 	c #7B5A39",
"r 	c #392918",
"s 	c #845A31",
"t 	c #634221",
"u 	c #734A21",
"v 	c #5A3918",
"w 	c #9C6329",
"x 	c #C67B31",
"y 	c #6B4218",
"z 	c #945A21",
"A 	c #FF9C39",
"B 	c #E78C31",
"C 	c #A56321",
"D 	c #8C5218",
"E 	c #C67321",
"F 	c #ADA59C",
"G 	c #8C847B",
"H 	c #FFAD52",
"I 	c #DE9442",
"J 	c #AD7331",
"K 	c #EF9C42",
"L 	c #D68C39",
"M 	c #FFA542",
"N 	c #A56B29",
"O 	c #CE8431",
"P 	c #B57329",
"Q 	c #845218",
"R 	c #6B4A21",
"S 	c #FFAD4A",
"T 	c #CE8C39",
"U 	c #7B5221",
"V 	c #634218",
"W 	c #7B6342",
"X 	c #634A29",
"Y 	c #B58442",
"Z 	c #946B31",
"` 	c #CE9442",
" .	c #FFB552",
"..	c #A57331",
"+.	c #DE9C42",
"@.	c #F7AD4A",
"#.	c #523918",
"$.	c #EFA542",
"%.	c #D69439",
"&.	c #9C6B29",
"*.	c #423118",
"=.	c #EFAD4A",
"-.	c #C68C39",
";.	c #CE8C29",
">.	c #9C8C73",
",.	c #A57B39",
"'.	c #EFB552",
").	c #C69442",
"!.	c #E7AD4A",
"~.	c #FFBD52",
"{.	c #9C7331",
"].	c #B58431",
"^.	c #C6BDAD",
"/.	c #B58C42",
"(.	c #8C6B31",
"_.	c #F7BD52",
":.	c #846329",
"<.	c #5A4218",
"[.	c #F7B542",
"}.	c #FFC652",
"|.	c #D6A542",
"1.	c #D6CEBD",
"2.	c #CEC6B5",
"3.	c #8C7339",
"4.	c #FFCE5A",
"5.	c #F7C652",
"6.	c #DEB552",
"7.	c #D6AD4A",
"8.	c #AD8C39",
"9.	c #FFD663",
"0.	c #EFC652",
"a.	c #F7D663",
"b.	c #BDA54A",
"c.	c #FFDE63",
"d.	c #F7D65A",
"e.	c #CEB552",
"f.	c #FFDE52",
"g.	c #E7CE5A",
"h.	c #DEC652",
"i.	c #FFE763",
"j.	c #DECE5A",
"k.	c #E7D65A",
"l.	c #FFEF6B",
"m.	c #FFF76B",
"n.	c #52524A",
"o.	c #424239",
"p.	c #393931",
"q.	c #313129",
"r.	c #FFFF73",
"s.	c #EFEF6B",
"} : : : : : , , , | | , , | | , , , , | | | | | | | | , : : | } ",
"} D a a a a a 7 0 7 v D a a 8 [ q.= } {., s N R U z R :.J e ; e ",
"} C 9 E h E C 8 7 - - v 5 D ; - f - U -.z z D 8 8 8 8 8 0 8 7 e ",
"} )._.@.=._.].D V @ @ V 5 0 7 *.x :.Q a 8 8 7 7 7 7 8 8 7 7 V ' ",
"} ).}.4.4.0.U z 2 @ - z ` J J r ` 6.].w 7 #.r - @ @ *.C a a v e ",
"| )._.4.5.{.,.:.- - f 7.7.8.5./.e.8.g.(.@ @ - @ @ @ v 7.a a v e ",
"] Y  .0.{.(.).; - - ,.|.6.5.5.e.).i.i.q - - - f : X b.7.0 0 v : ",
"] ].-.:..._.|., = X 7.!.'._.6./.a.i.i.j.q q /.b.7.6.g.7.z 0 v [ ",
"] X U J _.4.5.b./ 7.!.!.[.'./.g.i.i.i.i.k.7.e.g.a.i.s.a.6.N y ' ",
"} } `  .~.~.}.~._.!.|.@.!.|.7.9.9.i.i.h.).d.l.i.i.i.l.i.l.).y e ",
"} o.W @. . .~.=.|.` z K !./.7.3.'.4.0.).d.i.l.d.g.i.l.d.i.P 7 e ",
"} , } K  . .+.|.).T ].L |.).X q.| 0.).d.d.d.i.i.i.l.l.a.c.J 7 e ",
"] } Y K +.T +...: (.| s )./.& o.e ` |.9.5.5.c.c.i.i.i.l.l.].7 e ",
"] :.-.T T Z ..J : * &.-.-.b.l ! q -.'.9.9.9.c.c.c.c.c.i.i.J 7 e ",
"} Z &.Z ..t | < n.n...%.-.! 2.l s J 5.5.4.9.9.9.9.9.c.c.c.J 7 e ",
"| u t , s | * c b & * /.-.! ^.n 6 &._.'.}.4.4.9.9.9.9.9.9.J 7 e ",
"} e p.* & l m k b n.Z T -.! ^.$ X w 5.}.4.4.4.4.4.4.9.9.9.g 7 e ",
"} p.& n G b b b b n.Z ].-.7.{ n Z z '.4.}.4.4.4.4.4.4.4.4.N 7 e ",
"] = n.m l l l l m & o.q ` !.6.7.!.D ` }._._.4.4.4.4.4.4.4.J 7 e ",
"] p.n.m m m m l m n } w %.+.~.~.~.C &._.=.}.4.4.4.4.4.4.}.].7 e ",
"] e ' , * p.p.p.* * | :.Y ..-./.` ..U ].|.|.` ).|.|.|.|.|.:.V e ",
"d < < < < _ _ _ _ ( 1 _ _ d ( ( ( ( ( ~ ~ ~ 1 1 d d < < _ _ ] ] "};
