/* XPM */
static char * g10_xpm[] = {
"32 22 150 2",
"  	c None",
". 	c #FFFFFF",
"+ 	c #101010",
"@ 	c #181818",
"# 	c #292929",
"$ 	c #6B6363",
"% 	c #635A5A",
"& 	c #4A4242",
"* 	c #423939",
"= 	c #393131",
"- 	c #211818",
"; 	c #312121",
"> 	c #7B5A52",
", 	c #523931",
"' 	c #4A3129",
") 	c #392118",
"! 	c #AD9C94",
"~ 	c #7B5A4A",
"{ 	c #BDADA5",
"] 	c #6B4A39",
"^ 	c #D6C6BD",
"/ 	c #8C7363",
"( 	c #735A4A",
"_ 	c #6B5242",
": 	c #523929",
"< 	c #7B5239",
"[ 	c #4A3121",
"} 	c #634A39",
"| 	c #5A4231",
"1 	c #7B5A42",
"2 	c #422918",
"3 	c #392110",
"4 	c #84634A",
"5 	c #AD5A18",
"6 	c #7B5231",
"7 	c #734218",
"8 	c #844A18",
"9 	c #C66B21",
"0 	c #945218",
"a 	c #A55A18",
"b 	c #A59C94",
"c 	c #847B73",
"d 	c #735A42",
"e 	c #4A3929",
"f 	c #423121",
"g 	c #BD7331",
"h 	c #D67B29",
"i 	c #CE7321",
"j 	c #B56318",
"k 	c #B5ADA5",
"l 	c #9C948C",
"m 	c #948C84",
"n 	c #736B63",
"o 	c #A58463",
"p 	c #9C7B5A",
"q 	c #7B5A39",
"r 	c #392918",
"s 	c #845A31",
"t 	c #634221",
"u 	c #734A21",
"v 	c #5A3918",
"w 	c #9C6329",
"x 	c #C67B31",
"y 	c #6B4218",
"z 	c #945A21",
"A 	c #FF9C39",
"B 	c #E78C31",
"C 	c #A56321",
"D 	c #8C5218",
"E 	c #C67321",
"F 	c #ADA59C",
"G 	c #8C847B",
"H 	c #FFAD52",
"I 	c #DE9442",
"J 	c #AD7331",
"K 	c #EF9C42",
"L 	c #D68C39",
"M 	c #FFA542",
"N 	c #A56B29",
"O 	c #CE8431",
"P 	c #B57329",
"Q 	c #845218",
"R 	c #6B4A21",
"S 	c #FFAD4A",
"T 	c #CE8C39",
"U 	c #7B5221",
"V 	c #634218",
"W 	c #7B6342",
"X 	c #634A29",
"Y 	c #B58442",
"Z 	c #946B31",
"` 	c #CE9442",
" .	c #FFB552",
"..	c #A57331",
"+.	c #DE9C42",
"@.	c #F7AD4A",
"#.	c #523918",
"$.	c #EFA542",
"%.	c #D69439",
"&.	c #9C6B29",
"*.	c #423118",
"=.	c #EFAD4A",
"-.	c #C68C39",
";.	c #CE8C29",
">.	c #9C8C73",
",.	c #A57B39",
"'.	c #EFB552",
").	c #C69442",
"!.	c #E7AD4A",
"~.	c #FFBD52",
"{.	c #9C7331",
"].	c #B58431",
"^.	c #C6BDAD",
"/.	c #B58C42",
"(.	c #8C6B31",
"_.	c #F7BD52",
":.	c #846329",
"<.	c #5A4218",
"[.	c #F7B542",
"}.	c #FFC652",
"|.	c #D6A542",
"1.	c #D6CEBD",
"2.	c #CEC6B5",
"3.	c #8C7339",
"4.	c #FFCE5A",
"5.	c #F7C652",
"6.	c #DEB552",
"7.	c #D6AD4A",
"8.	c #AD8C39",
"9.	c #FFD663",
"0.	c #EFC652",
"a.	c #F7D663",
"b.	c #BDA54A",
"c.	c #FFDE63",
"d.	c #F7D65A",
"e.	c #CEB552",
"f.	c #FFDE52",
"g.	c #E7CE5A",
"h.	c #DEC652",
"i.	c #FFE763",
"j.	c #DECE5A",
"k.	c #E7D65A",
"l.	c #FFEF6B",
"m.	c #FFF76B",
"n.	c #52524A",
"o.	c #424239",
"p.	c #393931",
"q.	c #313129",
"r.	c #FFFF73",
"s.	c #EFEF6B",
"X : : : : : , , , | | , , | | , | , , | | | | | , | | , : : : } ",
"} 8 a a a a a 7 7 ; ; [ a 0 t f q.p.* | ].(.X C z t a z t J :.e ",
"} z 9 E E E C 8 8 - - [ a a a [ - {.Z v J C 8 8 8 8 8 8 D C D e ",
"} ).'._._._.].D y - @ y 5 8 v v - {.].z 8 8 8 7 7 7 7 7 8 7 V e ",
"} ).}.}.4.0.:.z r @ @ z ` /.{.!.8.b.].&.Q #.r - @ @ - *.a 0 v e ",
"| -.=._.5.{.,.(.; - [ 7.h.d.7.6.e./.k.i.X @ - @ @ @ @ 2 a a V e ",
"} -.~.'.{.(._.6 - - ,.|.|.0.|.e./.c.l.l.8.- - f : | e &.a 0 v : ",
"] ].-.:..._.4.7.X 6 7.!.'.5.6./.c.i.i.l.i././.b.7.6.e.7.z 0 v [ ",
"] t U P _.}.4.4.0.'.!.+. .'./.g.c.i.l.l.d.7.e.g.a.i.s.a.e.N v e ",
"] | X ` S ~.~.4._.!.` K =.|.b./.b.5.9.h.).k.l.l.c.i.l.l.l.` 7 e ",
"] , p.X $.~.~.=.+.+.+.` !./.,.# q./.0.).d.c.i.i.0.a.l.a.c.].8 e ",
"] , * | $.S +.+.).| ,.&.|.-.| q.# ,.-.0.c.0.9.i.i.l.l.c.0.J 8 e ",
"] | {.T ` T T ].-.6 J %.` b.l G _ ` |.9.c.5.c.c.i.i.l.l.i.].8 e ",
"] s -.-.-.-.:.| s , | Y -.b.b ^.p ` '.9.9.9.c.c.c.c.i.i.i.J 7 e ",
"} s ].N X ..s p.& & } /.-.! ^.l s J _._.}.9.9.9.9.c.c.c.c...7 e ",
"| * :.:.e , $ c b > O +.].! ^.n s &.5._.}.4.4.9.9.9.9.9.c.J 7 e ",
"] p.p.n.% % b k b & 6 -.-.e.{ n J &.5.4.4.4.4.4.4.4.9.9.9.].7 e ",
"] p.* c l l b b G p.| J T '.6.'.!.z '.5._.4.4.4.4.4.4.4.4.N 7 e ",
"] p.n.m m l l l l c &.x %.!.}.}.=.D ` '._.4.4.4.4.4.4.4.4.N 7 e ",
"] p.n.m m m m l m % | 6 %.%. .~.~.C &._.~.}.}.4.4.4.4.4.5.].7 e ",
"} e ' e e e p.p.p.= = ' ,.J T ).).{.U Y |.|.).` |.|.|.|.` ,.V e ",
"d < < < < _ _ _ _ ( 1 _ _ _ d ( ( ( d 1 ~ 1 1 1 d 1 < < < < ] ] "};
