/* XPM */
const char *APIcon[]={
"8 8 3 1",
"a c #c0c000",
". c #ffff00",
"# c #ffffc0",
".#.#.#.a",
"#......a",
".......a",
"#......a",
".......a",
"#......a",
".......a",
"aaaaaaaa"};
