/* XPM */
static char *dial[]={
"21 21 23 1",
". c None",
"a c #000000",
"b c #400000",
"d c #573737",
"e c #600000",
"u c #673737",
"# c #6e6e6e",
"t c #7f7f7f",
"c c #800000",
"h c #900000",
"s c #9f3f3f",
"g c #a00000",
"l c #af0000",
"m c #bf0000",
"q c #bf3f3f",
"r c #bf7f7f",
"f c #c00000",
"i c #df0000",
"k c #ef0000",
"j c #ff0000",
"n c #ff7f7f",
"p c #ffbfbf",
"o c #ffffff",
".....................",
"......#########......",
"......aaaaaaaaa......",
"....#aabcccccbaa#....",
"...#dbbecccccebbd#...",
"...abcccccccccccba...",
".#accccccfffffffgca#.",
".#acccchgfffffffgca#.",
".#accccgffffffffgca#.",
".#acccffffijjjjfgca#.",
".#acccfffikjjjjilca#.",
".#acccfffjjjjjjjmca#.",
".#acccfffjjjjnojmca#.",
".#acccfffjjjnponqca#.",
".#acccfffjjjoooorca#.",
"...abcffffijjnofea...",
"...#dbecgglmmsteu#...",
"....#aabcccccbaa#....",
"......aaaaaaaaa......",
"......#########......",
"....................."};
