/* XPM */
const char *filesaveas[]={
"16 16 4 1",
"# c None",
". c #000000",
"a c #404000",
"b c #808000",
"...........#####",
".a.#####.#.#####",
".a.#####...#####",
".a.#####.#.#####",
".a.#............",
".a...b.######.#.",
".aaa.b.######...",
".a...b.######.b.",
".a...b.######.b.",
".a...b........b.",
"#....bbbbbbbbbb.",
"####.bbbbbbbbbb.",
"####.bb.......b.",
"####.bb....##.b.",
"####.bb....##.b.",
"#####..........."};
