/* XPM */
const char * gradient_blue_red[] = {
"180 13 51 1",
" 	c None",
".	c #0000FF",
"+	c #0000F5",
"@	c #0000EB",
"#	c #0000E1",
"$	c #0000D7",
"%	c #0000CC",
"&	c #0000C2",
"*	c #0000B8",
"=	c #0000AE",
"-	c #0000A4",
";	c #000099",
">	c #00008F",
",	c #000085",
"'	c #00007B",
")	c #000071",
"!	c #000066",
"~	c #00005C",
"{	c #000052",
"]	c #000048",
"^	c #00003E",
"/	c #000033",
"(	c #000029",
"_	c #00001F",
":	c #000015",
"<	c #00000B",
"[	c #000000",
"}	c #0A0000",
"|	c #140000",
"1	c #1E0000",
"2	c #280000",
"3	c #330000",
"4	c #3D0000",
"5	c #470000",
"6	c #510000",
"7	c #5B0000",
"8	c #660000",
"9	c #700000",
"0	c #7A0000",
"a	c #840000",
"b	c #8E0000",
"c	c #990000",
"d	c #A30000",
"e	c #AD0000",
"f	c #B70000",
"g	c #C10000",
"h	c #CC0000",
"i	c #D60000",
"j	c #E00000",
"k	c #EA0000",
"l	c #F40000",
"....+++@@@@###$$$$%%%%&&&****===----;;;;>>>,,,,'''))))!!!!~~~{{{{]]]^^^^////(((____:::<<<<[[[[}}}||||111222233334445555666777788889990000aaabbbbccccdddeeeefffgggghhhhiiijjjjkkkllll",
"....+++@@@@###$$$$%%%%&&&****===----;;;;>>>,,,,'''))))!!!!~~~{{{{]]]^^^^////(((____:::<<<<[[[[}}}||||111222233334445555666777788889990000aaabbbbccccdddeeeefffgggghhhhiiijjjjkkkllll",
"....+++@@@@###$$$$%%%%&&&****===----;;;;>>>,,,,'''))))!!!!~~~{{{{]]]^^^^////(((____:::<<<<[[[[}}}||||111222233334445555666777788889990000aaabbbbccccdddeeeefffgggghhhhiiijjjjkkkllll",
"....+++@@@@###$$$$%%%%&&&****===----;;;;>>>,,,,'''))))!!!!~~~{{{{]]]^^^^////(((____:::<<<<[[[[}}}||||111222233334445555666777788889990000aaabbbbccccdddeeeefffgggghhhhiiijjjjkkkllll",
"....+++@@@@###$$$$%%%%&&&****===----;;;;>>>,,,,'''))))!!!!~~~{{{{]]]^^^^////(((____:::<<<<[[[[}}}||||111222233334445555666777788889990000aaabbbbccccdddeeeefffgggghhhhiiijjjjkkkllll",
"....+++@@@@###$$$$%%%%&&&****===----;;;;>>>,,,,'''))))!!!!~~~{{{{]]]^^^^////(((____:::<<<<[[[[}}}||||111222233334445555666777788889990000aaabbbbccccdddeeeefffgggghhhhiiijjjjkkkllll",
"....+++@@@@###$$$$%%%%&&&****===----;;;;>>>,,,,'''))))!!!!~~~{{{{]]]^^^^////(((____:::<<<<[[[[}}}||||111222233334445555666777788889990000aaabbbbccccdddeeeefffgggghhhhiiijjjjkkkllll",
"....+++@@@@###$$$$%%%%&&&****===----;;;;>>>,,,,'''))))!!!!~~~{{{{]]]^^^^////(((____:::<<<<[[[[}}}||||111222233334445555666777788889990000aaabbbbccccdddeeeefffgggghhhhiiijjjjkkkllll",
"....+++@@@@###$$$$%%%%&&&****===----;;;;>>>,,,,'''))))!!!!~~~{{{{]]]^^^^////(((____:::<<<<[[[[}}}||||111222233334445555666777788889990000aaabbbbccccdddeeeefffgggghhhhiiijjjjkkkllll",
"....+++@@@@###$$$$%%%%&&&****===----;;;;>>>,,,,'''))))!!!!~~~{{{{]]]^^^^////(((____:::<<<<[[[[}}}||||111222233334445555666777788889990000aaabbbbccccdddeeeefffgggghhhhiiijjjjkkkllll",
"....+++@@@@###$$$$%%%%&&&****===----;;;;>>>,,,,'''))))!!!!~~~{{{{]]]^^^^////(((____:::<<<<[[[[}}}||||111222233334445555666777788889990000aaabbbbccccdddeeeefffgggghhhhiiijjjjkkkllll",
"....+++@@@@###$$$$%%%%&&&****===----;;;;>>>,,,,'''))))!!!!~~~{{{{]]]^^^^////(((____:::<<<<[[[[}}}||||111222233334445555666777788889990000aaabbbbccccdddeeeefffgggghhhhiiijjjjkkkllll",
"....+++@@@@###$$$$%%%%&&&****===----;;;;>>>,,,,'''))))!!!!~~~{{{{]]]^^^^////(((____:::<<<<[[[[}}}||||111222233334445555666777788889990000aaabbbbccccdddeeeefffgggghhhhiiijjjjkkkllll"};
