/* XPM */
const char *icon_datasampler_large[]={
"32 32 6 1",
". c None",
"a c #303030",
"# c #585858",
"b c #808080",
"d c #ff0000",
"c c #ffffff",
"................................",
"................................",
"............#.#.#.#.............",
"...........##.####..##..........",
".........#.#.##.#.###..#........",
"........#.##aaaaaaa###..#.......",
"......##.#aaaaabbaaaaa##.#......",
".....##.#aaaaab..caaaaa##.......",
"....#..#abbaaab..caaabba###.....",
".....##ab..caaaccaaabc.ca###....",
"...##.aab..caaaaaaaab.ccaa#.....",
"...###aaaccaaaaaaaaaaccaaa#.#...",
".....#aaaaaaaaaaaaaaaaaaaaa#.#..",
"..###aaaaaaaaaaaaaaaaaaaaaa#....",
"...#.aabbaaaaaabbaaaaaabbaa#.#..",
"..###ab..caaaabcccaaaab..ca#....",
"..###ab..caaaabcccaaaab..ca#.#..",
"..#.#aaccaaaaaaccaaaaaaccaa#....",
"...##aaaaaaaaaaaaaaaaaaaaaa#.#..",
"..#.#aaaaaaaaaaaaaaaaaaaaa#.....",
"...#.#aaabbaaaaaaaaaabbaaa#.#...",
"....##aab..caaaaaaaab..ca#..#...",
"....###ab..caaabbaaab..ca#......",
".....###accaaab..caaacca#..#....",
".......##aaaaab..caaaaa#..#.....",
"......#..#aaaaaccaaaaa#..#......",
".......#..###aaaaaa###.#........",
"........#....######...#.........",
"..........##........#d..........",
".............#.###.#d...........",
"dddddddddddddddddddd............",
"................................"};
