/* XPM */
static char *icon_template[]={
"32 32 3 1",
"# c None",
"a c #303030",
". c #a0a0a0",
"......................##########",
".####################.##########",
".####################.##########",
".####################.##########",
".####################.##########",
".####################.##########",
".####################.##########",
".####################.##########",
".####################.##########",
".####################.##########",
".####################.##########",
".####################.##########",
".####################.##########",
".####################.##########",
".####################.##########",
".####################.##########",
".####################.##########",
".####################.##########",
".####################.##########",
".####################.##########",
".##################aa.##########",
"...................aa.##########",
"################################",
"###################aa#aaaaaa#aaa",
"###################aa#aa##aa#aa#",
"###################aa#aa##aa#aa#",
"###################aa#aa##aa#aa#",
"###################aaaaaaaaaaaa#",
"##########################aa####",
"##########################aa####",
"##########################aa####",
"##########################aa####"};
