/* XPM */
static char *test[]={
"32 32 73 2",
".# c None",
".m c #303030",
".6 c #373d77",
"## c #383e77",
"#g c #3c4277",
".5 c #3e4377",
".p c #424242",
"#. c #424777",
"#f c #464a77",
".4 c #474c77",
".9 c #4b4f77",
"#e c #4f5377",
".3 c #515477",
".a c #585858",
"#d c #585b77",
".2 c #5a5d77",
".8 c #5e6077",
"#c c #626477",
".1 c #646577",
".o c #6b6b6b",
"#b c #6b6c77",
".g c #6d6d6d",
".0 c #6d6e77",
".k c #707070",
".7 c #717177",
"#a c #757577",
".Z c #777777",
".n c #898989",
".h c #8c8c8c",
".s c #8f8984",
".d c #999999",
"Qt c #a0a0a0",
".Y c #bca685",
".P c #bca88a",
".L c #bcab90",
".B c #bcae97",
".c c #bcb7b1",
".w c #beb6af",
".i c #c6c1b6",
".l c #cecece",
".b c #dedede",
".x c #dfdfdf",
".r c #e2e0de",
".v c #e7e0d9",
".X c #e9d6ba",
".f c #eaeaea",
".W c #ecdcc1",
".H c #ece2d4",
".V c #eee0c9",
".A c #eee7dc",
".U c #f0e4d2",
".O c #f1e4d2",
".T c #f2e9da",
".N c #f3eadb",
".K c #f3eadc",
".G c #f3ebdc",
".z c #f3ede3",
".u c #f4f0ec",
".S c #f5eee2",
".M c #f5eee3",
".J c #f5eee4",
".F c #f5efe5",
".q c #f6f5f5",
".R c #f8f2ea",
".I c #f8f3eb",
".E c #f8f4ec",
".y c #f8f4ed",
".Q c #faf6f2",
".D c #faf8f4",
".t c #fbf9f6",
".j c #fcfcfc",
".C c #fefefd",
".e c #ffffff",
"QtQtQtQtQtQtQtQtQtQtQtQtQtQtQtQtQtQtQtQtQtQt.#.#.#.#.#.#.#.#.#.#",
"Qt.#.#.#.#.#.#.#.#.#.#.#.#.#.#.#.#.#.#.#.#Qt.#.#.#.#.#.#.#.#.#.#",
"Qt.#.#.#.#.#.#.#.#.#.#.#.#.#.#.#.#.#.#.#.#Qt.#.#.#.#.#.#.#.#.#.#",
"Qt.#.#.#.#.a.a.a.a.a.a.a.a.a.#.#.#.#.#.#.#Qt.#.#.#.#.#.#.#.#.#.#",
"Qt.#.#.#.#.a.b.b.b.b.b.c.a.d.a.#.#.#.#.#.#Qt.#.#.#.#.#.#.#.#.#.#",
"Qt.#.#.#.#.a.b.e.e.e.e.f.g.e.d.a.#.#.#.#.#Qt.#.#.#.#.#.#.#.#.#.#",
"Qt.#.#.#.#.a.b.h.i.e.e.j.k.l.e.d.m.#.#.#.#Qt.#.#.#.#.#.#.#.#.#.#",
"Qt.#.#.#.#.a.b.i.e.e.e.e.n.k.o.p.m.#.#.#.#Qt.#.#.#.#.#.#.#.#.#.#",
"Qt.#.#.#.#.a.b.e.e.e.e.e.q.r.c.s.m.#.#.#.#Qt.#.#.#.#.#.#.#.#.#.#",
"Qt.#.#.#.#.a.b.h.i.e.h.i.t.u.v.w.m.#.#.#.#Qt.#.#.#.#.#.#.#.#.#.#",
"Qt.#.#.#.#.a.x.i.e.e.i.e.y.z.A.B.m.#.#.#.#Qt.#.#.#.#.#.#.#.#.#.#",
"Qt.#.#.#.#.a.b.e.e.C.D.E.F.G.H.B.m.#.#.#.#Qt.#.#.#.#.#.#.#.#.#.#",
"Qt.#.#.#.#.a.b.h.i.D.I.J.K.h.i.L.m.#.#.#.#Qt.#.#.#.#.#.#.#.#.#.#",
"Qt.#.#.#.#.a.b.i.e.I.M.N.O.i.e.P.m.#.#.#.#Qt.#.#.#.#.#.#.#.#.#.#",
"Qt.#.#.#.#.a.b.Q.R.S.T.U.V.W.X.Y.m.#.#.#.#Qt.#.#.#.#.#.#.#.#.#.#",
"Qt.#.#.#.#.a.Z.Z.Z.0.1.2.3.4.5.6.m.#.#.#.#Qt.#.#.#.#.#.#.#.#.#.#",
"Qt.#.#.#.#.a.Z.Z.7.e.8.e.9#.##.6.m.#.#.#.#Qt.#.#.#.#.#.#.#.#.#.#",
"Qt.#.#.#.#.a.Z#a#b#c#d#e#f#g.6.6.m.#.#.#.#Qt.#.#.#.#.#.#.#.#.#.#",
"Qt.#.#.#.#.a.m.m.m.m.m.m.m.m.m.m.m.#.#.#.#Qt.#.#.#.#.#.#.#.#.#.#",
"Qt.#.#.#.#.#.#.#.#.#.#.#.#.#.#.#.#.#.#.#.#Qt.#.#.#.#.#.#.#.#.#.#",
"Qt.#.#.#.#.#.#.#.#.#.#.#.#.#.#.#.#.#.#.m.mQt.#.#.#.#.#.#.#.#.#.#",
"QtQtQtQtQtQtQtQtQtQtQtQtQtQtQtQtQtQtQt.m.mQt.#.#.#.#.#.#.#.#.#.#",
".#.#.#.#.#.#.#.#.#.#.#.#.#.#.#.#.#.#.#.#.#.#.#.#.#.#.#.#.#.#.#.#",
".#.#.#.#.#.#.#.#.#.#.#.#.#.#.#.#.#.#.#.m.m.#.m.m.m.m.m.m.#.m.m.m",
".#.#.#.#.#.#.#.#.#.#.#.#.#.#.#.#.#.#.#.m.m.#.m.m.#.#.m.m.#.m.m.#",
".#.#.#.#.#.#.#.#.#.#.#.#.#.#.#.#.#.#.#.m.m.#.m.m.#.#.m.m.#.m.m.#",
".#.#.#.#.#.#.#.#.#.#.#.#.#.#.#.#.#.#.#.m.m.#.m.m.#.#.m.m.#.m.m.#",
".#.#.#.#.#.#.#.#.#.#.#.#.#.#.#.#.#.#.#.m.m.m.m.m.m.m.m.m.m.m.m.#",
".#.#.#.#.#.#.#.#.#.#.#.#.#.#.#.#.#.#.#.#.#.#.#.#.#.#.m.m.#.#.#.#",
".#.#.#.#.#.#.#.#.#.#.#.#.#.#.#.#.#.#.#.#.#.#.#.#.#.#.m.m.#.#.#.#",
".#.#.#.#.#.#.#.#.#.#.#.#.#.#.#.#.#.#.#.#.#.#.#.#.#.#.m.m.#.#.#.#",
".#.#.#.#.#.#.#.#.#.#.#.#.#.#.#.#.#.#.#.#.#.#.#.#.#.#.m.m.#.#.#.#"};
