/* XPM */
const static char *iqr_2[]={
"33 33 6 1",
". c None",
"b c #303030",
"a c #585858",
"d c #808080",
"# c #a0a0a0",
"c c #c3c3c3",
".................................",
".................................",
".................................",
".................................",
".................................",
".................................",
".................................",
".................................",
".................................",
"......#####......................",
"......#aaab......................",
"......#bbbb......................",
".................................",
".................................",
"......#####..############..######",
"......#aaab..#aaaaaaaaaab..#aaaaa",
"......#aaab..#aabbbbbbaab..#aabbb",
"......#aaab..#aab....#aab..#aab..",
"......#aaab..#aab....#aab..#aab..",
"......#aaab..#aab....#aab..#aab..",
"......#aaab..#aab....#aab..#aab..",
"......#aaab.c#aab....#aab..#aab..",
"......#aaabdddaadd####aabdddaab..",
"......#aaaaaaaaaaaaaaaaaaaaaaab..",
"......#bbbbbbbbbbbbbbbaabbbbbbb..",
".....................#aab........",
".....................#aab........",
".....................#aab........",
".....................#aab........",
".....................#aab........",
".....................#aab........",
".....................#aab........",
".....................#aab........"};
