/* XPM */
static char *iqr_test[]={
"32 32 5 1",
"b c #0000ff",
"c c #00ff00",
"a c #303030",
"# c #808080",
". c #ff0000",
"................................",
"................................",
"..##############################",
"..#aaaa.....................#bb#",
"..#aaaa.....................#bb#",
"..#aaaa###################..#bb#",
"..#aaaacccccccccccccccccc#..#bb#",
"..#cc#ccccccccccccccccccc#..#bb#",
"..#cc#cc##################..#bb#",
"..#aaaac#aaaaaaaaaaaac#aaaaaabb#",
"..#aaaac#aaaaaaaaaaaac#aaaaaabb#",
"..#aaaac#aaaa####aaaac#aaaa.#bb#",
"..#aaaac#aaaabbbbaaaac#aaaa.#bb#",
"..#aaaac#aaaabbbbaaaac#aaaa.#bb#",
"..#aaaac#aaaab###aaaac#aaaa.#bb#",
"..#aaaac#aaaab#..aaaac#aaaa.#bb#",
"..#aaaac#aaaab#..aaaac#aaaa.#bb#",
"..#aaaaaaaaaaaaaaaaaaaaaaaa.#bb#",
"..#aaaaaaaaaaaaaaaaaaaaaaaa.#bb#",
"..#aaaaaaaaaaaaaaaaaaaaaaaa.#bb#",
"..#cc#cc#bb#.....aaaa....#..#bb#",
"..#cc#cc#bb#.....aaaa....#..#bb#",
"..#cc#cc#bb######aaaa#####..#bb#",
"..#cc#cc#bbbbbbbbaaaabbbb#..#bb#",
"..#cc#cc#bbbbbbbbaaaabbbb#..#bb#",
"..#cc############aaaa########bb#",
"..#cc#bbbbbbbbbbbaaaabbbbbbbbbb#",
"..#cc#bbbbbbbbbbbaaaabbbbbbbbbb#",
"..#cc###########################",
"..#cccccccccccccccccccccccccccc#",
"..#cccccccccccccccccccccccccccc#",
"..##############################"};
