/* XPM */
const char *stop[]={
"22 22 5 1",
". c None",
"b c #303030",
"c c #800000",
"a c #a0a0a0",
"# c #ffffff",
"......................",
"......................",
"......................",
"......................",
"....##############....",
"....#aaaaaaaaaaaab....",
"....#acbcbcbcbcbab....",
"....#abcbcbcbcbcab....",
"....#acbcbcbcbcbab....",
"....#abcbcbcbcbcab....",
"....#acbcbcbcbcbab....",
"....#abcbcbcbcbcab....",
"....#acbcbcbcbcbab....",
"....#abcbcbcbcbcab....",
"....#acbcbcbcbcbab....",
"....#abcbcbcbcbcab....",
"....#aaaaaaaaaaaab....",
"....#bbbbbbbbbbbbb....",
"......................",
"......................",
"......................",
"......................"};
