/* XPM */
const char *syste[]={
"10 10 6 1",
". c None",
"b c #0000c0",
"c c #00ff00",
"# c #303030",
"d c #ff0000",
"a c #ffffff",
"..........",
".###......",
".#a#bbbb..",
".###..###.",
"..c...#a#.",
"...c..###.",
"..###..d..",
"..#a#ddd..",
"..###.....",
".........."};
